Kablammov0.12-C.ufo
<glyph name="exclam" format="2">
  <advance width="345"/>
  <unicode hex="0021"/>
  <outline>
    <contour>
      <point x="128" y="290" type="curve" smooth="yes"/>
      <point x="133" y="235"/>
      <point x="195" y="223"/>
      <point x="208" y="285" type="curve" smooth="yes"/>
      <point x="237" y="423"/>
      <point x="268" y="596"/>
      <point x="284" y="706" type="curve" smooth="yes"/>
      <point x="302" y="828"/>
      <point x="99" y="838"/>
      <point x="100" y="716" type="curve" smooth="yes"/>
      <point x="100" y="700"/>
      <point x="101" y="684"/>
      <point x="102" y="666" type="curve"/>
      <point x="206" y="674"/>
      <point x="213" y="669"/>
      <point x="214" y="642" type="curve" smooth="yes"/>
      <point x="215" y="618"/>
      <point x="203" y="612"/>
      <point x="105" y="604" type="curve"/>
      <point x="106" y="586"/>
      <point x="107" y="567"/>
      <point x="108" y="548" type="curve" smooth="yes"/>
      <point x="108" y="536"/>
      <point x="109" y="524"/>
      <point x="110" y="512" type="curve" smooth="yes"/>
      <point x="111" y="499"/>
      <point x="112" y="486"/>
      <point x="113" y="473" type="curve" smooth="yes"/>
      <point x="118" y="411"/>
      <point x="123" y="348"/>
    </contour>
    <contour>
      <point x="147" y="-20" type="curve" smooth="yes"/>
      <point x="205" y="-20"/>
      <point x="242" y="9"/>
      <point x="242" y="74" type="curve" smooth="yes"/>
      <point x="242" y="126"/>
      <point x="212" y="159"/>
      <point x="159" y="159" type="curve" smooth="yes"/>
      <point x="103" y="159"/>
      <point x="69" y="129"/>
      <point x="69" y="74" type="curve" smooth="yes"/>
      <point x="69" y="19"/>
      <point x="94" y="-20"/>
    </contour>
    <contour>
      <point x="106" y="434" type="curve" smooth="yes"/>
      <point x="38" y="432"/>
      <point x="18" y="427"/>
      <point x="19" y="394" type="curve" smooth="yes"/>
      <point x="20" y="362"/>
      <point x="38" y="358"/>
      <point x="102" y="355" type="curve" smooth="yes"/>
      <point x="128" y="354"/>
      <point x="193" y="354"/>
      <point x="234" y="355" type="curve" smooth="yes"/>
      <point x="322" y="358"/>
      <point x="337" y="364"/>
      <point x="338" y="393" type="curve" smooth="yes"/>
      <point x="339" y="422"/>
      <point x="326" y="429"/>
      <point x="242" y="433" type="curve" smooth="yes"/>
      <point x="187" y="435"/>
      <point x="144" y="435"/>
    </contour>
    <contour>
      <point x="210" y="597" type="curve" smooth="yes"/>
      <point x="198" y="597"/>
      <point x="187" y="591"/>
      <point x="185" y="562" type="curve" smooth="yes"/>
      <point x="183" y="529"/>
      <point x="190" y="520"/>
      <point x="195" y="519" type="curve" smooth="yes"/>
      <point x="202" y="518"/>
      <point x="207" y="515"/>
      <point x="217" y="516" type="curve" smooth="yes"/>
      <point x="228" y="517"/>
      <point x="241" y="522"/>
      <point x="243" y="552" type="curve" smooth="yes"/>
      <point x="245" y="588"/>
      <point x="235" y="595"/>
      <point x="227" y="596" type="curve" smooth="yes"/>
      <point x="220" y="597"/>
      <point x="215" y="597"/>
    </contour>
  </outline>
</glyph>
<glyph name="dollar" format="2">
  <advance width="468"/>
  <unicode hex="0024"/>
  <outline>
    <contour>
      <point x="229" y="37" type="curve" smooth="yes"/>
      <point x="360" y="37"/>
      <point x="446" y="94"/>
      <point x="446" y="226" type="curve" smooth="yes"/>
      <point x="446" y="333"/>
      <point x="393" y="385"/>
      <point x="235" y="440" type="curve" smooth="yes"/>
      <point x="165" y="464"/>
      <point x="146" y="489"/>
      <point x="146" y="524" type="curve" smooth="yes"/>
      <point x="146" y="566"/>
      <point x="177" y="600"/>
      <point x="259" y="600" type="curve" smooth="yes"/>
      <point x="345" y="600"/>
      <point x="377" y="554"/>
      <point x="407" y="554" type="curve" smooth="yes"/>
      <point x="426" y="554"/>
      <point x="435" y="569"/>
      <point x="435" y="588" type="curve" smooth="yes"/>
      <point x="435" y="627"/>
      <point x="352" y="673"/>
      <point x="263" y="673" type="curve" smooth="yes"/>
      <point x="145" y="673"/>
      <point x="59" y="604"/>
      <point x="59" y="493" type="curve" smooth="yes"/>
      <point x="59" y="399"/>
      <point x="105" y="345"/>
      <point x="195" y="298" type="curve" smooth="yes"/>
      <point x="296" y="245"/>
      <point x="323" y="213"/>
      <point x="323" y="172" type="curve" smooth="yes"/>
      <point x="323" y="130"/>
      <point x="289" y="112"/>
      <point x="241" y="112" type="curve" smooth="yes"/>
      <point x="125" y="112"/>
      <point x="87" y="213"/>
      <point x="50" y="213" type="curve" smooth="yes"/>
      <point x="30" y="213"/>
      <point x="19" y="202"/>
      <point x="19" y="183" type="curve" smooth="yes"/>
      <point x="19" y="124"/>
      <point x="127" y="37"/>
    </contour>
    <contour>
      <point x="244" y="320" type="curve" smooth="yes"/>
      <point x="224" y="320"/>
      <point x="208" y="336"/>
      <point x="208" y="356" type="curve" smooth="yes"/>
      <point x="208" y="375"/>
      <point x="224" y="392"/>
      <point x="244" y="392" type="curve" smooth="yes"/>
      <point x="263" y="392"/>
      <point x="280" y="375"/>
      <point x="280" y="356" type="curve" smooth="yes"/>
      <point x="280" y="336"/>
      <point x="263" y="320"/>
    </contour>
    <contour>
      <point x="332" y="262" type="curve" smooth="yes"/>
      <point x="311" y="262"/>
      <point x="295" y="278"/>
      <point x="295" y="299" type="curve" smooth="yes"/>
      <point x="295" y="319"/>
      <point x="311" y="337"/>
      <point x="332" y="337" type="curve" smooth="yes"/>
      <point x="352" y="337"/>
      <point x="370" y="319"/>
      <point x="370" y="299" type="curve" smooth="yes"/>
      <point x="370" y="278"/>
      <point x="352" y="262"/>
    </contour>
    <contour>
      <point x="288" y="70" type="line"/>
      <point x="296" y="56"/>
      <point x="304" y="49"/>
      <point x="328" y="59" type="curve" smooth="yes"/>
      <point x="352" y="69"/>
      <point x="350" y="79"/>
      <point x="341" y="94" type="curve"/>
    </contour>
    <contour>
      <point x="85" y="121" type="line"/>
      <point x="22" y="37"/>
      <point x="12" y="9"/>
      <point x="32" y="-4" type="curve" smooth="yes"/>
      <point x="51" y="-19"/>
      <point x="74" y="-9"/>
      <point x="131" y="92" type="curve"/>
    </contour>
    <contour>
      <point x="187" y="156" type="curve" smooth="yes"/>
      <point x="177" y="104"/>
      <point x="158" y="-3"/>
      <point x="151" y="-45" type="curve" smooth="yes"/>
      <point x="145" y="-87"/>
      <point x="157" y="-100"/>
      <point x="176" y="-102" type="curve" smooth="yes"/>
      <point x="194" y="-104"/>
      <point x="205" y="-94"/>
      <point x="212" y="-54" type="curve" smooth="yes"/>
      <point x="219" y="-17"/>
      <point x="240" y="108"/>
      <point x="245" y="145" type="curve" smooth="yes"/>
      <point x="249" y="175"/>
      <point x="243" y="187"/>
      <point x="224" y="190" type="curve" smooth="yes"/>
      <point x="208" y="193"/>
      <point x="193" y="186"/>
    </contour>
    <contour>
      <point x="308" y="524" type="curve" smooth="yes"/>
      <point x="322" y="601"/>
      <point x="337" y="693"/>
      <point x="345" y="757" type="curve" smooth="yes"/>
      <point x="350" y="796"/>
      <point x="343" y="810"/>
      <point x="326" y="813" type="curve" smooth="yes"/>
      <point x="307" y="816"/>
      <point x="293" y="807"/>
      <point x="285" y="769" type="curve" smooth="yes"/>
      <point x="272" y="704"/>
      <point x="258" y="614"/>
      <point x="246" y="535" type="curve" smooth="yes"/>
      <point x="242" y="509"/>
      <point x="256" y="496"/>
      <point x="270" y="493" type="curve" smooth="yes"/>
      <point x="286" y="490"/>
      <point x="303" y="494"/>
    </contour>
  </outline>
</glyph>
<glyph name="ampersand" format="2">
  <advance width="557"/>
  <unicode hex="0026"/>
  <outline>
    <contour>
      <point x="221" y="-32" type="curve" smooth="yes"/>
      <point x="371" y="-32"/>
      <point x="445" y="30"/>
      <point x="445" y="169" type="curve" smooth="yes"/>
      <point x="445" y="216"/>
      <point x="439" y="271"/>
      <point x="433" y="313" type="curve" smooth="yes"/>
      <point x="430" y="334"/>
      <point x="438" y="342"/>
      <point x="457" y="344" type="curve" smooth="yes"/>
      <point x="494" y="349"/>
      <point x="522" y="361"/>
      <point x="519" y="395" type="curve" smooth="yes"/>
      <point x="517" y="415"/>
      <point x="506" y="430"/>
      <point x="463" y="430" type="curve" smooth="yes"/>
      <point x="447" y="430"/>
      <point x="420" y="428"/>
      <point x="391" y="425" type="curve"/>
      <point x="391" y="425"/>
      <point x="381" y="424"/>
      <point x="368" y="423" type="curve" smooth="yes"/>
      <point x="356" y="422"/>
      <point x="339" y="420"/>
      <point x="339" y="420" type="curve"/>
      <point x="330" y="419"/>
      <point x="323" y="419"/>
      <point x="312" y="418" type="curve"/>
      <point x="312" y="418"/>
      <point x="304" y="417"/>
      <point x="287" y="416" type="curve" smooth="yes"/>
      <point x="268" y="415"/>
      <point x="264" y="415"/>
      <point x="264" y="415" type="curve"/>
      <point x="257" y="415"/>
      <point x="251" y="415"/>
      <point x="245" y="415" type="curve" smooth="yes"/>
      <point x="176" y="415"/>
      <point x="138" y="482"/>
      <point x="138" y="521" type="curve" smooth="yes"/>
      <point x="138" y="589"/>
      <point x="184" y="620"/>
      <point x="292" y="620" type="curve" smooth="yes"/>
      <point x="396" y="620"/>
      <point x="414" y="586"/>
      <point x="458" y="586" type="curve" smooth="yes"/>
      <point x="482" y="586"/>
      <point x="494" y="597"/>
      <point x="494" y="619" type="curve" smooth="yes"/>
      <point x="494" y="664"/>
      <point x="418" y="702"/>
      <point x="297" y="702" type="curve" smooth="yes"/>
      <point x="159" y="702"/>
      <point x="58" y="642"/>
      <point x="58" y="522" type="curve" smooth="yes"/>
      <point x="58" y="453"/>
      <point x="88" y="413"/>
      <point x="141" y="384" type="curve" smooth="yes"/>
      <point x="151" y="379"/>
      <point x="152" y="369"/>
      <point x="141" y="362" type="curve" smooth="yes"/>
      <point x="70" y="317"/>
      <point x="38" y="255"/>
      <point x="38" y="160" type="curve" smooth="yes"/>
      <point x="38" y="42"/>
      <point x="106" y="-32"/>
    </contour>
    <contour>
      <point x="245" y="132" type="curve" smooth="yes"/>
      <point x="173" y="132"/>
      <point x="133" y="175"/>
      <point x="133" y="228" type="curve" smooth="yes"/>
      <point x="133" y="289"/>
      <point x="169" y="320"/>
      <point x="232" y="330" type="curve" smooth="yes"/>
      <point x="266" y="335"/>
      <point x="303" y="336"/>
      <point x="325" y="335" type="curve" smooth="yes"/>
      <point x="349" y="334"/>
      <point x="361" y="327"/>
      <point x="365" y="307" type="curve" smooth="yes"/>
      <point x="369" y="285"/>
      <point x="373" y="254"/>
      <point x="374" y="230" type="curve" smooth="yes"/>
      <point x="376" y="168"/>
      <point x="321" y="132"/>
    </contour>
    <contour>
      <point x="137" y="56" type="curve" smooth="yes"/>
      <point x="119" y="56"/>
      <point x="105" y="70"/>
      <point x="105" y="88" type="curve" smooth="yes"/>
      <point x="105" y="105"/>
      <point x="119" y="119"/>
      <point x="137" y="119" type="curve" smooth="yes"/>
      <point x="154" y="119"/>
      <point x="168" y="105"/>
      <point x="168" y="88" type="curve" smooth="yes"/>
      <point x="168" y="70"/>
      <point x="154" y="56"/>
    </contour>
    <contour>
      <point x="226" y="15" type="curve" smooth="yes"/>
      <point x="205" y="15"/>
      <point x="188" y="32"/>
      <point x="188" y="53" type="curve" smooth="yes"/>
      <point x="188" y="73"/>
      <point x="205" y="89"/>
      <point x="226" y="89" type="curve" smooth="yes"/>
      <point x="246" y="89"/>
      <point x="262" y="73"/>
      <point x="262" y="53" type="curve" smooth="yes"/>
      <point x="262" y="32"/>
      <point x="246" y="15"/>
    </contour>
    <contour>
      <point x="322" y="36" type="curve" smooth="yes"/>
      <point x="304" y="36"/>
      <point x="290" y="50"/>
      <point x="290" y="68" type="curve" smooth="yes"/>
      <point x="290" y="85"/>
      <point x="304" y="99"/>
      <point x="322" y="99" type="curve" smooth="yes"/>
      <point x="339" y="99"/>
      <point x="353" y="85"/>
      <point x="353" y="68" type="curve" smooth="yes"/>
      <point x="353" y="50"/>
      <point x="339" y="36"/>
    </contour>
    <contour>
      <point x="361" y="709" type="curve" smooth="yes"/>
      <point x="365" y="753"/>
      <point x="362" y="771"/>
      <point x="335" y="774" type="curve" smooth="yes"/>
      <point x="313" y="777"/>
      <point x="301" y="764"/>
      <point x="293" y="718" type="curve" smooth="yes"/>
      <point x="287" y="682"/>
      <point x="283" y="646"/>
      <point x="279" y="607" type="curve" smooth="yes"/>
      <point x="273" y="553"/>
      <point x="274" y="535"/>
      <point x="300" y="529" type="curve" smooth="yes"/>
      <point x="322" y="526"/>
      <point x="336" y="544"/>
      <point x="343" y="590" type="curve" smooth="yes"/>
      <point x="350" y="634"/>
      <point x="357" y="676"/>
    </contour>
    <contour>
      <point x="426" y="659" type="curve" smooth="yes"/>
      <point x="427" y="665"/>
      <point x="424" y="674"/>
      <point x="401" y="678" type="curve" smooth="yes"/>
      <point x="382" y="681"/>
      <point x="374" y="673"/>
      <point x="373" y="668" type="curve" smooth="yes"/>
      <point x="370" y="658"/>
      <point x="368" y="652"/>
      <point x="368" y="644" type="curve" smooth="yes"/>
      <point x="367" y="637"/>
      <point x="369" y="628"/>
      <point x="391" y="625" type="curve" smooth="yes"/>
      <point x="411" y="621"/>
      <point x="417" y="631"/>
      <point x="420" y="638" type="curve" smooth="yes"/>
      <point x="423" y="646"/>
      <point x="425" y="653"/>
    </contour>
  </outline>
</glyph>
<glyph name="parenleft" format="2">
  <advance width="367"/>
  <unicode hex="0028"/>
  <outline>
    <contour>
      <point x="77" y="337" type="curve" smooth="yes"/>
      <point x="77" y="118"/>
      <point x="156" y="-39"/>
      <point x="231" y="-105" type="curve" smooth="yes"/>
      <point x="281" y="-149"/>
      <point x="346" y="-80"/>
      <point x="306" y="-42" type="curve" smooth="yes"/>
      <point x="217" y="43"/>
      <point x="171" y="170"/>
      <point x="171" y="334" type="curve" smooth="yes"/>
      <point x="171" y="496"/>
      <point x="215" y="608"/>
      <point x="317" y="728" type="curve" smooth="yes"/>
      <point x="362" y="782"/>
      <point x="303" y="838"/>
      <point x="253" y="785" type="curve" smooth="yes"/>
      <point x="141" y="665"/>
      <point x="77" y="503"/>
    </contour>
    <contour>
      <point x="152" y="457" type="curve" smooth="yes"/>
      <point x="130" y="461"/>
      <point x="112" y="455"/>
      <point x="107" y="427" type="curve" smooth="yes"/>
      <point x="101" y="397"/>
      <point x="115" y="387"/>
      <point x="134" y="382" type="curve" smooth="yes"/>
      <point x="151" y="377"/>
      <point x="169" y="374"/>
      <point x="189" y="370" type="curve" smooth="yes"/>
      <point x="275" y="355"/>
      <point x="302" y="353"/>
      <point x="308" y="386" type="curve" smooth="yes"/>
      <point x="313" y="417"/>
      <point x="295" y="427"/>
      <point x="200" y="448" type="curve" smooth="yes"/>
      <point x="184" y="451"/>
      <point x="168" y="455"/>
    </contour>
    <contour>
      <point x="131" y="173" type="curve" smooth="yes"/>
      <point x="120" y="169"/>
      <point x="118" y="149"/>
      <point x="124" y="132" type="curve" smooth="yes"/>
      <point x="131" y="112"/>
      <point x="138" y="105"/>
      <point x="156" y="110" type="curve" smooth="yes"/>
      <point x="161" y="111"/>
      <point x="165" y="113"/>
      <point x="168" y="114" type="curve" smooth="yes"/>
      <point x="178" y="117"/>
      <point x="183" y="134"/>
      <point x="177" y="154" type="curve" smooth="yes"/>
      <point x="171" y="174"/>
      <point x="165" y="182"/>
      <point x="154" y="180" type="curve" smooth="yes"/>
      <point x="143" y="178"/>
      <point x="137" y="175"/>
    </contour>
    <contour>
      <point x="160" y="650" type="curve" smooth="yes"/>
      <point x="57" y="687"/>
      <point x="28" y="687"/>
      <point x="19" y="664" type="curve" smooth="yes"/>
      <point x="7" y="634"/>
      <point x="20" y="614"/>
      <point x="111" y="578" type="curve" smooth="yes"/>
      <point x="133" y="570"/>
      <point x="153" y="563"/>
      <point x="176" y="559" type="curve" smooth="yes"/>
      <point x="196" y="555"/>
      <point x="207" y="558"/>
      <point x="215" y="581" type="curve" smooth="yes"/>
      <point x="224" y="608"/>
      <point x="221" y="624"/>
      <point x="210" y="629" type="curve" smooth="yes"/>
      <point x="195" y="637"/>
      <point x="176" y="645"/>
    </contour>
  </outline>
</glyph>
<glyph name="parenright" format="2">
  <advance width="367"/>
  <unicode hex="0029"/>
  <outline>
    <contour>
      <point x="307" y="354" type="curve" smooth="yes"/>
      <point x="304" y="521"/>
      <point x="251" y="705"/>
      <point x="125" y="820" type="curve" smooth="yes"/>
      <point x="63" y="877"/>
      <point x="-19" y="803"/>
      <point x="49" y="740" type="curve" smooth="yes"/>
      <point x="162" y="635"/>
      <point x="212" y="505"/>
      <point x="215" y="336" type="curve" smooth="yes"/>
      <point x="217" y="186"/>
      <point x="145" y="50"/>
      <point x="33" y="-56" type="curve" smooth="yes"/>
      <point x="-20" y="-106"/>
      <point x="44" y="-180"/>
      <point x="102" y="-125" type="curve" smooth="yes"/>
      <point x="226" y="-8"/>
      <point x="311" y="158"/>
    </contour>
    <contour>
      <point x="161" y="697" type="curve" smooth="yes"/>
      <point x="150" y="688"/>
      <point x="145" y="666"/>
      <point x="159" y="642" type="curve" smooth="yes"/>
      <point x="176" y="613"/>
      <point x="190" y="615"/>
      <point x="209" y="621" type="curve" smooth="yes"/>
      <point x="219" y="624"/>
      <point x="228" y="628"/>
      <point x="236" y="633" type="curve" smooth="yes"/>
      <point x="333" y="687"/>
      <point x="340" y="713"/>
      <point x="322" y="742" type="curve" smooth="yes"/>
      <point x="309" y="764"/>
      <point x="278" y="763"/>
      <point x="187" y="714" type="curve" smooth="yes"/>
      <point x="180" y="710"/>
      <point x="168" y="703"/>
    </contour>
    <contour>
      <point x="161" y="119" type="curve" smooth="yes"/>
      <point x="70" y="162"/>
      <point x="43" y="157"/>
      <point x="29" y="131" type="curve" smooth="yes"/>
      <point x="15" y="104"/>
      <point x="30" y="82"/>
      <point x="110" y="33" type="curve" smooth="yes"/>
      <point x="135" y="20"/>
      <point x="180" y="-3"/>
      <point x="219" y="-20" type="curve" smooth="yes"/>
      <point x="278" y="-44"/>
      <point x="299" y="-35"/>
      <point x="311" y="-13" type="curve" smooth="yes"/>
      <point x="322" y="14"/>
      <point x="320" y="34"/>
      <point x="271" y="64" type="curve" smooth="yes"/>
      <point x="237" y="84"/>
      <point x="183" y="109"/>
    </contour>
    <contour>
      <point x="206" y="398" type="curve" smooth="yes"/>
      <point x="74" y="407"/>
      <point x="48" y="405"/>
      <point x="45" y="370" type="curve" smooth="yes"/>
      <point x="42" y="331"/>
      <point x="60" y="323"/>
      <point x="189" y="310" type="curve" smooth="yes"/>
      <point x="207" y="308"/>
      <point x="226" y="306"/>
      <point x="238" y="306" type="curve" smooth="yes"/>
      <point x="256" y="306"/>
      <point x="272" y="308"/>
      <point x="274" y="344" type="curve" smooth="yes"/>
      <point x="276" y="378"/>
      <point x="264" y="390"/>
      <point x="249" y="393" type="curve" smooth="yes"/>
      <point x="233" y="396"/>
      <point x="221" y="397"/>
    </contour>
  </outline>
</glyph>
<glyph name="plus" format="2">
  <advance width="413"/>
  <unicode hex="002B"/>
  <outline>
    <contour>
      <point x="248" y="135" type="curve" smooth="yes"/>
      <point x="249" y="242"/>
      <point x="249" y="343"/>
      <point x="247" y="429" type="curve" smooth="yes"/>
      <point x="246" y="480"/>
      <point x="225" y="493"/>
      <point x="194" y="493" type="curve" smooth="yes"/>
      <point x="164" y="493"/>
      <point x="143" y="473"/>
      <point x="146" y="427" type="curve" smooth="yes"/>
      <point x="152" y="338"/>
      <point x="160" y="240"/>
      <point x="170" y="132" type="curve" smooth="yes"/>
      <point x="174" y="92"/>
      <point x="190" y="77"/>
      <point x="211" y="77" type="curve" smooth="yes"/>
      <point x="231" y="77"/>
      <point x="248" y="92"/>
    </contour>
    <contour>
      <point x="92" y="230" type="curve" smooth="yes"/>
      <point x="165" y="236"/>
      <point x="260" y="247"/>
      <point x="332" y="257" type="curve" smooth="yes"/>
      <point x="385" y="263"/>
      <point x="394" y="286"/>
      <point x="391" y="307" type="curve" smooth="yes"/>
      <point x="387" y="330"/>
      <point x="371" y="339"/>
      <point x="330" y="337" type="curve" smooth="yes"/>
      <point x="251" y="333"/>
      <point x="152" y="325"/>
      <point x="83" y="319" type="curve" smooth="yes"/>
      <point x="31" y="315"/>
      <point x="22" y="291"/>
      <point x="25" y="266" type="curve" smooth="yes"/>
      <point x="27" y="242"/>
      <point x="42" y="225"/>
    </contour>
  </outline>
</glyph>
<glyph name="comma" format="2">
  <advance width="266"/>
  <unicode hex="002C"/>
  <outline>
    <contour>
      <point x="24" y="-142" type="curve" smooth="yes"/>
      <point x="-20" y="-187"/>
      <point x="23" y="-236"/>
      <point x="63" y="-208" type="curve" smooth="yes"/>
      <point x="150" y="-149"/>
      <point x="221" y="-28"/>
      <point x="221" y="57" type="curve" smooth="yes"/>
      <point x="221" y="134"/>
      <point x="183" y="177"/>
      <point x="126" y="177" type="curve" smooth="yes"/>
      <point x="73" y="177"/>
      <point x="38" y="144"/>
      <point x="38" y="94" type="curve" smooth="yes"/>
      <point x="38" y="16"/>
      <point x="99" y="27"/>
      <point x="99" y="-26" type="curve" smooth="yes"/>
      <point x="99" y="-56"/>
      <point x="57" y="-109"/>
    </contour>
    <contour>
      <point x="151" y="-22" type="curve"/>
      <point x="135" y="-61" type="line"/>
      <point x="151" y="-73"/>
      <point x="162" y="-81"/>
      <point x="172" y="-58" type="curve" smooth="yes"/>
      <point x="179" y="-42"/>
      <point x="174" y="-34"/>
    </contour>
    <contour>
      <point x="142" y="-71" type="line" smooth="yes"/>
      <point x="128" y="-63"/>
      <point x="116" y="-65"/>
      <point x="103" y="-83" type="curve" smooth="yes"/>
      <point x="91" y="-103"/>
      <point x="92" y="-115"/>
      <point x="110" y="-126" type="curve" smooth="yes"/>
      <point x="126" y="-136" type="line" smooth="yes"/>
      <point x="196" y="-180"/>
      <point x="218" y="-184"/>
      <point x="232" y="-162" type="curve" smooth="yes"/>
      <point x="246" y="-138"/>
      <point x="233" y="-124"/>
      <point x="161" y="-82" type="curve" smooth="yes"/>
    </contour>
    <contour>
      <point x="128" y="51" type="curve" smooth="yes"/>
      <point x="108" y="51"/>
      <point x="90" y="69"/>
      <point x="90" y="89" type="curve" smooth="yes"/>
      <point x="90" y="111"/>
      <point x="108" y="128"/>
      <point x="128" y="128" type="curve" smooth="yes"/>
      <point x="150" y="128"/>
      <point x="167" y="111"/>
      <point x="167" y="89" type="curve" smooth="yes"/>
      <point x="167" y="69"/>
      <point x="150" y="51"/>
    </contour>
  </outline>
</glyph>
<glyph name="hyphen" format="2">
  <advance width="333"/>
  <unicode hex="002D"/>
  <outline>
    <contour>
      <point x="113" y="364" type="curve" smooth="yes"/>
      <point x="68" y="363"/>
      <point x="50" y="340"/>
      <point x="50" y="306" type="curve" smooth="yes"/>
      <point x="50" y="272"/>
      <point x="69" y="249"/>
      <point x="110" y="248" type="curve" smooth="yes"/>
      <point x="147" y="247"/>
      <point x="192" y="250"/>
      <point x="238" y="255" type="curve" smooth="yes"/>
      <point x="269" y="258"/>
      <point x="281" y="278"/>
      <point x="281" y="304" type="curve" smooth="yes"/>
      <point x="281" y="330"/>
      <point x="270" y="344"/>
      <point x="235" y="351" type="curve" smooth="yes"/>
      <point x="205" y="357"/>
      <point x="139" y="365"/>
    </contour>
  </outline>
</glyph>
<glyph name="period" format="2">
  <advance width="276"/>
  <unicode hex="002E"/>
  <outline>
    <contour>
      <point x="137" y="-7" type="curve" smooth="yes"/>
      <point x="189" y="-7"/>
      <point x="219" y="21"/>
      <point x="219" y="79" type="curve" smooth="yes"/>
      <point x="219" y="138"/>
      <point x="192" y="179"/>
      <point x="141" y="179" type="curve" smooth="yes"/>
      <point x="93" y="179"/>
      <point x="57" y="139"/>
      <point x="57" y="82" type="curve" smooth="yes"/>
      <point x="57" y="31"/>
      <point x="89" y="-7"/>
    </contour>
    <contour>
      <point x="141" y="87" type="curve" smooth="yes"/>
      <point x="141" y="87"/>
      <point x="141" y="87"/>
      <point x="141" y="87" type="curve" smooth="yes"/>
      <point x="141" y="87"/>
      <point x="141" y="87"/>
      <point x="141" y="87" type="curve" smooth="yes"/>
      <point x="141" y="87"/>
      <point x="141" y="87"/>
      <point x="141" y="87" type="curve" smooth="yes"/>
      <point x="141" y="87"/>
      <point x="141" y="87"/>
    </contour>
  </outline>
</glyph>
<glyph name="one" format="2">
  <advance width="473"/>
  <unicode hex="0031"/>
  <outline>
    <contour>
      <point x="295" y="644" type="line" smooth="yes"/>
      <point x="289" y="688"/>
      <point x="273" y="711"/>
      <point x="239" y="711" type="curve" smooth="yes"/>
      <point x="213" y="712"/>
      <point x="195" y="703"/>
      <point x="71" y="652" type="curve" smooth="yes"/>
      <point x="14" y="629"/>
      <point x="36" y="568"/>
      <point x="92" y="579" type="curve" smooth="yes"/>
      <point x="153" y="591" type="line" smooth="yes"/>
      <point x="200" y="600"/>
      <point x="219" y="595"/>
      <point x="213" y="558" type="curve" smooth="yes"/>
      <point x="145" y="147" type="line" smooth="yes"/>
      <point x="140" y="117"/>
      <point x="130" y="104"/>
      <point x="103" y="97" type="curve" smooth="yes"/>
      <point x="61" y="86" type="line" smooth="yes"/>
      <point x="1" y="70"/>
      <point x="-2" y="-4"/>
      <point x="68" y="-6" type="curve" smooth="yes"/>
      <point x="420" y="-15" type="line" smooth="yes"/>
      <point x="464" y="-16"/>
      <point x="470" y="47"/>
      <point x="431" y="66" type="curve" smooth="yes"/>
      <point x="381" y="91" type="line" smooth="yes"/>
      <point x="365" y="99"/>
      <point x="359" y="120"/>
      <point x="356" y="145" type="curve" smooth="yes"/>
    </contour>
    <contour>
      <point x="259" y="436" type="curve" smooth="yes"/>
      <point x="282" y="436"/>
      <point x="301" y="457"/>
      <point x="301" y="482" type="curve" smooth="yes"/>
      <point x="301" y="506"/>
      <point x="283" y="522"/>
      <point x="262" y="522" type="curve" smooth="yes"/>
      <point x="238" y="522"/>
      <point x="223" y="506"/>
      <point x="223" y="482" type="curve" smooth="yes"/>
      <point x="223" y="459"/>
      <point x="237" y="436"/>
    </contour>
    <contour>
      <point x="334" y="329" type="curve"/>
      <point x="342" y="263" type="line"/>
      <point x="262" y="259"/>
      <point x="247" y="262"/>
      <point x="244" y="280" type="curve" smooth="yes"/>
      <point x="240" y="301"/>
      <point x="253" y="315"/>
    </contour>
    <contour>
      <point x="348" y="210" type="curve"/>
      <point x="356" y="149" type="line"/>
      <point x="264" y="137"/>
      <point x="244" y="142"/>
      <point x="238" y="160" type="curve" smooth="yes"/>
      <point x="231" y="188"/>
      <point x="251" y="204"/>
    </contour>
    <contour>
      <point x="128" y="-6" type="line"/>
      <point x="128" y="-6"/>
      <point x="156" y="-8"/>
      <point x="170" y="-8" type="curve" smooth="yes"/>
      <point x="184" y="-8"/>
      <point x="205" y="-8"/>
      <point x="205" y="-8" type="curve"/>
    </contour>
    <contour>
      <point x="261" y="-9" type="line"/>
      <point x="261" y="-9"/>
      <point x="287" y="-11"/>
      <point x="304" y="-11" type="curve" smooth="yes"/>
      <point x="318" y="-11"/>
      <point x="342" y="-11"/>
      <point x="342" y="-11" type="curve"/>
    </contour>
    <contour>
      <point x="183" y="366" type="curve"/>
      <point x="194" y="437" type="line"/>
      <point x="194" y="437"/>
      <point x="191" y="418"/>
      <point x="188" y="397" type="curve" smooth="yes"/>
      <point x="185" y="380"/>
      <point x="183" y="366"/>
    </contour>
    <contour>
      <point x="201" y="476" type="curve"/>
      <point x="214" y="557" type="line"/>
      <point x="214" y="557"/>
      <point x="211" y="543"/>
      <point x="207" y="515" type="curve" smooth="yes"/>
      <point x="202" y="488"/>
      <point x="201" y="476"/>
    </contour>
    <contour>
      <point x="214" y="299" type="line"/>
      <point x="194" y="294" type="line" smooth="yes"/>
      <point x="153" y="284"/>
      <point x="163" y="219"/>
      <point x="206" y="229" type="curve" smooth="yes"/>
      <point x="231" y="235" type="line"/>
    </contour>
    <contour>
      <point x="241" y="669" type="curve" smooth="yes"/>
      <point x="241" y="669"/>
      <point x="241" y="669"/>
      <point x="241" y="669" type="curve" smooth="yes"/>
      <point x="241" y="669"/>
      <point x="241" y="669"/>
      <point x="241" y="669" type="curve" smooth="yes"/>
      <point x="241" y="669"/>
      <point x="241" y="669"/>
      <point x="241" y="669" type="curve" smooth="yes"/>
      <point x="241" y="669"/>
      <point x="241" y="669"/>
    </contour>
    <contour>
      <point x="313" y="417" type="line"/>
      <point x="393" y="427" type="line" smooth="yes"/>
      <point x="437" y="433"/>
      <point x="428" y="513"/>
      <point x="371" y="504" type="curve" smooth="yes"/>
      <point x="304" y="493" type="line"/>
    </contour>
    <contour>
      <point x="194" y="134" type="curve" smooth="yes"/>
      <point x="214" y="134"/>
      <point x="230" y="150"/>
      <point x="230" y="170" type="curve" smooth="yes"/>
      <point x="230" y="190"/>
      <point x="214" y="206"/>
      <point x="194" y="206" type="curve" smooth="yes"/>
      <point x="174" y="206"/>
      <point x="158" y="190"/>
      <point x="158" y="170" type="curve" smooth="yes"/>
      <point x="158" y="150"/>
      <point x="174" y="134"/>
    </contour>
  </outline>
</glyph>
<glyph name="three" format="2">
  <advance width="489"/>
  <unicode hex="0033"/>
  <outline>
    <contour>
      <point x="204" y="-12" type="curve" smooth="yes"/>
      <point x="362" y="-12"/>
      <point x="457" y="77"/>
      <point x="457" y="221" type="curve" smooth="yes"/>
      <point x="457" y="411"/>
      <point x="292" y="376"/>
      <point x="292" y="405" type="curve" smooth="yes"/>
      <point x="292" y="412"/>
      <point x="298" y="419"/>
      <point x="305" y="427" type="curve" smooth="yes"/>
      <point x="406" y="540" type="line" smooth="yes"/>
      <point x="457" y="597"/>
      <point x="453" y="669"/>
      <point x="365" y="679" type="curve" smooth="yes"/>
      <point x="127" y="705" type="line" smooth="yes"/>
      <point x="-29" y="722"/>
      <point x="-22" y="469"/>
      <point x="153" y="515" type="curve" smooth="yes"/>
      <point x="176" y="521"/>
      <point x="205" y="528"/>
      <point x="228" y="534" type="curve" smooth="yes"/>
      <point x="254" y="541"/>
      <point x="268" y="530"/>
      <point x="268" y="514" type="curve" smooth="yes"/>
      <point x="268" y="496"/>
      <point x="243" y="472"/>
      <point x="190" y="405" type="curve" smooth="yes"/>
      <point x="139" y="341"/>
      <point x="103" y="307"/>
      <point x="103" y="268" type="curve" smooth="yes"/>
      <point x="103" y="238"/>
      <point x="124" y="213"/>
      <point x="167" y="209" type="curve" smooth="yes"/>
      <point x="314" y="196"/>
      <point x="347" y="173"/>
      <point x="347" y="129" type="curve" smooth="yes"/>
      <point x="347" y="97"/>
      <point x="325" y="74"/>
      <point x="286" y="74" type="curve" smooth="yes"/>
      <point x="199" y="74"/>
      <point x="155" y="123"/>
      <point x="90" y="123" type="curve" smooth="yes"/>
      <point x="50" y="123"/>
      <point x="31" y="94"/>
      <point x="31" y="68" type="curve" smooth="yes"/>
      <point x="31" y="15"/>
      <point x="92" y="-12"/>
    </contour>
    <contour>
      <point x="343" y="246" type="curve" smooth="yes"/>
      <point x="317" y="246"/>
      <point x="295" y="264"/>
      <point x="295" y="287" type="curve" smooth="yes"/>
      <point x="295" y="310"/>
      <point x="309" y="328"/>
      <point x="336" y="328" type="curve" smooth="yes"/>
      <point x="363" y="328"/>
      <point x="381" y="308"/>
      <point x="381" y="285" type="curve" smooth="yes"/>
      <point x="381" y="260"/>
      <point x="366" y="246"/>
    </contour>
    <contour>
      <point x="217" y="254" type="curve" smooth="yes"/>
      <point x="192" y="254"/>
      <point x="176" y="270"/>
      <point x="176" y="292" type="curve" smooth="yes"/>
      <point x="176" y="312"/>
      <point x="194" y="331"/>
      <point x="214" y="331" type="curve" smooth="yes"/>
      <point x="235" y="331"/>
      <point x="253" y="310"/>
      <point x="253" y="289" type="curve" smooth="yes"/>
      <point x="253" y="267"/>
      <point x="235" y="254"/>
    </contour>
    <contour>
      <point x="145" y="703" type="curve"/>
      <point x="205" y="696" type="line"/>
      <point x="192" y="614"/>
      <point x="179" y="585"/>
      <point x="151" y="589" type="curve" smooth="yes"/>
      <point x="124" y="593"/>
      <point x="123" y="625"/>
    </contour>
    <contour>
      <point x="258" y="690" type="curve"/>
      <point x="317" y="684" type="line"/>
      <point x="318" y="605"/>
      <point x="305" y="578"/>
      <point x="280" y="580" type="curve" smooth="yes"/>
      <point x="253" y="582"/>
      <point x="249" y="608"/>
    </contour>
    <contour>
      <point x="78" y="37" type="curve" smooth="yes"/>
      <point x="98" y="37"/>
      <point x="115" y="52"/>
      <point x="115" y="73" type="curve" smooth="yes"/>
      <point x="115" y="95"/>
      <point x="96" y="113"/>
      <point x="74" y="113" type="curve" smooth="yes"/>
      <point x="55" y="113"/>
      <point x="39" y="100"/>
      <point x="39" y="80" type="curve" smooth="yes"/>
      <point x="39" y="53"/>
      <point x="57" y="37"/>
    </contour>
  </outline>
</glyph>
<glyph name="four" format="2">
  <advance width="587"/>
  <unicode hex="0034"/>
  <outline>
    <contour>
      <point x="334" y="378" type="curve" smooth="yes"/>
      <point x="319" y="159" type="line" smooth="yes"/>
      <point x="316" y="118"/>
      <point x="304" y="103"/>
      <point x="267" y="90" type="curve" smooth="yes"/>
      <point x="192" y="64" type="line" smooth="yes"/>
      <point x="147" y="48"/>
      <point x="151" y="-10"/>
      <point x="197" y="-10" type="curve" smooth="yes"/>
      <point x="481" y="-12" type="line" smooth="yes"/>
      <point x="537" y="-12"/>
      <point x="538" y="51"/>
      <point x="492" y="72" type="curve" smooth="yes"/>
      <point x="439" y="96" type="line" smooth="yes"/>
      <point x="419" y="105"/>
      <point x="408" y="119"/>
      <point x="408" y="155" type="curve" smooth="yes"/>
      <point x="409" y="376" type="line" smooth="yes"/>
      <point x="409" y="441"/>
      <point x="338" y="443"/>
    </contour>
    <contour>
      <point x="206" y="351" type="line" smooth="yes"/>
      <point x="243" y="325"/>
      <point x="284" y="378"/>
      <point x="247" y="406" type="curve" smooth="yes"/>
      <point x="77" y="535" type="line" smooth="yes"/>
      <point x="38" y="565"/>
      <point x="-11" y="504"/>
      <point x="31" y="474" type="curve" smooth="yes"/>
    </contour>
    <contour>
      <point x="366" y="652" type="curve" smooth="yes"/>
      <point x="366" y="680"/>
      <point x="340" y="695"/>
      <point x="317" y="695" type="curve" smooth="yes"/>
      <point x="297" y="695"/>
      <point x="282" y="684"/>
      <point x="263" y="657" type="curve" smooth="yes"/>
      <point x="48" y="342" type="line" smooth="yes"/>
      <point x="-18" y="245"/>
      <point x="8" y="155"/>
      <point x="126" y="161" type="curve" smooth="yes"/>
      <point x="501" y="181" type="line" smooth="yes"/>
      <point x="617" y="187"/>
      <point x="593" y="373"/>
      <point x="474" y="344" type="curve" smooth="yes"/>
      <point x="124" y="258" type="line" smooth="yes"/>
      <point x="102" y="253"/>
      <point x="93" y="266"/>
      <point x="108" y="287" type="curve" smooth="yes"/>
      <point x="271" y="512"/>
      <point x="366" y="601"/>
    </contour>
    <contour>
      <point x="299" y="497" type="line" smooth="yes"/>
      <point x="330" y="470"/>
      <point x="377" y="515"/>
      <point x="345" y="544" type="curve" smooth="yes"/>
      <point x="200" y="676" type="line" smooth="yes"/>
      <point x="163" y="710"/>
      <point x="113" y="654"/>
      <point x="145" y="627" type="curve" smooth="yes"/>
    </contour>
    <contour>
      <point x="431" y="-12" type="curve"/>
      <point x="371" y="-11" type="line"/>
      <point x="371" y="-11"/>
      <point x="385" y="-11"/>
      <point x="402" y="-11" type="curve" smooth="yes"/>
      <point x="417" y="-11"/>
      <point x="431" y="-12"/>
    </contour>
    <contour>
      <point x="317" y="-10" type="curve"/>
      <point x="254" y="-10" type="line"/>
      <point x="254" y="-10"/>
      <point x="264" y="-10"/>
      <point x="288" y="-10" type="curve" smooth="yes"/>
      <point x="303" y="-10"/>
      <point x="317" y="-10"/>
    </contour>
    <contour>
      <point x="483" y="218" type="curve" smooth="yes"/>
      <point x="457" y="218"/>
      <point x="445" y="236"/>
      <point x="445" y="261" type="curve" smooth="yes"/>
      <point x="445" y="285"/>
      <point x="462" y="302"/>
      <point x="484" y="302" type="curve" smooth="yes"/>
      <point x="508" y="302"/>
      <point x="528" y="283"/>
      <point x="528" y="261" type="curve" smooth="yes"/>
      <point x="528" y="236"/>
      <point x="507" y="218"/>
    </contour>
    <contour>
      <point x="204" y="565" type="line"/>
      <point x="204" y="565"/>
      <point x="202" y="562"/>
      <point x="183" y="535" type="curve" smooth="yes"/>
      <point x="160" y="503"/>
      <point x="157" y="499"/>
      <point x="157" y="499" type="curve"/>
    </contour>
    <contour>
      <point x="96" y="412" type="line"/>
      <point x="95" y="411"/>
      <point x="94" y="410"/>
      <point x="76" y="382" type="curve" smooth="yes"/>
      <point x="56" y="350"/>
      <point x="52" y="346"/>
      <point x="52" y="346" type="curve"/>
    </contour>
    <contour>
      <point x="371" y="357" type="curve" smooth="yes"/>
      <point x="384" y="357"/>
      <point x="394" y="367"/>
      <point x="394" y="380" type="curve" smooth="yes"/>
      <point x="394" y="393"/>
      <point x="384" y="403"/>
      <point x="371" y="403" type="curve" smooth="yes"/>
      <point x="358" y="403"/>
      <point x="348" y="393"/>
      <point x="348" y="380" type="curve" smooth="yes"/>
      <point x="348" y="367"/>
      <point x="358" y="357"/>
    </contour>
  </outline>
</glyph>
<glyph name="five" format="2">
  <advance width="506"/>
  <unicode hex="0035"/>
  <outline>
    <contour>
      <point x="48" y="359" type="line" smooth="yes"/>
      <point x="39" y="296"/>
      <point x="52" y="264"/>
      <point x="127" y="264" type="curve" smooth="yes"/>
      <point x="264" y="264"/>
      <point x="375" y="241"/>
      <point x="375" y="165" type="curve" smooth="yes"/>
      <point x="375" y="116"/>
      <point x="348" y="83"/>
      <point x="277" y="83" type="curve" smooth="yes"/>
      <point x="143" y="83"/>
      <point x="145" y="186"/>
      <point x="91" y="186" type="curve" smooth="yes"/>
      <point x="64" y="186"/>
      <point x="51" y="167"/>
      <point x="51" y="143" type="curve" smooth="yes"/>
      <point x="51" y="90"/>
      <point x="125" y="10"/>
      <point x="254" y="10" type="curve" smooth="yes"/>
      <point x="405" y="10"/>
      <point x="470" y="108"/>
      <point x="470" y="218" type="curve" smooth="yes"/>
      <point x="470" y="298"/>
      <point x="454" y="350"/>
      <point x="418" y="386" type="curve" smooth="yes"/>
      <point x="340" y="464"/>
      <point x="195" y="454"/>
      <point x="172" y="477" type="curve" smooth="yes"/>
      <point x="159" y="490"/>
      <point x="167" y="505"/>
      <point x="195" y="585" type="curve" smooth="yes"/>
      <point x="202" y="605"/>
      <point x="209" y="614"/>
      <point x="232" y="616" type="curve" smooth="yes"/>
      <point x="406" y="631" type="line" smooth="yes"/>
      <point x="459" y="636"/>
      <point x="451" y="712"/>
      <point x="400" y="709" type="curve" smooth="yes"/>
      <point x="164" y="696" type="line" smooth="yes"/>
      <point x="110" y="693"/>
      <point x="94" y="678"/>
      <point x="87" y="629" type="curve" smooth="yes"/>
    </contour>
    <contour>
      <point x="157" y="335" type="curve" smooth="yes"/>
      <point x="134" y="335"/>
      <point x="123" y="352"/>
      <point x="123" y="372" type="curve" smooth="yes"/>
      <point x="123" y="392"/>
      <point x="138" y="407"/>
      <point x="158" y="407" type="curve" smooth="yes"/>
      <point x="179" y="407"/>
      <point x="197" y="390"/>
      <point x="197" y="372" type="curve" smooth="yes"/>
      <point x="197" y="352"/>
      <point x="178" y="335"/>
    </contour>
    <contour>
      <point x="292" y="304" type="curve" smooth="yes"/>
      <point x="267" y="304"/>
      <point x="248" y="318"/>
      <point x="248" y="341" type="curve" smooth="yes"/>
      <point x="248" y="364"/>
      <point x="265" y="384"/>
      <point x="288" y="384" type="curve" smooth="yes"/>
      <point x="312" y="384"/>
      <point x="334" y="359"/>
      <point x="334" y="339" type="curve" smooth="yes"/>
      <point x="334" y="317"/>
      <point x="314" y="304"/>
    </contour>
    <contour>
      <point x="85" y="147" type="line" smooth="yes"/>
      <point x="85" y="147"/>
      <point x="85" y="147"/>
      <point x="85" y="147" type="curve" smooth="yes"/>
      <point x="85" y="147" type="line" smooth="yes"/>
      <point x="85" y="147"/>
      <point x="85" y="147"/>
      <point x="85" y="147" type="curve" smooth="yes"/>
    </contour>
    <contour>
      <point x="91" y="-44" type="line" smooth="yes"/>
      <point x="75" y="-100"/>
      <point x="159" y="-115"/>
      <point x="169" y="-57" type="curve" smooth="yes"/>
      <point x="187" y="46" type="line" smooth="yes"/>
      <point x="195" y="89"/>
      <point x="133" y="102"/>
      <point x="120" y="57" type="curve" smooth="yes"/>
    </contour>
    <contour>
      <point x="305" y="696" type="line" smooth="yes"/>
      <point x="304" y="651"/>
      <point x="375" y="652"/>
      <point x="374" y="697" type="curve" smooth="yes"/>
      <point x="373" y="776" type="line" smooth="yes"/>
      <point x="372" y="823"/>
      <point x="307" y="822"/>
      <point x="306" y="777" type="curve" smooth="yes"/>
    </contour>
    <contour>
      <point x="225" y="653" type="line" smooth="yes"/>
      <point x="225" y="612"/>
      <point x="293" y="614"/>
      <point x="293" y="655" type="curve" smooth="yes"/>
      <point x="293" y="662" type="line" smooth="yes"/>
      <point x="293" y="710"/>
      <point x="225" y="708"/>
      <point x="225" y="663" type="curve" smooth="yes"/>
    </contour>
    <contour>
      <point x="401" y="247" type="curve" smooth="yes"/>
      <point x="382" y="247"/>
      <point x="367" y="257"/>
      <point x="367" y="276" type="curve" smooth="yes"/>
      <point x="367" y="294"/>
      <point x="379" y="309"/>
      <point x="397" y="309" type="curve" smooth="yes"/>
      <point x="415" y="309"/>
      <point x="432" y="289"/>
      <point x="432" y="275" type="curve" smooth="yes"/>
      <point x="432" y="257"/>
      <point x="417" y="247"/>
    </contour>
    <contour>
      <point x="251" y="-53" type="line" smooth="yes"/>
      <point x="258" y="-106"/>
      <point x="334" y="-96"/>
      <point x="325" y="-45" type="curve" smooth="yes"/>
      <point x="311" y="35" type="line" smooth="yes"/>
      <point x="303" y="79"/>
      <point x="236" y="66"/>
      <point x="241" y="28" type="curve" smooth="yes"/>
    </contour>
    <contour>
      <point x="411" y="-7" type="line" smooth="yes"/>
      <point x="457" y="-52"/>
      <point x="509" y="14"/>
      <point x="464" y="49" type="curve" smooth="yes"/>
      <point x="406" y="95" type="line" smooth="yes"/>
      <point x="369" y="124"/>
      <point x="326" y="76"/>
      <point x="358" y="45" type="curve" smooth="yes"/>
    </contour>
  </outline>
</glyph>
<glyph name="seven" format="2">
  <advance width="472"/>
  <unicode hex="0037"/>
  <outline>
    <contour>
      <point x="246" y="59" type="curve" smooth="yes"/>
      <point x="420" y="447" type="line" smooth="yes"/>
      <point x="482" y="586"/>
      <point x="477" y="630"/>
      <point x="338" y="658" type="curve" smooth="yes"/>
      <point x="151" y="696" type="line" smooth="yes"/>
      <point x="-22" y="731"/>
      <point x="-24" y="463"/>
      <point x="119" y="477" type="curve" smooth="yes"/>
      <point x="318" y="497" type="line" smooth="yes"/>
      <point x="349" y="500"/>
      <point x="360" y="476"/>
      <point x="338" y="447" type="curve" smooth="yes"/>
      <point x="106" y="144" type="line" smooth="yes"/>
      <point x="11" y="20"/>
      <point x="187" y="-72"/>
    </contour>
    <contour>
      <point x="261" y="149" type="line"/>
      <point x="261" y="149" type="line"/>
      <point x="284" y="136"/>
      <point x="316" y="194"/>
      <point x="290" y="207" type="curve"/>
      <point x="290" y="207" type="line"/>
    </contour>
    <contour>
      <point x="298" y="239" type="line"/>
      <point x="384" y="191" type="line" smooth="yes"/>
      <point x="420" y="171"/>
      <point x="451" y="225"/>
      <point x="420" y="244" type="curve" smooth="yes"/>
      <point x="339" y="294" type="line"/>
    </contour>
    <contour>
      <point x="192" y="484" type="curve"/>
      <point x="133" y="478" type="line"/>
      <point x="107" y="576"/>
      <point x="109" y="611"/>
      <point x="141" y="614" type="curve" smooth="yes"/>
      <point x="171" y="617"/>
      <point x="179" y="588"/>
    </contour>
    <contour>
      <point x="315" y="497" type="curve"/>
      <point x="251" y="491" type="line"/>
      <point x="248" y="581"/>
      <point x="260" y="599"/>
      <point x="283" y="599" type="curve" smooth="yes"/>
      <point x="307" y="599"/>
      <point x="321" y="578"/>
    </contour>
    <contour>
      <point x="315" y="311" type="line"/>
      <point x="191" y="386" type="line" smooth="yes"/>
      <point x="151" y="410"/>
      <point x="108" y="347"/>
      <point x="155" y="320" type="curve" smooth="yes"/>
      <point x="257" y="262" type="line"/>
    </contour>
    <contour>
      <point x="237" y="224" type="curve" smooth="yes"/>
      <point x="254" y="224"/>
      <point x="265" y="211"/>
      <point x="265" y="191" type="curve" smooth="yes"/>
      <point x="265" y="173"/>
      <point x="254" y="158"/>
      <point x="237" y="158" type="curve" smooth="yes"/>
      <point x="216" y="158"/>
      <point x="199" y="170"/>
      <point x="199" y="188" type="curve" smooth="yes"/>
      <point x="199" y="208"/>
      <point x="216" y="224"/>
    </contour>
    <contour>
      <point x="174" y="140" type="curve" smooth="yes"/>
      <point x="199" y="140"/>
      <point x="221" y="120"/>
      <point x="221" y="93" type="curve" smooth="yes"/>
      <point x="221" y="67"/>
      <point x="195" y="47"/>
      <point x="170" y="47" type="curve" smooth="yes"/>
      <point x="143" y="47"/>
      <point x="129" y="67"/>
      <point x="129" y="93" type="curve" smooth="yes"/>
      <point x="129" y="120"/>
      <point x="147" y="140"/>
    </contour>
    <contour>
      <point x="293" y="233" type="line"/>
      <point x="297" y="232" type="line" smooth="yes"/>
      <point x="329" y="224"/>
      <point x="342" y="280"/>
      <point x="312" y="286" type="curve" smooth="yes"/>
      <point x="307" y="287" type="line"/>
    </contour>
    <contour>
      <point x="125" y="13" type="curve" smooth="yes"/>
      <point x="125" y="13"/>
      <point x="125" y="13"/>
      <point x="125" y="13" type="curve" smooth="yes"/>
      <point x="125" y="13"/>
      <point x="125" y="13"/>
      <point x="125" y="13" type="curve" smooth="yes"/>
      <point x="125" y="13"/>
      <point x="125" y="13"/>
      <point x="125" y="13" type="curve" smooth="yes"/>
      <point x="125" y="13"/>
      <point x="125" y="13"/>
    </contour>
    <contour>
      <point x="195" y="221" type="line"/>
      <point x="195" y="221" type="line"/>
      <point x="171" y="239"/>
      <point x="129" y="188"/>
      <point x="158" y="166" type="curve"/>
      <point x="158" y="166" type="line"/>
    </contour>
    <contour>
      <point x="239" y="289" type="line"/>
      <point x="233" y="290" type="line" smooth="yes"/>
      <point x="206" y="294"/>
      <point x="194" y="246"/>
      <point x="219" y="240" type="curve" smooth="yes"/>
      <point x="223" y="239" type="line"/>
    </contour>
    <contour>
      <point x="179" y="316" type="curve" smooth="yes"/>
      <point x="195" y="316"/>
      <point x="209" y="329"/>
      <point x="209" y="349" type="curve" smooth="yes"/>
      <point x="209" y="367"/>
      <point x="193" y="381"/>
      <point x="176" y="381" type="curve" smooth="yes"/>
      <point x="158" y="381"/>
      <point x="147" y="364"/>
      <point x="147" y="349" type="curve" smooth="yes"/>
      <point x="147" y="331"/>
      <point x="161" y="316"/>
    </contour>
  </outline>
</glyph>
<glyph name="eight" format="2">
  <advance width="544"/>
  <unicode hex="0038"/>
  <outline>
    <contour>
      <point x="297" y="258" type="curve" smooth="yes"/>
      <point x="369" y="258"/>
      <point x="405" y="223"/>
      <point x="405" y="160" type="curve" smooth="yes"/>
      <point x="405" y="100"/>
      <point x="362" y="54"/>
      <point x="270" y="54" type="curve" smooth="yes"/>
      <point x="176" y="54"/>
      <point x="121" y="80"/>
      <point x="121" y="152" type="curve" smooth="yes"/>
      <point x="121" y="216"/>
      <point x="189" y="258"/>
    </contour>
    <contour>
      <point x="261" y="639" type="curve" smooth="yes"/>
      <point x="317" y="639"/>
      <point x="355" y="623"/>
      <point x="355" y="574" type="curve" smooth="yes"/>
      <point x="355" y="490"/>
      <point x="277" y="418"/>
      <point x="186" y="418" type="curve" smooth="yes"/>
      <point x="136" y="418"/>
      <point x="105" y="445"/>
      <point x="105" y="509" type="curve" smooth="yes"/>
      <point x="105" y="598"/>
      <point x="163" y="639"/>
    </contour>
    <contour>
      <point x="364" y="666" type="line" smooth="yes"/>
      <point x="347" y="643"/>
      <point x="401" y="609"/>
      <point x="415" y="630" type="curve" smooth="yes"/>
      <point x="421" y="639" type="line" smooth="yes"/>
      <point x="439" y="667"/>
      <point x="390" y="701"/>
      <point x="370" y="674" type="curve" smooth="yes"/>
    </contour>
    <contour>
      <point x="116" y="626" type="line" smooth="yes"/>
      <point x="124" y="603"/>
      <point x="191" y="630"/>
      <point x="184" y="649" type="curve" smooth="yes"/>
      <point x="180" y="660" type="line" smooth="yes"/>
      <point x="166" y="699"/>
      <point x="100" y="675"/>
      <point x="113" y="635" type="curve" smooth="yes"/>
    </contour>
    <contour>
      <point x="435" y="509" type="curve" smooth="yes"/>
      <point x="414" y="509"/>
      <point x="393" y="526"/>
      <point x="393" y="547" type="curve" smooth="yes"/>
      <point x="393" y="567"/>
      <point x="414" y="584"/>
      <point x="435" y="584" type="curve" smooth="yes"/>
      <point x="455" y="584"/>
      <point x="468" y="567"/>
      <point x="468" y="547" type="curve" smooth="yes"/>
      <point x="468" y="526"/>
      <point x="455" y="509"/>
    </contour>
    <contour>
      <point x="403" y="391" type="curve" smooth="yes"/>
      <point x="380" y="391"/>
      <point x="365" y="407"/>
      <point x="365" y="430" type="curve" smooth="yes"/>
      <point x="365" y="453"/>
      <point x="387" y="475"/>
      <point x="410" y="475" type="curve" smooth="yes"/>
      <point x="433" y="475"/>
      <point x="449" y="460"/>
      <point x="449" y="435" type="curve" smooth="yes"/>
      <point x="449" y="410"/>
      <point x="426" y="391"/>
    </contour>
    <contour>
      <point x="304" y="350" type="curve" smooth="yes"/>
      <point x="284" y="350"/>
      <point x="266" y="368"/>
      <point x="266" y="388" type="curve" smooth="yes"/>
      <point x="266" y="407"/>
      <point x="284" y="421"/>
      <point x="304" y="421" type="curve" smooth="yes"/>
      <point x="323" y="421"/>
      <point x="337" y="407"/>
      <point x="337" y="388" type="curve" smooth="yes"/>
      <point x="337" y="368"/>
      <point x="323" y="350"/>
    </contour>
    <contour>
      <point x="223" y="588" type="line" smooth="yes"/>
      <point x="221" y="540"/>
      <point x="281" y="534"/>
      <point x="285" y="583" type="curve" smooth="yes"/>
      <point x="301" y="778" type="line" smooth="yes"/>
      <point x="305" y="829"/>
      <point x="234" y="833"/>
      <point x="232" y="785" type="curve" smooth="yes"/>
    </contour>
    <contour>
      <point x="369" y="303" type="line"/>
      <point x="452" y="325"/>
      <point x="523" y="389"/>
      <point x="523" y="503" type="curve" smooth="yes"/>
      <point x="523" y="636"/>
      <point x="426" y="708"/>
      <point x="269" y="708" type="curve" smooth="yes"/>
      <point x="114" y="708"/>
      <point x="21" y="622"/>
      <point x="21" y="506" type="curve" smooth="yes"/>
      <point x="21" y="374"/>
      <point x="112" y="304"/>
      <point x="259" y="300" type="curve"/>
      <point x="229" y="322" type="line"/>
      <point x="121" y="312"/>
      <point x="37" y="253"/>
      <point x="37" y="144" type="curve" smooth="yes"/>
      <point x="37" y="47"/>
      <point x="109" y="-15"/>
      <point x="264" y="-15" type="curve" smooth="yes"/>
      <point x="415" y="-15"/>
      <point x="487" y="58"/>
      <point x="487" y="171" type="curve" smooth="yes"/>
      <point x="487" y="247"/>
      <point x="448" y="301"/>
      <point x="376" y="318" type="curve"/>
    </contour>
    <contour>
      <point x="452" y="-39" type="line" smooth="yes"/>
      <point x="476" y="-68"/>
      <point x="526" y="-26"/>
      <point x="495" y="4" type="curve" smooth="yes"/>
      <point x="428" y="69" type="line" smooth="yes"/>
      <point x="405" y="91"/>
      <point x="372" y="57"/>
      <point x="388" y="38" type="curve" smooth="yes"/>
    </contour>
    <contour>
      <point x="304" y="-108" type="line" smooth="yes"/>
      <point x="314" y="-150"/>
      <point x="377" y="-137"/>
      <point x="367" y="-95" type="curve" smooth="yes"/>
      <point x="335" y="44" type="line"/>
      <point x="273" y="29" type="line"/>
    </contour>
    <contour>
      <point x="120" y="-86" type="line" smooth="yes"/>
      <point x="100" y="-130"/>
      <point x="170" y="-155"/>
      <point x="184" y="-114" type="curve" smooth="yes"/>
      <point x="230" y="16" type="line"/>
      <point x="178" y="40" type="line"/>
    </contour>
    <contour>
      <point x="225" y="48" type="line" smooth="yes"/>
      <point x="222" y="-5"/>
      <point x="285" y="-8"/>
      <point x="287" y="45" type="curve" smooth="yes"/>
      <point x="290" y="129" type="line" smooth="yes"/>
      <point x="291" y="168"/>
      <point x="231" y="169"/>
      <point x="229" y="130" type="curve" smooth="yes"/>
    </contour>
  </outline>
</glyph>
<glyph name="nine" format="2">
  <advance width="515"/>
  <unicode hex="0039"/>
  <outline>
    <contour>
      <point x="19" y="502" type="curve" smooth="yes"/>
      <point x="19" y="298"/>
      <point x="257" y="300"/>
      <point x="257" y="212" type="curve" smooth="yes"/>
      <point x="257" y="168"/>
      <point x="192" y="57"/>
      <point x="194" y="9" type="curve" smooth="yes"/>
      <point x="195" y="-36"/>
      <point x="252" y="-57"/>
      <point x="288" y="13" type="curve" smooth="yes"/>
      <point x="442" y="309"/>
      <point x="495" y="417"/>
      <point x="495" y="511" type="curve" smooth="yes"/>
      <point x="495" y="626"/>
      <point x="404" y="711"/>
      <point x="251" y="711" type="curve" smooth="yes"/>
      <point x="119" y="711"/>
      <point x="19" y="631"/>
    </contour>
    <contour>
      <point x="98" y="503" type="curve" smooth="yes"/>
      <point x="98" y="585"/>
      <point x="152" y="625"/>
      <point x="211" y="625" type="curve" smooth="yes"/>
      <point x="301" y="625"/>
      <point x="319" y="540"/>
      <point x="319" y="461" type="curve" smooth="yes"/>
      <point x="319" y="398"/>
      <point x="301" y="364"/>
      <point x="256" y="364" type="curve" smooth="yes"/>
      <point x="179" y="364"/>
      <point x="98" y="416"/>
    </contour>
    <contour>
      <point x="124" y="118" type="curve" smooth="yes"/>
      <point x="160" y="118"/>
      <point x="181" y="143"/>
      <point x="181" y="177" type="curve" smooth="yes"/>
      <point x="181" y="214"/>
      <point x="157" y="234"/>
      <point x="132" y="234" type="curve" smooth="yes"/>
      <point x="96" y="234"/>
      <point x="69" y="205"/>
      <point x="69" y="169" type="curve" smooth="yes"/>
      <point x="69" y="133"/>
      <point x="95" y="118"/>
    </contour>
    <contour>
      <point x="222" y="666" type="line" smooth="yes"/>
      <point x="222" y="707"/>
      <point x="156" y="708"/>
      <point x="156" y="670" type="curve" smooth="yes"/>
      <point x="156" y="662" type="line"/>
      <point x="222" y="663" type="line"/>
    </contour>
    <contour>
      <point x="396" y="467" type="curve" smooth="yes"/>
      <point x="417" y="467"/>
      <point x="434" y="449"/>
      <point x="434" y="422" type="curve" smooth="yes"/>
      <point x="434" y="401"/>
      <point x="417" y="389"/>
      <point x="396" y="389" type="curve" smooth="yes"/>
      <point x="373" y="389"/>
      <point x="356" y="406"/>
      <point x="356" y="426" type="curve" smooth="yes"/>
      <point x="356" y="452"/>
      <point x="373" y="467"/>
    </contour>
    <contour>
      <point x="243" y="42" type="curve" smooth="yes"/>
      <point x="243" y="42"/>
      <point x="243" y="42"/>
      <point x="243" y="42" type="curve" smooth="yes"/>
      <point x="243" y="42"/>
      <point x="243" y="42"/>
      <point x="243" y="42" type="curve" smooth="yes"/>
      <point x="243" y="42"/>
      <point x="243" y="42"/>
      <point x="243" y="42" type="curve" smooth="yes"/>
      <point x="243" y="42"/>
      <point x="243" y="42"/>
    </contour>
    <contour>
      <point x="392" y="601" type="curve" smooth="yes"/>
      <point x="418" y="601"/>
      <point x="438" y="584"/>
      <point x="438" y="561" type="curve" smooth="yes"/>
      <point x="438" y="536"/>
      <point x="422" y="517"/>
      <point x="398" y="517" type="curve" smooth="yes"/>
      <point x="374" y="517"/>
      <point x="354" y="532"/>
      <point x="354" y="557" type="curve" smooth="yes"/>
      <point x="354" y="580"/>
      <point x="369" y="601"/>
    </contour>
    <contour>
      <point x="350" y="352" type="curve" smooth="yes"/>
      <point x="373" y="352"/>
      <point x="391" y="332"/>
      <point x="391" y="302" type="curve" smooth="yes"/>
      <point x="391" y="278"/>
      <point x="373" y="265"/>
      <point x="350" y="265" type="curve" smooth="yes"/>
      <point x="325" y="265"/>
      <point x="307" y="284"/>
      <point x="307" y="306" type="curve" smooth="yes"/>
      <point x="307" y="335"/>
      <point x="325" y="352"/>
    </contour>
    <contour>
      <point x="294" y="56" type="line"/>
      <point x="356" y="27" type="line" smooth="yes"/>
      <point x="400" y="6"/>
      <point x="435" y="77"/>
      <point x="388" y="96" type="curve" smooth="yes"/>
      <point x="327" y="120" type="line"/>
    </contour>
    <contour>
      <point x="300" y="130" type="line"/>
      <point x="278" y="140" type="line" smooth="yes"/>
      <point x="237" y="159"/>
      <point x="208" y="99"/>
      <point x="248" y="79" type="curve" smooth="yes"/>
      <point x="268" y="69" type="line"/>
    </contour>
  </outline>
</glyph>
<glyph name="semicolon" format="2">
  <advance width="266"/>
  <unicode hex="003B"/>
  <outline>
    <contour>
      <point x="139" y="357" type="curve" smooth="yes"/>
      <point x="203" y="357"/>
      <point x="237" y="385"/>
      <point x="237" y="441" type="curve" smooth="yes"/>
      <point x="237" y="494"/>
      <point x="204" y="531"/>
      <point x="141" y="531" type="curve" smooth="yes"/>
      <point x="84" y="531"/>
      <point x="47" y="496"/>
      <point x="47" y="444" type="curve" smooth="yes"/>
      <point x="47" y="389"/>
      <point x="80" y="357"/>
    </contour>
    <contour>
      <point x="145" y="444" type="curve" smooth="yes"/>
      <point x="145" y="444"/>
      <point x="145" y="444"/>
      <point x="145" y="444" type="curve" smooth="yes"/>
      <point x="145" y="444"/>
      <point x="145" y="444"/>
      <point x="145" y="444" type="curve" smooth="yes"/>
      <point x="145" y="444"/>
      <point x="145" y="444"/>
      <point x="145" y="444" type="curve" smooth="yes"/>
      <point x="145" y="444"/>
      <point x="145" y="444"/>
    </contour>
    <contour>
      <point x="0" y="-179" type="curve" smooth="yes"/>
      <point x="-38" y="-223"/>
      <point x="17" y="-267"/>
      <point x="55" y="-229" type="curve" smooth="yes"/>
      <point x="123" y="-161"/>
      <point x="221" y="-24"/>
      <point x="221" y="61" type="curve" smooth="yes"/>
      <point x="221" y="131"/>
      <point x="182" y="175"/>
      <point x="127" y="175" type="curve" smooth="yes"/>
      <point x="76" y="175"/>
      <point x="43" y="144"/>
      <point x="43" y="101" type="curve" smooth="yes"/>
      <point x="43" y="32"/>
      <point x="114" y="40"/>
      <point x="114" y="-1" type="curve" smooth="yes"/>
      <point x="114" y="-33"/>
      <point x="37" y="-137"/>
    </contour>
    <contour>
      <point x="186" y="-12" type="curve"/>
      <point x="158" y="-73" type="line"/>
      <point x="238" y="-110"/>
      <point x="254" y="-111"/>
      <point x="265" y="-79" type="curve" smooth="yes"/>
      <point x="274" y="-54"/>
      <point x="265" y="-43"/>
    </contour>
    <contour>
      <point x="82" y="-73" type="line" smooth="yes"/>
      <point x="24" y="-33"/>
      <point x="9" y="-33"/>
      <point x="-5" y="-52" type="curve" smooth="yes"/>
      <point x="-17" y="-70"/>
      <point x="-11" y="-85"/>
      <point x="45" y="-126" type="curve" smooth="yes"/>
      <point x="99" y="-165" type="line" smooth="yes"/>
      <point x="185" y="-227"/>
      <point x="199" y="-229"/>
      <point x="216" y="-205" type="curve" smooth="yes"/>
      <point x="232" y="-185"/>
      <point x="217" y="-164"/>
      <point x="144" y="-115" type="curve" smooth="yes"/>
    </contour>
    <contour>
      <point x="126" y="98" type="curve" smooth="yes"/>
      <point x="126" y="98"/>
      <point x="126" y="98"/>
      <point x="126" y="98" type="curve" smooth="yes"/>
      <point x="126" y="98"/>
      <point x="126" y="98"/>
      <point x="126" y="98" type="curve" smooth="yes"/>
      <point x="126" y="98"/>
      <point x="126" y="98"/>
      <point x="126" y="98" type="curve" smooth="yes"/>
      <point x="126" y="98"/>
      <point x="126" y="98"/>
    </contour>
  </outline>
</glyph>
<glyph name="equal" format="2">
  <advance width="438"/>
  <unicode hex="003D"/>
  <outline>
    <contour>
      <point x="106" y="422" type="curve" smooth="yes"/>
      <point x="45" y="417"/>
      <point x="32" y="386"/>
      <point x="35" y="361" type="curve" smooth="yes"/>
      <point x="38" y="334"/>
      <point x="60" y="317"/>
      <point x="107" y="323" type="curve" smooth="yes"/>
      <point x="173" y="331"/>
      <point x="268" y="345"/>
      <point x="330" y="355" type="curve" smooth="yes"/>
      <point x="369" y="361"/>
      <point x="381" y="382"/>
      <point x="379" y="404" type="curve" smooth="yes"/>
      <point x="377" y="424"/>
      <point x="359" y="439"/>
      <point x="327" y="438" type="curve" smooth="yes"/>
      <point x="261" y="435"/>
      <point x="182" y="429"/>
    </contour>
    <contour>
      <point x="131" y="270" type="curve" smooth="yes"/>
      <point x="92" y="269"/>
      <point x="76" y="253"/>
      <point x="76" y="231" type="curve" smooth="yes"/>
      <point x="76" y="205"/>
      <point x="96" y="191"/>
      <point x="135" y="190" type="curve" smooth="yes"/>
      <point x="201" y="188"/>
      <point x="266" y="187"/>
      <point x="331" y="188" type="curve" smooth="yes"/>
      <point x="376" y="189"/>
      <point x="391" y="208"/>
      <point x="391" y="230" type="curve" smooth="yes"/>
      <point x="391" y="255"/>
      <point x="374" y="274"/>
      <point x="329" y="274" type="curve" smooth="yes"/>
      <point x="272" y="274"/>
      <point x="193" y="272"/>
    </contour>
  </outline>
</glyph>
<glyph name="question" format="2">
  <advance width="470"/>
  <unicode hex="003F"/>
  <outline>
    <contour>
      <point x="288" y="216"/>
      <point x="430" y="316"/>
      <point x="430" y="457" type="curve" smooth="yes"/>
      <point x="430" y="607"/>
      <point x="315" y="665"/>
      <point x="203" y="665" type="curve" smooth="yes"/>
      <point x="104" y="665"/>
      <point x="45" y="632"/>
      <point x="45" y="596" type="curve" smooth="yes"/>
      <point x="45" y="574"/>
      <point x="59" y="564"/>
      <point x="80" y="564" type="curve" smooth="yes"/>
      <point x="118" y="564"/>
      <point x="142" y="565"/>
      <point x="173" y="556" type="curve" smooth="yes"/>
      <point x="213" y="544"/>
      <point x="245" y="509"/>
      <point x="245" y="436" type="curve" smooth="yes"/>
      <point x="245" y="357"/>
      <point x="212" y="309"/>
      <point x="150" y="293" type="curve" smooth="yes"/>
      <point x="108" y="282"/>
      <point x="94" y="270"/>
      <point x="94" y="251" type="curve" smooth="yes"/>
      <point x="94" y="226"/>
      <point x="115" y="216"/>
      <point x="143" y="216" type="curve" smooth="yes"/>
    </contour>
    <contour>
      <point x="193" y="-15" type="curve" smooth="yes"/>
      <point x="246" y="-15"/>
      <point x="274" y="15"/>
      <point x="274" y="67" type="curve" smooth="yes"/>
      <point x="274" y="110"/>
      <point x="246" y="147"/>
      <point x="198" y="147" type="curve" smooth="yes"/>
      <point x="149" y="147"/>
      <point x="114" y="117"/>
      <point x="114" y="64" type="curve" smooth="yes"/>
      <point x="114" y="17"/>
      <point x="148" y="-15"/>
    </contour>
    <contour>
      <point x="337" y="390" type="curve" smooth="yes"/>
      <point x="316" y="390"/>
      <point x="298" y="408"/>
      <point x="298" y="429" type="curve" smooth="yes"/>
      <point x="298" y="450"/>
      <point x="316" y="467"/>
      <point x="337" y="467" type="curve" smooth="yes"/>
      <point x="358" y="467"/>
      <point x="375" y="450"/>
      <point x="375" y="429" type="curve" smooth="yes"/>
      <point x="375" y="408"/>
      <point x="358" y="390"/>
    </contour>
    <contour>
      <point x="307" y="498" type="curve" smooth="yes"/>
      <point x="284" y="498"/>
      <point x="265" y="517"/>
      <point x="265" y="540" type="curve" smooth="yes"/>
      <point x="265" y="563"/>
      <point x="284" y="580"/>
      <point x="307" y="580" type="curve" smooth="yes"/>
      <point x="330" y="580"/>
      <point x="347" y="563"/>
      <point x="347" y="540" type="curve" smooth="yes"/>
      <point x="347" y="517"/>
      <point x="330" y="498"/>
    </contour>
    <contour>
      <point x="108" y="617" type="curve"/>
      <point x="174" y="626" type="line"/>
      <point x="169" y="641"/>
      <point x="162" y="650"/>
      <point x="137" y="647" type="curve" smooth="yes"/>
      <point x="109" y="643"/>
      <point x="108" y="628"/>
    </contour>
    <contour>
      <point x="110" y="600" type="line"/>
      <point x="113" y="587"/>
      <point x="119" y="578"/>
      <point x="144" y="583" type="curve" smooth="yes"/>
      <point x="169" y="587"/>
      <point x="176" y="595"/>
      <point x="176" y="613" type="curve"/>
    </contour>
    <contour>
      <point x="299" y="623" type="line"/>
      <point x="300" y="633"/>
      <point x="298" y="640"/>
      <point x="272" y="649" type="curve" smooth="yes"/>
      <point x="248" y="657"/>
      <point x="238" y="654"/>
      <point x="232" y="646" type="curve"/>
    </contour>
    <contour>
      <point x="385" y="559" type="line"/>
      <point x="389" y="565"/>
      <point x="392" y="574"/>
      <point x="380" y="590" type="curve" smooth="yes"/>
      <point x="365" y="610"/>
      <point x="357" y="609"/>
      <point x="349" y="605" type="curve"/>
    </contour>
    <contour>
      <point x="415" y="492" type="curve"/>
      <point x="413" y="424" type="line"/>
      <point x="419" y="425"/>
      <point x="424" y="434"/>
      <point x="423" y="461" type="curve" smooth="yes"/>
      <point x="422" y="486"/>
      <point x="420" y="493"/>
    </contour>
    <contour>
      <point x="376" y="357" type="curve"/>
      <point x="338" y="312" type="line"/>
      <point x="344" y="308"/>
      <point x="350" y="308"/>
      <point x="366" y="327" type="curve" smooth="yes"/>
      <point x="384" y="349"/>
      <point x="383" y="351"/>
    </contour>
    <contour>
      <point x="260" y="274" type="curve" smooth="yes"/>
      <point x="256" y="286"/>
      <point x="252" y="292"/>
      <point x="247" y="300" type="curve" smooth="yes"/>
      <point x="240" y="310"/>
      <point x="225" y="314"/>
      <point x="206" y="305" type="curve" smooth="yes"/>
      <point x="188" y="297"/>
      <point x="185" y="286"/>
      <point x="191" y="271" type="curve" smooth="yes"/>
      <point x="194" y="264"/>
      <point x="198" y="254"/>
      <point x="203" y="246" type="curve" smooth="yes"/>
      <point x="210" y="235"/>
      <point x="222" y="228"/>
      <point x="241" y="236" type="curve" smooth="yes"/>
      <point x="261" y="245"/>
      <point x="264" y="260"/>
    </contour>
  </outline>
</glyph>
<glyph name="E" format="2">
  <advance width="486"/>
  <unicode hex="0045"/>
  <unicode hex="0065"/>
  <anchor x="400" y="-8" name="ogonek"/>
  <anchor x="281" y="693" name="top"/>
  <outline>
    <contour>
      <point x="66" y="76" type="curve" smooth="yes"/>
      <point x="66" y="37"/>
      <point x="84" y="14"/>
      <point x="130" y="14" type="curve" smooth="yes"/>
      <point x="233" y="14"/>
      <point x="337" y="12"/>
      <point x="440" y="16" type="curve" smooth="yes"/>
      <point x="493" y="18"/>
      <point x="490" y="117"/>
      <point x="432" y="112" type="curve" smooth="yes"/>
      <point x="361" y="106"/>
      <point x="295" y="96"/>
      <point x="228" y="89" type="curve" smooth="yes"/>
      <point x="208" y="87"/>
      <point x="198" y="92"/>
      <point x="190" y="119" type="curve" smooth="yes"/>
      <point x="175" y="168"/>
      <point x="163" y="215"/>
      <point x="154" y="264" type="curve" smooth="yes"/>
      <point x="149" y="291"/>
      <point x="160" y="300"/>
      <point x="175" y="301" type="curve"/>
      <point x="180" y="301"/>
      <point x="185" y="301"/>
      <point x="190" y="301" type="curve"/>
      <point x="198" y="301"/>
      <point x="206" y="302"/>
      <point x="214" y="302" type="curve" smooth="yes"/>
      <point x="223" y="302"/>
      <point x="231" y="303"/>
      <point x="240" y="303" type="curve"/>
      <point x="248" y="304"/>
      <point x="255" y="304"/>
      <point x="263" y="305" type="curve"/>
      <point x="273" y="305"/>
      <point x="282" y="306"/>
      <point x="292" y="306" type="curve" smooth="yes"/>
      <point x="300" y="306"/>
      <point x="308" y="306"/>
      <point x="316" y="307" type="curve"/>
      <point x="371" y="309" type="line" smooth="yes"/>
      <point x="422" y="311"/>
      <point x="422" y="404"/>
      <point x="370" y="397" type="curve" smooth="yes"/>
      <point x="348" y="394"/>
      <point x="314" y="389"/>
      <point x="285" y="386" type="curve" smooth="yes"/>
      <point x="264" y="384"/>
      <point x="258" y="392"/>
      <point x="254" y="418" type="curve" smooth="yes"/>
      <point x="246" y="471"/>
      <point x="240" y="511"/>
      <point x="236" y="566" type="curve" smooth="yes"/>
      <point x="233" y="603"/>
      <point x="240" y="610"/>
      <point x="264" y="610" type="curve" smooth="yes"/>
      <point x="272" y="610"/>
      <point x="277" y="610"/>
      <point x="283" y="610" type="curve"/>
      <point x="292" y="610"/>
      <point x="303" y="610"/>
      <point x="311" y="610" type="curve" smooth="yes"/>
      <point x="319" y="610"/>
      <point x="328" y="609"/>
      <point x="334" y="609" type="curve" smooth="yes"/>
      <point x="342" y="609"/>
      <point x="356" y="608"/>
      <point x="366" y="607" type="curve" smooth="yes"/>
      <point x="375" y="606"/>
      <point x="388" y="605"/>
      <point x="397" y="605" type="curve" smooth="yes"/>
      <point x="406" y="605"/>
      <point x="411" y="605"/>
      <point x="423" y="605" type="curve" smooth="yes"/>
      <point x="454" y="605"/>
      <point x="469" y="619"/>
      <point x="469" y="651" type="curve" smooth="yes"/>
      <point x="469" y="684"/>
      <point x="448" y="699"/>
      <point x="395" y="699" type="curve" smooth="yes"/>
      <point x="324" y="699"/>
      <point x="243" y="693"/>
      <point x="163" y="686" type="curve" smooth="yes"/>
      <point x="110" y="681"/>
      <point x="77" y="665"/>
      <point x="75" y="609" type="curve" smooth="yes"/>
      <point x="74" y="588"/>
      <point x="73" y="573"/>
      <point x="73" y="562" type="curve"/>
      <point x="145" y="563"/>
      <point x="158" y="552"/>
      <point x="158" y="528" type="curve" smooth="yes"/>
      <point x="158" y="505"/>
      <point x="146" y="495"/>
      <point x="73" y="492" type="curve"/>
      <point x="72" y="475"/>
      <point x="72" y="448"/>
      <point x="72" y="432" type="curve"/>
      <point x="168" y="437"/>
      <point x="180" y="428"/>
      <point x="181" y="404" type="curve" smooth="yes"/>
      <point x="182" y="378"/>
      <point x="165" y="368"/>
      <point x="70" y="368" type="curve"/>
      <point x="68" y="267"/>
      <point x="66" y="179"/>
    </contour>
    <contour>
      <point x="200" y="47" type="line"/>
      <point x="192" y="-60"/>
      <point x="197" y="-86"/>
      <point x="236" y="-86" type="curve" smooth="yes"/>
      <point x="274" y="-86"/>
      <point x="277" y="-61"/>
      <point x="268" y="46" type="curve"/>
    </contour>
    <contour>
      <point x="358" y="-69" type="curve" smooth="yes"/>
      <point x="363" y="-102"/>
      <point x="378" y="-113"/>
      <point x="393" y="-113" type="curve" smooth="yes"/>
      <point x="414" y="-113"/>
      <point x="427" y="-96"/>
      <point x="426" y="-64" type="curve" smooth="yes"/>
      <point x="425" y="-26"/>
      <point x="424" y="11"/>
      <point x="421" y="49" type="curve" smooth="yes"/>
      <point x="418" y="92"/>
      <point x="400" y="102"/>
      <point x="381" y="101" type="curve" smooth="yes"/>
      <point x="359" y="101"/>
      <point x="337" y="85"/>
      <point x="342" y="41" type="curve" smooth="yes"/>
      <point x="346" y="4"/>
      <point x="352" y="-32"/>
    </contour>
    <contour>
      <point x="376" y="157" type="curve" smooth="yes"/>
      <point x="407" y="157"/>
      <point x="430" y="179"/>
      <point x="430" y="211" type="curve" smooth="yes"/>
      <point x="430" y="242"/>
      <point x="407" y="265"/>
      <point x="376" y="265" type="curve" smooth="yes"/>
      <point x="345" y="265"/>
      <point x="322" y="242"/>
      <point x="322" y="211" type="curve" smooth="yes"/>
      <point x="322" y="179"/>
      <point x="345" y="157"/>
    </contour>
    <contour>
      <point x="312" y="663" type="curve" smooth="yes"/>
      <point x="312" y="657"/>
      <point x="313" y="651"/>
      <point x="314" y="645" type="curve" smooth="yes"/>
      <point x="316" y="628"/>
      <point x="334" y="624"/>
      <point x="350" y="624" type="curve" smooth="yes"/>
      <point x="367" y="624"/>
      <point x="381" y="636"/>
      <point x="381" y="651" type="curve" smooth="yes"/>
      <point x="381" y="657"/>
      <point x="380" y="664"/>
      <point x="379" y="671" type="curve" smooth="yes"/>
      <point x="378" y="686"/>
      <point x="360" y="688"/>
      <point x="343" y="688" type="curve" smooth="yes"/>
      <point x="327" y="688"/>
      <point x="312" y="676"/>
    </contour>
    <contour>
      <point x="176" y="630" type="line"/>
      <point x="147" y="630"/>
      <point x="129" y="627"/>
      <point x="129" y="599" type="curve" smooth="yes"/>
      <point x="129" y="576"/>
      <point x="143" y="569"/>
      <point x="167" y="566" type="curve"/>
    </contour>
  </outline>
</glyph>
<glyph name="J" format="2">
  <advance width="503"/>
  <unicode hex="004A"/>
  <unicode hex="006A"/>
  <anchor x="225" y="0" name="bottom"/>
  <anchor x="237" y="718" name="top"/>
  <outline>
    <contour>
      <point x="218" y="5" type="curve" smooth="yes"/>
      <point x="386" y="5"/>
      <point x="453" y="83"/>
      <point x="440" y="260" type="curve" smooth="yes"/>
      <point x="431" y="381"/>
      <point x="417" y="500"/>
      <point x="399" y="614" type="curve" smooth="yes"/>
      <point x="389" y="673"/>
      <point x="376" y="686"/>
      <point x="326" y="686" type="curve" smooth="yes"/>
      <point x="261" y="686"/>
      <point x="190" y="683"/>
      <point x="119" y="676" type="curve" smooth="yes"/>
      <point x="69" y="672"/>
      <point x="46" y="660"/>
      <point x="46" y="637" type="curve" smooth="yes"/>
      <point x="46" y="613"/>
      <point x="67" y="601"/>
      <point x="115" y="599" type="curve" smooth="yes"/>
      <point x="195" y="594"/>
      <point x="243" y="595"/>
      <point x="285" y="592" type="curve" smooth="yes"/>
      <point x="314" y="590"/>
      <point x="323" y="575"/>
      <point x="317" y="545" type="curve" smooth="yes"/>
      <point x="297" y="439"/>
      <point x="271" y="333"/>
      <point x="232" y="200" type="curve" smooth="yes"/>
      <point x="209" y="122"/>
      <point x="187" y="101"/>
      <point x="145" y="101" type="curve" smooth="yes"/>
      <point x="108" y="101"/>
      <point x="90" y="117"/>
      <point x="68" y="117" type="curve" smooth="yes"/>
      <point x="51" y="117"/>
      <point x="38" y="106"/>
      <point x="38" y="87" type="curve" smooth="yes"/>
      <point x="38" y="44"/>
      <point x="99" y="5"/>
    </contour>
    <contour>
      <point x="311" y="470" type="curve" smooth="yes"/>
      <point x="329" y="473"/>
      <point x="343" y="489"/>
      <point x="343" y="508" type="curve" smooth="yes"/>
      <point x="343" y="527"/>
      <point x="337" y="540"/>
      <point x="328" y="540" type="curve" smooth="yes"/>
      <point x="270" y="539"/>
      <point x="199" y="534"/>
      <point x="143" y="528" type="curve" smooth="yes"/>
      <point x="96" y="523"/>
      <point x="79" y="512"/>
      <point x="79" y="487" type="curve" smooth="yes"/>
      <point x="79" y="461"/>
      <point x="102" y="449"/>
      <point x="145" y="452" type="curve" smooth="yes"/>
      <point x="201" y="456"/>
      <point x="263" y="463"/>
    </contour>
    <contour>
      <point x="389" y="403" type="curve"/>
      <point x="390" y="338" type="line"/>
      <point x="411" y="338"/>
      <point x="419" y="340"/>
      <point x="419" y="367" type="curve" smooth="yes"/>
      <point x="419" y="399"/>
      <point x="412" y="404"/>
    </contour>
    <contour>
      <point x="141" y="266" type="curve" smooth="yes"/>
      <point x="173" y="266"/>
      <point x="199" y="292"/>
      <point x="199" y="324" type="curve" smooth="yes"/>
      <point x="199" y="356"/>
      <point x="173" y="382"/>
      <point x="141" y="382" type="curve" smooth="yes"/>
      <point x="109" y="382"/>
      <point x="83" y="356"/>
      <point x="83" y="324" type="curve" smooth="yes"/>
      <point x="83" y="292"/>
      <point x="109" y="266"/>
    </contour>
    <contour>
      <point x="146" y="327" type="curve" smooth="yes"/>
      <point x="146" y="327"/>
      <point x="146" y="327"/>
      <point x="146" y="327" type="curve" smooth="yes"/>
      <point x="146" y="327"/>
      <point x="146" y="327"/>
      <point x="146" y="327" type="curve" smooth="yes"/>
      <point x="146" y="327"/>
      <point x="146" y="327"/>
      <point x="146" y="327" type="curve" smooth="yes"/>
      <point x="146" y="327"/>
      <point x="146" y="327"/>
    </contour>
    <contour>
      <point x="219" y="63" type="curve" smooth="yes"/>
      <point x="219" y="63"/>
      <point x="219" y="63"/>
      <point x="219" y="63" type="curve" smooth="yes"/>
      <point x="219" y="63"/>
      <point x="219" y="63"/>
      <point x="219" y="63" type="curve" smooth="yes"/>
      <point x="219" y="63"/>
      <point x="219" y="63"/>
      <point x="219" y="63" type="curve" smooth="yes"/>
      <point x="219" y="63"/>
      <point x="219" y="63"/>
    </contour>
    <contour>
      <point x="322" y="104" type="curve" smooth="yes"/>
      <point x="298" y="104"/>
      <point x="281" y="123"/>
      <point x="281" y="146" type="curve" smooth="yes"/>
      <point x="281" y="170"/>
      <point x="298" y="187"/>
      <point x="322" y="187" type="curve" smooth="yes"/>
      <point x="347" y="187"/>
      <point x="364" y="170"/>
      <point x="364" y="146" type="curve" smooth="yes"/>
      <point x="364" y="123"/>
      <point x="347" y="104"/>
    </contour>
    <contour>
      <point x="344" y="243" type="curve" smooth="yes"/>
      <point x="322" y="243"/>
      <point x="306" y="261"/>
      <point x="306" y="283" type="curve" smooth="yes"/>
      <point x="306" y="305"/>
      <point x="322" y="321"/>
      <point x="344" y="321" type="curve" smooth="yes"/>
      <point x="368" y="321"/>
      <point x="384" y="305"/>
      <point x="384" y="283" type="curve" smooth="yes"/>
      <point x="384" y="261"/>
      <point x="368" y="243"/>
    </contour>
  </outline>
</glyph>
<glyph name="M" format="2">
  <advance width="768"/>
  <unicode hex="004D"/>
  <unicode hex="006D"/>
  <anchor x="373" y="0" name="bottom"/>
  <anchor x="385" y="700" name="top"/>
  <outline>
    <contour>
      <point x="43" y="172" type="curve" smooth="yes"/>
      <point x="40" y="103"/>
      <point x="54" y="54"/>
      <point x="122" y="54" type="curve" smooth="yes"/>
      <point x="191" y="54"/>
      <point x="213" y="93"/>
      <point x="214" y="156" type="curve" smooth="yes"/>
      <point x="215" y="318"/>
      <point x="207" y="404"/>
      <point x="211" y="521" type="curve" smooth="yes"/>
      <point x="212" y="545"/>
      <point x="234" y="553"/>
      <point x="245" y="526" type="curve" smooth="yes"/>
      <point x="279" y="439"/>
      <point x="308" y="340"/>
      <point x="342" y="259" type="curve" smooth="yes"/>
      <point x="356" y="225"/>
      <point x="377" y="210"/>
      <point x="401" y="210" type="curve" smooth="yes"/>
      <point x="422" y="210"/>
      <point x="442" y="218"/>
      <point x="464" y="242" type="curve" smooth="yes"/>
      <point x="494" y="274"/>
      <point x="515" y="306"/>
      <point x="545" y="337" type="curve" smooth="yes"/>
      <point x="566" y="358"/>
      <point x="586" y="355"/>
      <point x="592" y="327" type="curve" smooth="yes"/>
      <point x="610" y="248"/>
      <point x="625" y="146"/>
      <point x="646" y="46" type="curve" smooth="yes"/>
      <point x="654" y="10"/>
      <point x="667" y="-7"/>
      <point x="693" y="-7" type="curve" smooth="yes"/>
      <point x="720" y="-7"/>
      <point x="731" y="16"/>
      <point x="728" y="49" type="curve" smooth="yes"/>
      <point x="711" y="242"/>
      <point x="689" y="444"/>
      <point x="662" y="629" type="curve" smooth="yes"/>
      <point x="655" y="676"/>
      <point x="638" y="709"/>
      <point x="595" y="709" type="curve" smooth="yes"/>
      <point x="558" y="709"/>
      <point x="538" y="687"/>
      <point x="524" y="645" type="curve" smooth="yes"/>
      <point x="488" y="539"/>
      <point x="469" y="442"/>
      <point x="439" y="349" type="curve" smooth="yes"/>
      <point x="435" y="336"/>
      <point x="428" y="330"/>
      <point x="420" y="330" type="curve" smooth="yes"/>
      <point x="412" y="330"/>
      <point x="405" y="335"/>
      <point x="401" y="346" type="curve" smooth="yes"/>
      <point x="388" y="383"/>
      <point x="377" y="419"/>
      <point x="367" y="456" type="curve" smooth="yes"/>
      <point x="364" y="466"/>
      <point x="361" y="476"/>
      <point x="358" y="485" type="curve" smooth="yes"/>
      <point x="356" y="494"/>
      <point x="353" y="503"/>
      <point x="351" y="512" type="curve" smooth="yes"/>
      <point x="349" y="522"/>
      <point x="346" y="531"/>
      <point x="343" y="541" type="curve" smooth="yes"/>
      <point x="341" y="549"/>
      <point x="338" y="557"/>
      <point x="335" y="565" type="curve" smooth="yes"/>
      <point x="333" y="574"/>
      <point x="330" y="582"/>
      <point x="327" y="590" type="curve" smooth="yes"/>
      <point x="324" y="600"/>
      <point x="320" y="609"/>
      <point x="317" y="618" type="curve" smooth="yes"/>
      <point x="299" y="668"/>
      <point x="274" y="702"/>
      <point x="208" y="702" type="curve" smooth="yes"/>
      <point x="137" y="702"/>
      <point x="95" y="663"/>
      <point x="83" y="575" type="curve" smooth="yes"/>
      <point x="77" y="532"/>
      <point x="72" y="491"/>
      <point x="67" y="450" type="curve"/>
      <point x="144" y="442"/>
      <point x="166" y="432"/>
      <point x="160" y="403" type="curve" smooth="yes"/>
      <point x="154" y="375"/>
      <point x="119" y="375"/>
      <point x="61" y="389" type="curve"/>
      <point x="58" y="365"/>
      <point x="55" y="342"/>
      <point x="54" y="318" type="curve"/>
      <point x="119" y="317"/>
      <point x="157" y="313"/>
      <point x="157" y="285" type="curve" smooth="yes"/>
      <point x="157" y="256"/>
      <point x="123" y="249"/>
      <point x="49" y="252" type="curve"/>
      <point x="46" y="225"/>
      <point x="44" y="198"/>
    </contour>
    <contour>
      <point x="581" y="429" type="curve" smooth="yes"/>
      <point x="555" y="429"/>
      <point x="535" y="449"/>
      <point x="535" y="475" type="curve" smooth="yes"/>
      <point x="535" y="500"/>
      <point x="555" y="520"/>
      <point x="581" y="520" type="curve" smooth="yes"/>
      <point x="606" y="520"/>
      <point x="626" y="500"/>
      <point x="626" y="475" type="curve" smooth="yes"/>
      <point x="626" y="449"/>
      <point x="606" y="429"/>
    </contour>
    <contour>
      <point x="415" y="243" type="curve" smooth="yes"/>
      <point x="431" y="243"/>
      <point x="445" y="256"/>
      <point x="445" y="274" type="curve" smooth="yes"/>
      <point x="445" y="291"/>
      <point x="431" y="305"/>
      <point x="415" y="305" type="curve" smooth="yes"/>
      <point x="396" y="305"/>
      <point x="383" y="291"/>
      <point x="383" y="274" type="curve" smooth="yes"/>
      <point x="383" y="256"/>
      <point x="396" y="243"/>
    </contour>
    <contour>
      <point x="659" y="95" type="curve" smooth="yes"/>
      <point x="683" y="99"/>
      <point x="698" y="108"/>
      <point x="698" y="134" type="curve" smooth="yes"/>
      <point x="698" y="161"/>
      <point x="676" y="167"/>
      <point x="648" y="167" type="curve" smooth="yes"/>
      <point x="616" y="167"/>
      <point x="596" y="165"/>
      <point x="572" y="163" type="curve" smooth="yes"/>
      <point x="514" y="156"/>
      <point x="492" y="149"/>
      <point x="492" y="122" type="curve" smooth="yes"/>
      <point x="492" y="92"/>
      <point x="520" y="85"/>
      <point x="570" y="87" type="curve" smooth="yes"/>
      <point x="602" y="88"/>
      <point x="633" y="91"/>
    </contour>
  </outline>
</glyph>
<glyph name="O" format="2">
  <advance width="644"/>
  <unicode hex="004F"/>
  <unicode hex="006F"/>
  <anchor x="307" y="0" name="bottom"/>
  <anchor x="339" y="713" name="top"/>
  <outline>
    <contour>
      <point x="315" y="-11" type="curve" smooth="yes"/>
      <point x="485" y="-11"/>
      <point x="603" y="116"/>
      <point x="604" y="360" type="curve" smooth="yes"/>
      <point x="605" y="578"/>
      <point x="513" y="708"/>
      <point x="344" y="708" type="curve" smooth="yes"/>
      <point x="163" y="708"/>
      <point x="40" y="553"/>
      <point x="40" y="315" type="curve" smooth="yes"/>
      <point x="40" y="122"/>
      <point x="134" y="-11"/>
    </contour>
    <contour>
      <point x="371" y="128" type="curve" smooth="yes"/>
      <point x="269" y="128"/>
      <point x="207" y="242"/>
      <point x="207" y="413" type="curve" smooth="yes"/>
      <point x="207" y="566"/>
      <point x="273" y="639"/>
      <point x="357" y="639" type="curve" smooth="yes"/>
      <point x="465" y="639"/>
      <point x="525" y="529"/>
      <point x="525" y="361" type="curve" smooth="yes"/>
      <point x="525" y="204"/>
      <point x="464" y="128"/>
    </contour>
    <contour>
      <point x="241" y="127" type="curve" smooth="yes"/>
      <point x="265" y="127"/>
      <point x="281" y="111"/>
      <point x="281" y="87" type="curve" smooth="yes"/>
      <point x="281" y="65"/>
      <point x="265" y="49"/>
      <point x="241" y="49" type="curve" smooth="yes"/>
      <point x="219" y="49"/>
      <point x="203" y="65"/>
      <point x="203" y="87" type="curve" smooth="yes"/>
      <point x="203" y="111"/>
      <point x="219" y="127"/>
    </contour>
    <contour>
      <point x="160" y="235" type="curve" smooth="yes"/>
      <point x="184" y="235"/>
      <point x="203" y="216"/>
      <point x="203" y="190" type="curve" smooth="yes"/>
      <point x="203" y="166"/>
      <point x="184" y="147"/>
      <point x="160" y="147" type="curve" smooth="yes"/>
      <point x="134" y="147"/>
      <point x="115" y="166"/>
      <point x="115" y="190" type="curve" smooth="yes"/>
      <point x="115" y="216"/>
      <point x="134" y="235"/>
    </contour>
    <contour>
      <point x="131" y="366" type="curve" smooth="yes"/>
      <point x="154" y="366"/>
      <point x="170" y="350"/>
      <point x="170" y="327" type="curve" smooth="yes"/>
      <point x="170" y="305"/>
      <point x="154" y="289"/>
      <point x="131" y="289" type="curve" smooth="yes"/>
      <point x="109" y="289"/>
      <point x="93" y="305"/>
      <point x="93" y="327" type="curve" smooth="yes"/>
      <point x="93" y="350"/>
      <point x="109" y="366"/>
    </contour>
    <contour>
      <point x="458" y="631" type="curve" smooth="yes"/>
      <point x="469" y="652"/>
      <point x="458" y="668"/>
      <point x="443" y="675" type="curve" smooth="yes"/>
      <point x="430" y="681"/>
      <point x="413" y="680"/>
      <point x="406" y="668" type="curve" smooth="yes"/>
      <point x="390" y="643"/>
      <point x="374" y="617"/>
      <point x="360" y="591" type="curve" smooth="yes"/>
      <point x="334" y="542"/>
      <point x="332" y="521"/>
      <point x="353" y="510" type="curve" smooth="yes"/>
      <point x="372" y="501"/>
      <point x="388" y="512"/>
      <point x="415" y="556" type="curve" smooth="yes"/>
      <point x="430" y="581"/>
      <point x="445" y="606"/>
    </contour>
    <contour>
      <point x="325" y="670" type="curve" smooth="yes"/>
      <point x="321" y="681"/>
      <point x="307" y="683"/>
      <point x="294" y="679" type="curve" smooth="yes"/>
      <point x="282" y="675"/>
      <point x="273" y="667"/>
      <point x="277" y="658" type="curve" smooth="yes"/>
      <point x="279" y="653"/>
      <point x="282" y="648"/>
      <point x="284" y="643" type="curve" smooth="yes"/>
      <point x="288" y="634"/>
      <point x="302" y="633"/>
      <point x="314" y="637" type="curve" smooth="yes"/>
      <point x="324" y="641"/>
      <point x="332" y="649"/>
      <point x="328" y="661" type="curve" smooth="yes"/>
      <point x="327" y="664"/>
      <point x="326" y="667"/>
    </contour>
    <contour>
      <point x="459" y="301" type="curve" smooth="yes"/>
      <point x="390" y="323"/>
      <point x="372" y="315"/>
      <point x="367" y="294" type="curve" smooth="yes"/>
      <point x="362" y="275"/>
      <point x="371" y="260"/>
      <point x="441" y="238" type="curve" smooth="yes"/>
      <point x="473" y="228"/>
      <point x="505" y="219"/>
      <point x="537" y="211" type="curve" smooth="yes"/>
      <point x="557" y="206"/>
      <point x="571" y="220"/>
      <point x="574" y="235" type="curve" smooth="yes"/>
      <point x="577" y="249"/>
      <point x="572" y="263"/>
      <point x="556" y="269" type="curve" smooth="yes"/>
      <point x="524" y="281"/>
      <point x="491" y="291"/>
    </contour>
    <contour>
      <point x="75" y="447" type="curve" smooth="yes"/>
      <point x="72" y="446"/>
      <point x="72" y="440"/>
      <point x="74" y="434" type="curve" smooth="yes"/>
      <point x="77" y="428"/>
      <point x="81" y="423"/>
      <point x="86" y="425" type="curve" smooth="yes"/>
      <point x="89" y="426"/>
      <point x="92" y="428"/>
      <point x="95" y="429" type="curve" smooth="yes"/>
      <point x="101" y="432"/>
      <point x="102" y="437"/>
      <point x="98" y="444" type="curve" smooth="yes"/>
      <point x="95" y="449"/>
      <point x="92" y="452"/>
      <point x="85" y="450" type="curve" smooth="yes"/>
      <point x="82" y="449"/>
      <point x="78" y="448"/>
    </contour>
    <contour>
      <point x="152" y="582" type="curve" smooth="yes"/>
      <point x="142" y="582"/>
      <point x="133" y="573"/>
      <point x="133" y="562" type="curve" smooth="yes"/>
      <point x="133" y="552"/>
      <point x="142" y="544"/>
      <point x="152" y="544" type="curve" smooth="yes"/>
      <point x="162" y="544"/>
      <point x="171" y="552"/>
      <point x="171" y="562" type="curve" smooth="yes"/>
      <point x="171" y="573"/>
      <point x="162" y="582"/>
    </contour>
    <contour>
      <point x="528" y="485" type="curve" smooth="yes"/>
      <point x="509" y="480"/>
      <point x="495" y="475"/>
      <point x="472" y="467" type="curve" smooth="yes"/>
      <point x="417" y="449"/>
      <point x="402" y="434"/>
      <point x="410" y="410" type="curve" smooth="yes"/>
      <point x="417" y="389"/>
      <point x="436" y="388"/>
      <point x="493" y="402" type="curve" smooth="yes"/>
      <point x="523" y="410"/>
      <point x="536" y="415"/>
      <point x="550" y="421" type="curve" smooth="yes"/>
      <point x="572" y="429"/>
      <point x="579" y="441"/>
      <point x="572" y="464" type="curve" smooth="yes"/>
      <point x="565" y="487"/>
      <point x="548" y="491"/>
    </contour>
    <contour>
      <point x="496" y="137" type="curve" smooth="yes"/>
      <point x="487" y="149"/>
      <point x="469" y="155"/>
      <point x="453" y="142" type="curve" smooth="yes"/>
      <point x="437" y="129"/>
      <point x="434" y="113"/>
      <point x="443" y="99" type="curve" smooth="yes"/>
      <point x="447" y="93"/>
      <point x="449" y="90"/>
      <point x="454" y="83" type="curve" smooth="yes"/>
      <point x="463" y="72"/>
      <point x="478" y="63"/>
      <point x="499" y="82" type="curve" smooth="yes"/>
      <point x="518" y="99"/>
      <point x="514" y="114"/>
      <point x="507" y="123" type="curve" smooth="yes"/>
      <point x="503" y="128"/>
      <point x="500" y="132"/>
    </contour>
  </outline>
</glyph>
<glyph name="P" format="2">
  <advance width="555"/>
  <unicode hex="0050"/>
  <unicode hex="0070"/>
  <anchor x="148" y="0" name="bottom"/>
  <anchor x="282" y="701" name="top"/>
  <outline>
    <contour>
      <point x="279" y="471" type="curve" smooth="yes"/>
      <point x="294" y="609"/>
      <point x="296" y="616"/>
      <point x="306" y="626" type="curve" smooth="yes"/>
      <point x="314" y="634"/>
      <point x="322" y="636"/>
      <point x="336" y="636" type="curve" smooth="yes"/>
      <point x="415" y="636"/>
      <point x="459" y="575"/>
      <point x="460" y="478" type="curve" smooth="yes"/>
      <point x="461" y="371"/>
      <point x="415" y="306"/>
      <point x="316" y="306" type="curve" smooth="yes"/>
      <point x="296" y="306"/>
      <point x="287" y="307"/>
      <point x="279" y="315" type="curve" smooth="yes"/>
      <point x="269" y="325"/>
      <point x="265" y="339"/>
    </contour>
    <contour>
      <point x="81" y="56" type="curve" smooth="yes"/>
      <point x="81" y="5"/>
      <point x="94" y="-18"/>
      <point x="129" y="-18" type="curve" smooth="yes"/>
      <point x="167" y="-18"/>
      <point x="177" y="9"/>
      <point x="177" y="46" type="curve" smooth="yes"/>
      <point x="177" y="81"/>
      <point x="171" y="126"/>
      <point x="171" y="172" type="curve" smooth="yes"/>
      <point x="171" y="222"/>
      <point x="197" y="233"/>
      <point x="276" y="236" type="curve" smooth="yes"/>
      <point x="377" y="241"/>
      <point x="428" y="248"/>
      <point x="483" y="303" type="curve" smooth="yes"/>
      <point x="518" y="338"/>
      <point x="541" y="392"/>
      <point x="541" y="479" type="curve" smooth="yes"/>
      <point x="541" y="554"/>
      <point x="522" y="612"/>
      <point x="482" y="652" type="curve" smooth="yes"/>
      <point x="441" y="693"/>
      <point x="379" y="712"/>
      <point x="233" y="710" type="curve" smooth="yes"/>
      <point x="151" y="709"/>
      <point x="134" y="702"/>
      <point x="119" y="687" type="curve" smooth="yes"/>
      <point x="107" y="675"/>
      <point x="97" y="648"/>
      <point x="94" y="600" type="curve" smooth="yes"/>
      <point x="85" y="455"/>
      <point x="79" y="237"/>
    </contour>
    <contour>
      <point x="457" y="329" type="curve" smooth="yes"/>
      <point x="455" y="330"/>
      <point x="452" y="332"/>
      <point x="450" y="333" type="curve" smooth="yes"/>
      <point x="442" y="338"/>
      <point x="430" y="331"/>
      <point x="423" y="322" type="curve" smooth="yes"/>
      <point x="417" y="314"/>
      <point x="416" y="305"/>
      <point x="423" y="298" type="curve" smooth="yes"/>
      <point x="426" y="295"/>
      <point x="428" y="294"/>
      <point x="431" y="293" type="curve" smooth="yes"/>
      <point x="441" y="289"/>
      <point x="453" y="294"/>
      <point x="459" y="303" type="curve" smooth="yes"/>
      <point x="465" y="312"/>
      <point x="467" y="322"/>
    </contour>
    <contour>
      <point x="483" y="601" type="curve" smooth="yes"/>
      <point x="480" y="600"/>
      <point x="476" y="598"/>
      <point x="473" y="597" type="curve" smooth="yes"/>
      <point x="466" y="594"/>
      <point x="459" y="584"/>
      <point x="467" y="564" type="curve" smooth="yes"/>
      <point x="476" y="540"/>
      <point x="488" y="541"/>
      <point x="498" y="545" type="curve" smooth="yes"/>
      <point x="501" y="546"/>
      <point x="503" y="547"/>
      <point x="506" y="548" type="curve" smooth="yes"/>
      <point x="513" y="550"/>
      <point x="520" y="558"/>
      <point x="510" y="581" type="curve" smooth="yes"/>
      <point x="502" y="602"/>
      <point x="492" y="604"/>
    </contour>
    <contour>
      <point x="237" y="177" type="curve" smooth="yes"/>
      <point x="181" y="184"/>
      <point x="126" y="188"/>
      <point x="70" y="191" type="curve" smooth="yes"/>
      <point x="25" y="193"/>
      <point x="-3" y="189"/>
      <point x="-3" y="162" type="curve" smooth="yes"/>
      <point x="-3" y="137"/>
      <point x="17" y="129"/>
      <point x="61" y="123" type="curve" smooth="yes"/>
      <point x="117" y="115"/>
      <point x="172" y="109"/>
      <point x="228" y="105" type="curve" smooth="yes"/>
      <point x="275" y="102"/>
      <point x="309" y="106"/>
      <point x="309" y="137" type="curve" smooth="yes"/>
      <point x="309" y="162"/>
      <point x="286" y="171"/>
    </contour>
    <contour>
      <point x="194" y="540" type="curve" smooth="yes"/>
      <point x="171" y="540"/>
      <point x="154" y="557"/>
      <point x="154" y="580" type="curve" smooth="yes"/>
      <point x="154" y="600"/>
      <point x="171" y="618"/>
      <point x="194" y="618" type="curve" smooth="yes"/>
      <point x="214" y="618"/>
      <point x="232" y="600"/>
      <point x="232" y="580" type="curve" smooth="yes"/>
      <point x="232" y="557"/>
      <point x="214" y="540"/>
    </contour>
    <contour>
      <point x="187" y="396" type="curve" smooth="yes"/>
      <point x="161" y="396"/>
      <point x="141" y="416"/>
      <point x="141" y="440" type="curve" smooth="yes"/>
      <point x="141" y="465"/>
      <point x="161" y="483"/>
      <point x="187" y="483" type="curve" smooth="yes"/>
      <point x="211" y="483"/>
      <point x="230" y="465"/>
      <point x="230" y="440" type="curve" smooth="yes"/>
      <point x="230" y="416"/>
      <point x="211" y="396"/>
    </contour>
  </outline>
</glyph>
<glyph name="Q" format="2">
  <advance width="627"/>
  <unicode hex="0051"/>
  <unicode hex="0071"/>
  <anchor x="258" y="0" name="bottom"/>
  <anchor x="333" y="700" name="top"/>
  <outline>
    <contour>
      <point x="162" y="21"/>
      <point x="203" y="29"/>
      <point x="208" y="-41" type="curve" smooth="yes"/>
      <point x="210" y="-72"/>
      <point x="204" y="-103"/>
      <point x="204" y="-139" type="curve" smooth="yes"/>
      <point x="205" y="-175"/>
      <point x="216" y="-199"/>
      <point x="248" y="-199" type="curve" smooth="yes"/>
      <point x="283" y="-199"/>
      <point x="295" y="-175"/>
      <point x="294" y="-134" type="curve" smooth="yes"/>
      <point x="293" y="-99"/>
      <point x="285" y="-62"/>
      <point x="284" y="-28" type="curve" smooth="yes"/>
      <point x="283" y="-3"/>
      <point x="295" y="4"/>
      <point x="318" y="8" type="curve" smooth="yes"/>
      <point x="481" y="34"/>
      <point x="587" y="172"/>
      <point x="587" y="386" type="curve" smooth="yes"/>
      <point x="587" y="579"/>
      <point x="506" y="718"/>
      <point x="324" y="718" type="curve" smooth="yes"/>
      <point x="167" y="718"/>
      <point x="40" y="584"/>
      <point x="40" y="322" type="curve" smooth="yes"/>
      <point x="40" y="198"/>
      <point x="63" y="120"/>
      <point x="111" y="72" type="curve" smooth="yes"/>
    </contour>
    <contour>
      <point x="290" y="81" type="curve" smooth="yes"/>
      <point x="176" y="81"/>
      <point x="121" y="186"/>
      <point x="122" y="318" type="curve" smooth="yes"/>
      <point x="123" y="434"/>
      <point x="168" y="520"/>
      <point x="270" y="520" type="curve" smooth="yes"/>
      <point x="378" y="520"/>
      <point x="444" y="419"/>
      <point x="444" y="276" type="curve" smooth="yes"/>
      <point x="444" y="143"/>
      <point x="377" y="81"/>
    </contour>
    <contour>
      <point x="269" y="576" type="curve" smooth="yes"/>
      <point x="248" y="576"/>
      <point x="231" y="591"/>
      <point x="231" y="614" type="curve" smooth="yes"/>
      <point x="231" y="633"/>
      <point x="248" y="650"/>
      <point x="269" y="650" type="curve" smooth="yes"/>
      <point x="288" y="650"/>
      <point x="305" y="635"/>
      <point x="305" y="614" type="curve" smooth="yes"/>
      <point x="305" y="593"/>
      <point x="288" y="576"/>
    </contour>
    <contour>
      <point x="409" y="540" type="curve" smooth="yes"/>
      <point x="383" y="540"/>
      <point x="362" y="561"/>
      <point x="362" y="587" type="curve" smooth="yes"/>
      <point x="362" y="613"/>
      <point x="383" y="634"/>
      <point x="409" y="634" type="curve" smooth="yes"/>
      <point x="435" y="634"/>
      <point x="456" y="613"/>
      <point x="456" y="587" type="curve" smooth="yes"/>
      <point x="456" y="561"/>
      <point x="435" y="540"/>
    </contour>
    <contour>
      <point x="495" y="422" type="curve" smooth="yes"/>
      <point x="473" y="422"/>
      <point x="456" y="439"/>
      <point x="456" y="461" type="curve" smooth="yes"/>
      <point x="456" y="482"/>
      <point x="473" y="499"/>
      <point x="495" y="499" type="curve" smooth="yes"/>
      <point x="516" y="499"/>
      <point x="533" y="482"/>
      <point x="533" y="461" type="curve" smooth="yes"/>
      <point x="533" y="439"/>
      <point x="516" y="422"/>
    </contour>
    <contour>
      <point x="458" y="-113" type="curve" smooth="yes"/>
      <point x="423" y="6"/>
      <point x="386" y="124"/>
      <point x="349" y="241" type="curve" smooth="yes"/>
      <point x="337" y="279"/>
      <point x="322" y="303"/>
      <point x="294" y="295" type="curve" smooth="yes"/>
      <point x="270" y="288"/>
      <point x="268" y="265"/>
      <point x="284" y="207" type="curve" smooth="yes"/>
      <point x="315" y="91"/>
      <point x="349" y="-21"/>
      <point x="384" y="-131" type="curve" smooth="yes"/>
      <point x="405" y="-197"/>
      <point x="422" y="-226"/>
      <point x="451" y="-219" type="curve" smooth="yes"/>
      <point x="477" y="-213"/>
      <point x="478" y="-182"/>
    </contour>
    <contour>
      <point x="483" y="138" type="curve" smooth="yes"/>
      <point x="480" y="142"/>
      <point x="476" y="146"/>
      <point x="473" y="150" type="curve" smooth="yes"/>
      <point x="460" y="165"/>
      <point x="441" y="160"/>
      <point x="428" y="148" type="curve" smooth="yes"/>
      <point x="416" y="136"/>
      <point x="406" y="115"/>
      <point x="416" y="104" type="curve" smooth="yes"/>
      <point x="420" y="99"/>
      <point x="425" y="95"/>
      <point x="429" y="90" type="curve" smooth="yes"/>
      <point x="441" y="78"/>
      <point x="452" y="76"/>
      <point x="471" y="92" type="curve" smooth="yes"/>
      <point x="495" y="113"/>
      <point x="493" y="126"/>
    </contour>
  </outline>
</glyph>
<glyph name="T" format="2">
  <advance width="470"/>
  <unicode hex="0054"/>
  <unicode hex="0074"/>
  <anchor x="236" y="50" name="bottom"/>
  <anchor x="226" y="40" name="cedilla"/>
  <anchor x="252" y="700" name="top"/>
  <outline>
    <contour>
      <point x="223" y="25"/>
      <point x="231" y="22"/>
      <point x="240" y="22" type="curve" smooth="yes"/>
      <point x="247" y="22"/>
      <point x="255" y="25"/>
      <point x="260" y="30" type="curve" smooth="yes"/>
      <point x="281" y="51"/>
      <point x="284" y="111"/>
      <point x="318" y="564" type="curve" smooth="yes"/>
      <point x="325" y="657"/>
      <point x="475" y="601"/>
      <point x="475" y="664" type="curve" smooth="yes"/>
      <point x="475" y="702"/>
      <point x="448" y="705"/>
      <point x="269" y="705" type="curve"/>
      <point x="269" y="616"/>
      <point x="256" y="596"/>
      <point x="235" y="596" type="curve" smooth="yes"/>
      <point x="211" y="596"/>
      <point x="205" y="617"/>
      <point x="208" y="706" type="curve"/>
      <point x="190" y="706"/>
      <point x="170" y="706"/>
      <point x="152" y="706" type="curve"/>
      <point x="151" y="633"/>
      <point x="140" y="617"/>
      <point x="118" y="617" type="curve" smooth="yes"/>
      <point x="98" y="617"/>
      <point x="86" y="636"/>
      <point x="92" y="707" type="curve"/>
      <point x="29" y="707"/>
      <point x="6" y="682"/>
      <point x="6" y="627" type="curve" smooth="yes"/>
      <point x="6" y="496"/>
      <point x="178" y="554"/>
      <point x="184" y="432" type="curve" smooth="yes"/>
      <point x="187" y="375"/>
      <point x="188" y="350"/>
      <point x="190" y="298" type="curve"/>
      <point x="190" y="298"/>
      <point x="190" y="288"/>
      <point x="191" y="271" type="curve" smooth="yes"/>
      <point x="191" y="256"/>
      <point x="192" y="239"/>
      <point x="192" y="239" type="curve"/>
      <point x="192" y="229"/>
      <point x="194" y="208"/>
      <point x="194" y="198" type="curve"/>
      <point x="194" y="198"/>
      <point x="194" y="186"/>
      <point x="195" y="167" type="curve" smooth="yes"/>
      <point x="197" y="153"/>
      <point x="197" y="138"/>
      <point x="197" y="138" type="curve"/>
      <point x="200" y="57"/>
      <point x="205" y="43"/>
      <point x="216" y="32" type="curve" smooth="yes"/>
    </contour>
    <contour>
      <point x="412" y="459" type="curve" smooth="yes"/>
      <point x="445" y="459"/>
      <point x="471" y="485"/>
      <point x="471" y="518" type="curve" smooth="yes"/>
      <point x="471" y="551"/>
      <point x="445" y="577"/>
      <point x="412" y="577" type="curve" smooth="yes"/>
      <point x="379" y="577"/>
      <point x="353" y="551"/>
      <point x="353" y="518" type="curve" smooth="yes"/>
      <point x="353" y="485"/>
      <point x="379" y="459"/>
    </contour>
    <contour>
      <point x="258" y="135" type="line"/>
      <point x="375" y="139"/>
      <point x="403" y="142"/>
      <point x="402" y="178" type="curve" smooth="yes"/>
      <point x="401" y="211"/>
      <point x="373" y="212"/>
      <point x="255" y="207" type="curve"/>
    </contour>
    <contour>
      <point x="222" y="398" type="line"/>
      <point x="84" y="418"/>
      <point x="50" y="415"/>
      <point x="46" y="383" type="curve" smooth="yes"/>
      <point x="42" y="348"/>
      <point x="72" y="341"/>
      <point x="213" y="322" type="curve"/>
    </contour>
  </outline>
</glyph>
<glyph name="U" format="2">
  <advance width="645"/>
  <unicode hex="0055"/>
  <unicode hex="0075"/>
  <anchor x="357" y="11" name="ogonek"/>
  <anchor x="349" y="664" name="top"/>
  <outline>
    <contour>
      <point x="325" y="23" type="curve" smooth="yes"/>
      <point x="430" y="23"/>
      <point x="531" y="80"/>
      <point x="547" y="246" type="curve" smooth="yes"/>
      <point x="558" y="361"/>
      <point x="566" y="499"/>
      <point x="569" y="616" type="curve" smooth="yes"/>
      <point x="570" y="649"/>
      <point x="562" y="667"/>
      <point x="540" y="667" type="curve" smooth="yes"/>
      <point x="520" y="667"/>
      <point x="509" y="653"/>
      <point x="499" y="624" type="curve" smooth="yes"/>
      <point x="472" y="547"/>
      <point x="453" y="469"/>
      <point x="421" y="381" type="curve" smooth="yes"/>
      <point x="384" y="281"/>
      <point x="318" y="230"/>
      <point x="241" y="230" type="curve" smooth="yes"/>
      <point x="193" y="230"/>
      <point x="176" y="257"/>
      <point x="175" y="313" type="curve" smooth="yes"/>
      <point x="173" y="422"/>
      <point x="180" y="534"/>
      <point x="179" y="633" type="curve" smooth="yes"/>
      <point x="179" y="687"/>
      <point x="164" y="709"/>
      <point x="126" y="709" type="curve" smooth="yes"/>
      <point x="87" y="709"/>
      <point x="67" y="687"/>
      <point x="70" y="635" type="curve" smooth="yes"/>
      <point x="76" y="513"/>
      <point x="85" y="389"/>
      <point x="101" y="239" type="curve" smooth="yes"/>
      <point x="116" y="94"/>
      <point x="195" y="23"/>
    </contour>
    <contour>
      <point x="282" y="279" type="curve" smooth="yes"/>
      <point x="311" y="279"/>
      <point x="334" y="302"/>
      <point x="334" y="331" type="curve" smooth="yes"/>
      <point x="334" y="360"/>
      <point x="311" y="383"/>
      <point x="282" y="383" type="curve" smooth="yes"/>
      <point x="253" y="383"/>
      <point x="230" y="360"/>
      <point x="230" y="331" type="curve" smooth="yes"/>
      <point x="230" y="302"/>
      <point x="253" y="279"/>
    </contour>
    <contour>
      <point x="105" y="569" type="curve" smooth="yes"/>
      <point x="89" y="568"/>
      <point x="72" y="565"/>
      <point x="56" y="562" type="curve" smooth="yes"/>
      <point x="17" y="555"/>
      <point x="-1" y="547"/>
      <point x="-1" y="527" type="curve" smooth="yes"/>
      <point x="-1" y="493"/>
      <point x="27" y="496"/>
      <point x="70" y="502" type="curve" smooth="yes"/>
      <point x="84" y="504"/>
      <point x="98" y="507"/>
      <point x="112" y="509" type="curve" smooth="yes"/>
      <point x="142" y="513"/>
      <point x="152" y="521"/>
      <point x="152" y="538" type="curve" smooth="yes"/>
      <point x="152" y="566"/>
      <point x="136" y="571"/>
    </contour>
    <contour>
      <point x="240" y="490" type="curve" smooth="yes"/>
      <point x="206" y="487"/>
      <point x="172" y="482"/>
      <point x="138" y="475" type="curve" smooth="yes"/>
      <point x="122" y="472"/>
      <point x="113" y="461"/>
      <point x="113" y="446" type="curve" smooth="yes"/>
      <point x="113" y="418"/>
      <point x="128" y="414"/>
      <point x="155" y="417" type="curve" smooth="yes"/>
      <point x="190" y="421"/>
      <point x="220" y="426"/>
      <point x="245" y="430" type="curve" smooth="yes"/>
      <point x="289" y="437"/>
      <point x="304" y="448"/>
      <point x="304" y="467" type="curve" smooth="yes"/>
      <point x="304" y="494"/>
      <point x="281" y="494"/>
    </contour>
    <contour>
      <point x="559" y="378" type="curve" smooth="yes"/>
      <point x="538" y="380"/>
      <point x="518" y="382"/>
      <point x="498" y="383" type="curve" smooth="yes"/>
      <point x="477" y="384"/>
      <point x="466" y="368"/>
      <point x="466" y="351" type="curve" smooth="yes"/>
      <point x="466" y="335"/>
      <point x="475" y="320"/>
      <point x="493" y="317" type="curve" smooth="yes"/>
      <point x="512" y="314"/>
      <point x="531" y="312"/>
      <point x="550" y="311" type="curve" smooth="yes"/>
      <point x="604" y="308"/>
      <point x="644" y="303"/>
      <point x="644" y="341" type="curve" smooth="yes"/>
      <point x="644" y="361"/>
      <point x="623" y="372"/>
    </contour>
    <contour>
      <point x="402" y="127" type="curve" smooth="yes"/>
      <point x="378" y="127"/>
      <point x="359" y="146"/>
      <point x="359" y="170" type="curve" smooth="yes"/>
      <point x="359" y="194"/>
      <point x="378" y="213"/>
      <point x="402" y="213" type="curve" smooth="yes"/>
      <point x="426" y="213"/>
      <point x="445" y="194"/>
      <point x="445" y="170" type="curve" smooth="yes"/>
      <point x="445" y="146"/>
      <point x="426" y="127"/>
    </contour>
    <contour>
      <point x="470" y="233" type="curve" smooth="yes"/>
      <point x="450" y="233"/>
      <point x="434" y="249"/>
      <point x="434" y="269" type="curve" smooth="yes"/>
      <point x="434" y="289"/>
      <point x="450" y="304"/>
      <point x="470" y="304" type="curve" smooth="yes"/>
      <point x="490" y="304"/>
      <point x="505" y="289"/>
      <point x="505" y="269" type="curve" smooth="yes"/>
      <point x="505" y="249"/>
      <point x="490" y="233"/>
    </contour>
    <contour>
      <point x="291" y="96" type="curve" smooth="yes"/>
      <point x="271" y="96"/>
      <point x="255" y="112"/>
      <point x="255" y="132" type="curve" smooth="yes"/>
      <point x="255" y="152"/>
      <point x="271" y="167"/>
      <point x="291" y="167" type="curve" smooth="yes"/>
      <point x="311" y="167"/>
      <point x="326" y="152"/>
      <point x="326" y="132" type="curve" smooth="yes"/>
      <point x="326" y="112"/>
      <point x="311" y="96"/>
    </contour>
  </outline>
</glyph>
<glyph name="X" format="2">
  <advance width="576"/>
  <unicode hex="0058"/>
  <unicode hex="0078"/>
  <anchor x="289" y="-8" name="bottom"/>
  <anchor x="282" y="707" name="top"/>
  <outline>
    <contour>
      <point x="53" y="-24" type="curve" smooth="yes"/>
      <point x="77" y="-34"/>
      <point x="101" y="-19"/>
      <point x="119" y="15" type="curve" smooth="yes"/>
      <point x="153" y="80"/>
      <point x="180" y="144"/>
      <point x="214" y="210" type="curve" smooth="yes"/>
      <point x="224" y="230"/>
      <point x="240" y="241"/>
      <point x="261" y="241" type="curve" smooth="yes"/>
      <point x="280" y="241"/>
      <point x="295" y="232"/>
      <point x="307" y="213" type="curve" smooth="yes"/>
      <point x="347" y="150"/>
      <point x="379" y="81"/>
      <point x="420" y="15" type="curve" smooth="yes"/>
      <point x="444" y="-23"/>
      <point x="476" y="-38"/>
      <point x="507" y="-24" type="curve" smooth="yes"/>
      <point x="540" y="-9"/>
      <point x="543" y="26"/>
      <point x="528" y="69" type="curve" smooth="yes"/>
      <point x="502" y="148"/>
      <point x="462" y="232"/>
      <point x="439" y="301" type="curve" smooth="yes"/>
      <point x="431" y="326"/>
      <point x="427" y="351"/>
      <point x="427" y="375" type="curve" smooth="yes"/>
      <point x="427" y="399"/>
      <point x="432" y="426"/>
      <point x="442" y="450" type="curve" smooth="yes"/>
      <point x="465" y="507"/>
      <point x="491" y="558"/>
      <point x="514" y="615" type="curve" smooth="yes"/>
      <point x="528" y="649"/>
      <point x="527" y="680"/>
      <point x="501" y="691" type="curve" smooth="yes"/>
      <point x="479" y="700"/>
      <point x="457" y="693"/>
      <point x="440" y="662" type="curve" smooth="yes"/>
      <point x="408" y="602"/>
      <point x="382" y="538"/>
      <point x="349" y="480" type="curve" smooth="yes"/>
      <point x="331" y="449"/>
      <point x="315" y="442"/>
      <point x="296" y="442" type="curve" smooth="yes"/>
      <point x="275" y="442"/>
      <point x="259" y="448"/>
      <point x="237" y="480" type="curve" smooth="yes"/>
      <point x="232" y="487"/>
      <point x="227" y="495"/>
      <point x="222" y="503" type="curve" smooth="yes"/>
      <point x="218" y="509"/>
      <point x="214" y="516"/>
      <point x="210" y="522" type="curve" smooth="yes"/>
      <point x="206" y="529"/>
      <point x="202" y="535"/>
      <point x="198" y="542" type="curve" smooth="yes"/>
      <point x="193" y="550"/>
      <point x="189" y="557"/>
      <point x="185" y="565" type="curve" smooth="yes"/>
      <point x="181" y="571"/>
      <point x="177" y="578"/>
      <point x="174" y="584" type="curve" smooth="yes"/>
      <point x="170" y="591"/>
      <point x="166" y="597"/>
      <point x="162" y="604" type="curve" smooth="yes"/>
      <point x="149" y="627"/>
      <point x="135" y="649"/>
      <point x="122" y="671" type="curve" smooth="yes"/>
      <point x="100" y="704"/>
      <point x="75" y="718"/>
      <point x="46" y="703" type="curve" smooth="yes"/>
      <point x="20" y="689"/>
      <point x="18" y="661"/>
      <point x="39" y="618" type="curve" smooth="yes"/>
      <point x="67" y="560"/>
      <point x="101" y="513"/>
      <point x="129" y="456" type="curve" smooth="yes"/>
      <point x="142" y="430"/>
      <point x="147" y="394"/>
      <point x="147" y="359" type="curve" smooth="yes"/>
      <point x="147" y="328"/>
      <point x="143" y="296"/>
      <point x="131" y="264" type="curve" smooth="yes"/>
      <point x="103" y="191"/>
      <point x="68" y="121"/>
      <point x="40" y="48" type="curve" smooth="yes"/>
      <point x="27" y="14"/>
      <point x="27" y="-13"/>
    </contour>
    <contour>
      <point x="471" y="465" type="curve" smooth="yes"/>
      <point x="534" y="437"/>
      <point x="565" y="429"/>
      <point x="575" y="453" type="curve" smooth="yes"/>
      <point x="585" y="476"/>
      <point x="564" y="497"/>
      <point x="508" y="527" type="curve" smooth="yes"/>
      <point x="467" y="549"/>
      <point x="427" y="569"/>
      <point x="388" y="587" type="curve" smooth="yes"/>
      <point x="344" y="607"/>
      <point x="314" y="613"/>
      <point x="304" y="589" type="curve" smooth="yes"/>
      <point x="295" y="568"/>
      <point x="308" y="551"/>
      <point x="360" y="521" type="curve" smooth="yes"/>
      <point x="395" y="501"/>
      <point x="433" y="482"/>
    </contour>
    <contour>
      <point x="373" y="424" type="line"/>
      <point x="391" y="415"/>
      <point x="401" y="411"/>
      <point x="412" y="432" type="curve" smooth="yes"/>
      <point x="422" y="453"/>
      <point x="416" y="463"/>
      <point x="396" y="471" type="curve"/>
    </contour>
    <contour>
      <point x="223" y="274" type="curve" smooth="yes"/>
      <point x="243" y="274"/>
      <point x="259" y="290"/>
      <point x="259" y="310" type="curve" smooth="yes"/>
      <point x="259" y="330"/>
      <point x="243" y="347"/>
      <point x="223" y="347" type="curve" smooth="yes"/>
      <point x="203" y="347"/>
      <point x="186" y="330"/>
      <point x="186" y="310" type="curve" smooth="yes"/>
      <point x="186" y="290"/>
      <point x="203" y="274"/>
    </contour>
    <contour>
      <point x="166" y="62" type="curve" smooth="yes"/>
      <point x="234" y="33"/>
      <point x="258" y="28"/>
      <point x="269" y="53" type="curve" smooth="yes"/>
      <point x="279" y="76"/>
      <point x="260" y="98"/>
      <point x="198" y="128" type="curve" smooth="yes"/>
      <point x="163" y="145"/>
      <point x="126" y="162"/>
      <point x="89" y="177" type="curve" smooth="yes"/>
      <point x="37" y="198"/>
      <point x="12" y="201"/>
      <point x="2" y="179" type="curve" smooth="yes"/>
      <point x="-8" y="157"/>
      <point x="11" y="139"/>
      <point x="58" y="114" type="curve" smooth="yes"/>
      <point x="92" y="96"/>
      <point x="128" y="78"/>
    </contour>
    <contour>
      <point x="415" y="126" type="curve" smooth="yes"/>
      <point x="396" y="126"/>
      <point x="381" y="142"/>
      <point x="381" y="161" type="curve" smooth="yes"/>
      <point x="381" y="179"/>
      <point x="396" y="194"/>
      <point x="415" y="194" type="curve" smooth="yes"/>
      <point x="434" y="194"/>
      <point x="449" y="179"/>
      <point x="449" y="161" type="curve" smooth="yes"/>
      <point x="449" y="142"/>
      <point x="434" y="126"/>
    </contour>
    <contour>
      <point x="360" y="254" type="curve" smooth="yes"/>
      <point x="337" y="254"/>
      <point x="317" y="275"/>
      <point x="317" y="297" type="curve" smooth="yes"/>
      <point x="317" y="320"/>
      <point x="337" y="339"/>
      <point x="360" y="339" type="curve" smooth="yes"/>
      <point x="384" y="339"/>
      <point x="402" y="320"/>
      <point x="402" y="297" type="curve" smooth="yes"/>
      <point x="402" y="275"/>
      <point x="384" y="254"/>
    </contour>
    <contour>
      <point x="75" y="12" type="curve" smooth="yes"/>
      <point x="85" y="8"/>
      <point x="93" y="11"/>
      <point x="101" y="29" type="curve" smooth="yes"/>
      <point x="109" y="48"/>
      <point x="107" y="60"/>
      <point x="95" y="65" type="curve" smooth="yes"/>
      <point x="93" y="66"/>
      <point x="92" y="66"/>
      <point x="90" y="67" type="curve" smooth="yes"/>
      <point x="78" y="72"/>
      <point x="70" y="66"/>
      <point x="61" y="48" type="curve" smooth="yes"/>
      <point x="53" y="32"/>
      <point x="55" y="20"/>
      <point x="65" y="16" type="curve" smooth="yes"/>
      <point x="68" y="15"/>
      <point x="72" y="13"/>
    </contour>
  </outline>
</glyph>
<glyph name="backslash" format="2">
  <advance width="402"/>
  <unicode hex="005C"/>
  <outline>
    <contour>
      <point x="362" y="-147" type="curve" smooth="yes"/>
      <point x="397" y="-135"/>
      <point x="401" y="-115"/>
      <point x="387" y="-68" type="curve" smooth="yes"/>
      <point x="299" y="223"/>
      <point x="207" y="522"/>
      <point x="116" y="802" type="curve" smooth="yes"/>
      <point x="102" y="845"/>
      <point x="76" y="860"/>
      <point x="48" y="850" type="curve" smooth="yes"/>
      <point x="17" y="840"/>
      <point x="6" y="819"/>
      <point x="20" y="771" type="curve" smooth="yes"/>
      <point x="105" y="488"/>
      <point x="197" y="189"/>
      <point x="290" y="-100" type="curve" smooth="yes"/>
      <point x="304" y="-145"/>
      <point x="333" y="-157"/>
    </contour>
  </outline>
</glyph>
<glyph name="underscore" format="2">
  <advance width="520"/>
  <unicode hex="005F"/>
  <outline>
    <contour>
      <point x="76" y="-57" type="curve" smooth="yes"/>
      <point x="47" y="-58"/>
      <point x="20" y="-67"/>
      <point x="20" y="-99" type="curve" smooth="yes"/>
      <point x="20" y="-129"/>
      <point x="41" y="-140"/>
      <point x="78" y="-141" type="curve" smooth="yes"/>
      <point x="184" y="-143"/>
      <point x="320" y="-142"/>
      <point x="430" y="-139" type="curve" smooth="yes"/>
      <point x="468" y="-138"/>
      <point x="498" y="-130"/>
      <point x="498" y="-95" type="curve" smooth="yes"/>
      <point x="498" y="-62"/>
      <point x="479" y="-52"/>
      <point x="429" y="-51" type="curve" smooth="yes"/>
      <point x="334" y="-50"/>
      <point x="184" y="-52"/>
    </contour>
  </outline>
</glyph>
<glyph name="braceleft" format="2">
  <advance width="390"/>
  <unicode hex="007B"/>
  <outline>
    <contour>
      <point x="8" y="350" type="curve" smooth="yes"/>
      <point x="8" y="310"/>
      <point x="24" y="275"/>
      <point x="72" y="261" type="curve" smooth="yes"/>
      <point x="125" y="245"/>
      <point x="137" y="222"/>
      <point x="133" y="188" type="curve" smooth="yes"/>
      <point x="126" y="111"/>
      <point x="81" y="32"/>
      <point x="78" y="-50" type="curve" smooth="yes"/>
      <point x="75" y="-147"/>
      <point x="148" y="-177"/>
      <point x="249" y="-177" type="curve" smooth="yes"/>
      <point x="329" y="-177"/>
      <point x="353" y="-167"/>
      <point x="353" y="-132" type="curve" smooth="yes"/>
      <point x="353" y="-99"/>
      <point x="337" y="-88"/>
      <point x="300" y="-88" type="curve" smooth="yes"/>
      <point x="232" y="-88"/>
      <point x="211" y="-73"/>
      <point x="213" y="-39" type="curve" smooth="yes"/>
      <point x="217" y="13"/>
      <point x="239" y="95"/>
      <point x="247" y="192" type="curve" smooth="yes"/>
      <point x="253" y="262"/>
      <point x="233" y="302"/>
      <point x="187" y="313" type="curve" smooth="yes"/>
      <point x="162" y="319"/>
      <point x="151" y="327"/>
      <point x="151" y="345" type="curve" smooth="yes"/>
      <point x="151" y="365"/>
      <point x="170" y="378"/>
      <point x="213" y="380" type="curve" smooth="yes"/>
      <point x="272" y="381"/>
      <point x="327" y="424"/>
      <point x="306" y="508" type="curve" smooth="yes"/>
      <point x="288" y="576"/>
      <point x="245" y="637"/>
      <point x="230" y="698" type="curve" smooth="yes"/>
      <point x="221" y="732"/>
      <point x="242" y="748"/>
      <point x="294" y="748" type="curve" smooth="yes"/>
      <point x="347" y="748"/>
      <point x="375" y="759"/>
      <point x="375" y="791" type="curve" smooth="yes"/>
      <point x="375" y="821"/>
      <point x="344" y="836"/>
      <point x="277" y="836" type="curve" smooth="yes"/>
      <point x="185" y="836"/>
      <point x="145" y="798"/>
      <point x="128" y="714" type="curve" smooth="yes"/>
      <point x="115" y="644"/>
      <point x="107" y="572"/>
      <point x="102" y="517" type="curve" smooth="yes"/>
      <point x="99" y="482"/>
      <point x="91" y="449"/>
      <point x="54" y="429" type="curve" smooth="yes"/>
      <point x="26" y="414"/>
      <point x="8" y="388"/>
    </contour>
    <contour>
      <point x="202" y="460" type="curve" smooth="yes"/>
      <point x="175" y="460"/>
      <point x="154" y="481"/>
      <point x="154" y="508" type="curve" smooth="yes"/>
      <point x="154" y="534"/>
      <point x="175" y="557"/>
      <point x="202" y="557" type="curve" smooth="yes"/>
      <point x="228" y="557"/>
      <point x="251" y="534"/>
      <point x="251" y="508" type="curve" smooth="yes"/>
      <point x="251" y="481"/>
      <point x="228" y="460"/>
    </contour>
    <contour>
      <point x="194" y="623" type="curve" smooth="yes"/>
      <point x="194" y="623"/>
      <point x="194" y="623"/>
      <point x="194" y="623" type="curve" smooth="yes"/>
      <point x="194" y="623"/>
      <point x="194" y="623"/>
      <point x="194" y="623" type="curve" smooth="yes"/>
      <point x="194" y="623"/>
      <point x="194" y="623"/>
      <point x="194" y="623" type="curve" smooth="yes"/>
      <point x="194" y="623"/>
      <point x="194" y="623"/>
    </contour>
    <contour>
      <point x="160" y="-37" type="curve" smooth="yes"/>
      <point x="160" y="-37"/>
      <point x="160" y="-37"/>
      <point x="160" y="-37" type="curve" smooth="yes"/>
      <point x="160" y="-37"/>
      <point x="160" y="-37"/>
      <point x="160" y="-37" type="curve" smooth="yes"/>
      <point x="160" y="-37"/>
      <point x="160" y="-37"/>
      <point x="160" y="-37" type="curve" smooth="yes"/>
      <point x="160" y="-37"/>
      <point x="160" y="-37"/>
    </contour>
    <contour>
      <point x="185" y="102" type="curve" smooth="yes"/>
      <point x="185" y="102"/>
      <point x="185" y="102"/>
      <point x="185" y="102" type="curve" smooth="yes"/>
      <point x="185" y="102"/>
      <point x="185" y="102"/>
      <point x="185" y="102" type="curve" smooth="yes"/>
      <point x="185" y="102"/>
      <point x="185" y="102"/>
      <point x="185" y="102" type="curve" smooth="yes"/>
      <point x="185" y="102"/>
      <point x="185" y="102"/>
    </contour>
  </outline>
</glyph>
<glyph name="braceright" format="2">
  <advance width="404"/>
  <unicode hex="007D"/>
  <outline>
    <contour>
      <point x="365" y="359" type="curve" smooth="yes"/>
      <point x="365" y="400"/>
      <point x="349" y="432"/>
      <point x="302" y="449" type="curve" smooth="yes"/>
      <point x="251" y="467"/>
      <point x="232" y="484"/>
      <point x="230" y="529" type="curve" smooth="yes"/>
      <point x="227" y="596"/>
      <point x="280" y="664"/>
      <point x="277" y="729" type="curve" smooth="yes"/>
      <point x="274" y="794"/>
      <point x="237" y="846"/>
      <point x="88" y="846" type="curve" smooth="yes"/>
      <point x="33" y="846"/>
      <point x="8" y="834"/>
      <point x="8" y="806" type="curve" smooth="yes"/>
      <point x="8" y="775"/>
      <point x="34" y="763"/>
      <point x="76" y="763" type="curve" smooth="yes"/>
      <point x="149" y="763"/>
      <point x="183" y="746"/>
      <point x="186" y="714" type="curve" smooth="yes"/>
      <point x="192" y="654"/>
      <point x="134" y="575"/>
      <point x="139" y="499" type="curve" smooth="yes"/>
      <point x="143" y="442"/>
      <point x="178" y="410"/>
      <point x="239" y="390" type="curve" smooth="yes"/>
      <point x="260" y="383"/>
      <point x="272" y="370"/>
      <point x="272" y="350" type="curve" smooth="yes"/>
      <point x="272" y="332"/>
      <point x="252" y="318"/>
      <point x="171" y="297" type="curve" smooth="yes"/>
      <point x="102" y="278"/>
      <point x="58" y="249"/>
      <point x="59" y="174" type="curve" smooth="yes"/>
      <point x="60" y="91"/>
      <point x="113" y="48"/>
      <point x="119" y="-11" type="curve" smooth="yes"/>
      <point x="121" y="-38"/>
      <point x="101" y="-49"/>
      <point x="55" y="-49" type="curve" smooth="yes"/>
      <point x="12" y="-49"/>
      <point x="-13" y="-58"/>
      <point x="-13" y="-89" type="curve" smooth="yes"/>
      <point x="-13" y="-125"/>
      <point x="13" y="-138"/>
      <point x="80" y="-138" type="curve" smooth="yes"/>
      <point x="156" y="-138"/>
      <point x="200" y="-116"/>
      <point x="218" y="-66" type="curve" smooth="yes"/>
      <point x="245" y="8"/>
      <point x="247" y="136"/>
      <point x="260" y="211" type="curve" smooth="yes"/>
      <point x="266" y="241"/>
      <point x="280" y="263"/>
      <point x="309" y="277" type="curve" smooth="yes"/>
      <point x="347" y="296"/>
      <point x="365" y="324"/>
    </contour>
    <contour>
      <point x="164" y="670" type="curve" smooth="yes"/>
      <point x="66" y="683"/>
      <point x="47" y="677"/>
      <point x="43" y="649" type="curve" smooth="yes"/>
      <point x="39" y="622"/>
      <point x="54" y="612"/>
      <point x="156" y="591" type="curve" smooth="yes"/>
      <point x="188" y="584"/>
      <point x="225" y="578"/>
      <point x="259" y="575" type="curve" smooth="yes"/>
      <point x="337" y="568"/>
      <point x="355" y="573"/>
      <point x="359" y="599" type="curve" smooth="yes"/>
      <point x="363" y="628"/>
      <point x="347" y="637"/>
      <point x="268" y="652" type="curve" smooth="yes"/>
      <point x="243" y="658"/>
      <point x="204" y="665"/>
    </contour>
    <contour>
      <point x="165" y="120" type="curve" smooth="yes"/>
      <point x="138" y="120"/>
      <point x="117" y="141"/>
      <point x="117" y="168" type="curve" smooth="yes"/>
      <point x="117" y="194"/>
      <point x="138" y="215"/>
      <point x="165" y="215" type="curve" smooth="yes"/>
      <point x="191" y="215"/>
      <point x="212" y="194"/>
      <point x="212" y="168" type="curve" smooth="yes"/>
      <point x="212" y="141"/>
      <point x="191" y="120"/>
    </contour>
  </outline>
</glyph>
<glyph name="brokenbar" format="2">
  <advance width="225"/>
  <unicode hex="00A6"/>
  <outline>
    <contour>
      <point x="54" y="674" type="curve" smooth="yes"/>
      <point x="58" y="586"/>
      <point x="64" y="498"/>
      <point x="73" y="410" type="curve" smooth="yes"/>
      <point x="77" y="371"/>
      <point x="89" y="349"/>
      <point x="120" y="349" type="curve" smooth="yes"/>
      <point x="150" y="349"/>
      <point x="165" y="368"/>
      <point x="166" y="408" type="curve" smooth="yes"/>
      <point x="168" y="497"/>
      <point x="167" y="585"/>
      <point x="164" y="674" type="curve" smooth="yes"/>
      <point x="163" y="718"/>
      <point x="141" y="740"/>
      <point x="105" y="740" type="curve" smooth="yes"/>
      <point x="73" y="740"/>
      <point x="52" y="718"/>
    </contour>
    <contour>
      <point x="87" y="192" type="curve" smooth="yes"/>
      <point x="79" y="107"/>
      <point x="72" y="22"/>
      <point x="68" y="-63" type="curve" smooth="yes"/>
      <point x="66" y="-107"/>
      <point x="87" y="-126"/>
      <point x="117" y="-126" type="curve" smooth="yes"/>
      <point x="154" y="-126"/>
      <point x="166" y="-108"/>
      <point x="168" y="-63" type="curve" smooth="yes"/>
      <point x="172" y="22"/>
      <point x="173" y="107"/>
      <point x="173" y="192" type="curve" smooth="yes"/>
      <point x="173" y="227"/>
      <point x="159" y="252"/>
      <point x="132" y="252" type="curve" smooth="yes"/>
      <point x="104" y="252"/>
      <point x="91" y="231"/>
    </contour>
  </outline>
</glyph>
<glyph name="guillemetleft" format="2">
  <advance width="493"/>
  <unicode hex="00AB"/>
  <outline>
    <contour>
      <point x="185" y="64" type="curve" smooth="yes"/>
      <point x="213" y="27"/>
      <point x="273" y="59"/>
      <point x="247" y="103" type="curve" smooth="yes"/>
      <point x="223" y="145"/>
      <point x="189" y="204"/>
      <point x="169" y="237" type="curve" smooth="yes"/>
      <point x="158" y="255"/>
      <point x="157" y="276"/>
      <point x="165" y="294" type="curve" smooth="yes"/>
      <point x="187" y="345"/>
      <point x="223" y="431"/>
      <point x="243" y="482" type="curve" smooth="yes"/>
      <point x="266" y="541"/>
      <point x="188" y="574"/>
      <point x="163" y="516" type="curve" smooth="yes"/>
      <point x="141" y="468"/>
      <point x="100" y="373"/>
      <point x="76" y="311" type="curve" smooth="yes"/>
      <point x="62" y="275"/>
      <point x="67" y="237"/>
      <point x="85" y="208" type="curve" smooth="yes"/>
      <point x="111" y="167"/>
      <point x="150" y="110"/>
    </contour>
    <contour>
      <point x="369" y="76" type="curve" smooth="yes"/>
      <point x="398" y="35"/>
      <point x="456" y="66"/>
      <point x="429" y="114" type="curve" smooth="yes"/>
      <point x="402" y="162"/>
      <point x="376" y="209"/>
      <point x="354" y="250" type="curve" smooth="yes"/>
      <point x="341" y="275"/>
      <point x="343" y="293"/>
      <point x="353" y="314" type="curve" smooth="yes"/>
      <point x="380" y="370"/>
      <point x="409" y="431"/>
      <point x="438" y="491" type="curve" smooth="yes"/>
      <point x="459" y="534"/>
      <point x="406" y="564"/>
      <point x="378" y="524" type="curve" smooth="yes"/>
      <point x="344" y="475"/>
      <point x="290" y="390"/>
      <point x="255" y="334" type="curve" smooth="yes"/>
      <point x="239" y="309"/>
      <point x="234" y="275"/>
      <point x="258" y="237" type="curve" smooth="yes"/>
      <point x="292" y="183"/>
      <point x="332" y="127"/>
    </contour>
  </outline>
</glyph>
<glyph name="guillemetright" format="2">
  <advance width="493"/>
  <unicode hex="00BB"/>
  <outline>
    <contour>
      <point x="360" y="535" type="curve" smooth="yes"/>
      <point x="329" y="599"/>
      <point x="239" y="550"/>
      <point x="270" y="493" type="curve" smooth="yes"/>
      <point x="300" y="438"/>
      <point x="329" y="388"/>
      <point x="359" y="338" type="curve" smooth="yes"/>
      <point x="369" y="321"/>
      <point x="370" y="298"/>
      <point x="360" y="281" type="curve" smooth="yes"/>
      <point x="329" y="230"/>
      <point x="298" y="177"/>
      <point x="269" y="124" type="curve" smooth="yes"/>
      <point x="247" y="83"/>
      <point x="308" y="41"/>
      <point x="341" y="89" type="curve" smooth="yes"/>
      <point x="375" y="139"/>
      <point x="409" y="190"/>
      <point x="441" y="244" type="curve" smooth="yes"/>
      <point x="459" y="276"/>
      <point x="461" y="317"/>
      <point x="442" y="360" type="curve" smooth="yes"/>
      <point x="417" y="418"/>
      <point x="389" y="477"/>
    </contour>
    <contour>
      <point x="121" y="567" type="curve" smooth="yes"/>
      <point x="90" y="608"/>
      <point x="33" y="566"/>
      <point x="55" y="530" type="curve" smooth="yes"/>
      <point x="97" y="461"/>
      <point x="134" y="400"/>
      <point x="179" y="332" type="curve" smooth="yes"/>
      <point x="191" y="315"/>
      <point x="190" y="295"/>
      <point x="178" y="278" type="curve" smooth="yes"/>
      <point x="141" y="226"/>
      <point x="102" y="179"/>
      <point x="64" y="127" type="curve" smooth="yes"/>
      <point x="15" y="60"/>
      <point x="110" y="3"/>
      <point x="148" y="68" type="curve" smooth="yes"/>
      <point x="188" y="137"/>
      <point x="228" y="206"/>
      <point x="264" y="277" type="curve" smooth="yes"/>
      <point x="283" y="315"/>
      <point x="283" y="347"/>
      <point x="261" y="377" type="curve" smooth="yes"/>
      <point x="215" y="441"/>
      <point x="169" y="505"/>
    </contour>
  </outline>
</glyph>
<glyph name="quoteright" format="2">
  <advance width="260"/>
  <unicode hex="2019"/>
  <outline>
    <contour>
      <point x="52" y="387" type="curve" smooth="yes"/>
      <point x="8" y="356"/>
      <point x="50" y="300"/>
      <point x="93" y="325" type="curve" smooth="yes"/>
      <point x="167" y="368"/>
      <point x="231" y="466"/>
      <point x="231" y="606" type="curve" smooth="yes"/>
      <point x="231" y="667"/>
      <point x="204" y="719"/>
      <point x="129" y="719" type="curve" smooth="yes"/>
      <point x="75" y="719"/>
      <point x="44" y="685"/>
      <point x="44" y="639" type="curve" smooth="yes"/>
      <point x="44" y="555"/>
      <point x="137" y="583"/>
      <point x="137" y="529" type="curve" smooth="yes"/>
      <point x="137" y="477"/>
      <point x="104" y="423"/>
    </contour>
    <contour>
      <point x="124" y="642" type="curve" smooth="yes"/>
      <point x="124" y="642"/>
      <point x="124" y="642"/>
      <point x="124" y="642" type="curve" smooth="yes"/>
      <point x="124" y="642"/>
      <point x="124" y="642"/>
      <point x="124" y="642" type="curve" smooth="yes"/>
      <point x="124" y="642"/>
      <point x="124" y="642"/>
      <point x="124" y="642" type="curve" smooth="yes"/>
      <point x="124" y="642"/>
      <point x="124" y="642"/>
    </contour>
    <contour>
      <point x="121" y="486" type="curve" smooth="yes"/>
      <point x="70" y="508"/>
      <point x="46" y="508"/>
      <point x="38" y="488" type="curve" smooth="yes"/>
      <point x="30" y="467"/>
      <point x="41" y="452"/>
      <point x="94" y="427" type="curve" smooth="yes"/>
      <point x="126" y="411"/>
      <point x="162" y="397"/>
      <point x="179" y="390" type="curve" smooth="yes"/>
      <point x="231" y="370"/>
      <point x="251" y="369"/>
      <point x="260" y="388" type="curve" smooth="yes"/>
      <point x="269" y="408"/>
      <point x="261" y="427"/>
      <point x="209" y="449" type="curve" smooth="yes"/>
      <point x="188" y="458"/>
      <point x="159" y="470"/>
    </contour>
  </outline>
</glyph>
<glyph name="quotedblright" format="2">
  <advance width="509"/>
  <unicode hex="201D"/>
  <outline>
    <contour>
      <point x="274" y="375" type="curve" smooth="yes"/>
      <point x="222" y="352"/>
      <point x="256" y="292"/>
      <point x="302" y="311" type="curve" smooth="yes"/>
      <point x="394" y="348"/>
      <point x="465" y="429"/>
      <point x="465" y="578" type="curve" smooth="yes"/>
      <point x="465" y="664"/>
      <point x="431" y="709"/>
      <point x="355" y="709" type="curve" smooth="yes"/>
      <point x="291" y="709"/>
      <point x="254" y="671"/>
      <point x="254" y="614" type="curve" smooth="yes"/>
      <point x="254" y="503"/>
      <point x="364" y="541"/>
      <point x="364" y="487" type="curve" smooth="yes"/>
      <point x="364" y="457"/>
      <point x="335" y="402"/>
    </contour>
    <contour>
      <point x="355" y="570" type="curve" smooth="yes"/>
      <point x="331" y="570"/>
      <point x="312" y="589"/>
      <point x="312" y="613" type="curve" smooth="yes"/>
      <point x="312" y="637"/>
      <point x="331" y="656"/>
      <point x="355" y="656" type="curve" smooth="yes"/>
      <point x="379" y="656"/>
      <point x="398" y="637"/>
      <point x="398" y="613" type="curve" smooth="yes"/>
      <point x="398" y="589"/>
      <point x="379" y="570"/>
    </contour>
    <contour>
      <point x="334" y="459" type="curve" smooth="yes"/>
      <point x="286" y="478"/>
      <point x="266" y="481"/>
      <point x="257" y="463" type="curve" smooth="yes"/>
      <point x="248" y="446"/>
      <point x="258" y="429"/>
      <point x="303" y="405" type="curve" smooth="yes"/>
      <point x="323" y="394"/>
      <point x="362" y="373"/>
      <point x="382" y="365" type="curve" smooth="yes"/>
      <point x="436" y="341"/>
      <point x="456" y="340"/>
      <point x="465" y="358" type="curve" smooth="yes"/>
      <point x="474" y="377"/>
      <point x="464" y="398"/>
      <point x="420" y="419" type="curve" smooth="yes"/>
      <point x="401" y="428"/>
      <point x="355" y="451"/>
    </contour>
    <contour>
      <point x="51" y="394" type="curve" smooth="yes"/>
      <point x="5" y="366"/>
      <point x="43" y="297"/>
      <point x="91" y="325" type="curve" smooth="yes"/>
      <point x="172" y="373"/>
      <point x="222" y="440"/>
      <point x="222" y="566" type="curve" smooth="yes"/>
      <point x="222" y="641"/>
      <point x="191" y="701"/>
      <point x="121" y="701" type="curve" smooth="yes"/>
      <point x="69" y="701"/>
      <point x="35" y="670"/>
      <point x="35" y="619" type="curve" smooth="yes"/>
      <point x="35" y="529"/>
      <point x="124" y="557"/>
      <point x="124" y="492" type="curve" smooth="yes"/>
      <point x="124" y="455"/>
      <point x="98" y="422"/>
    </contour>
    <contour>
      <point x="117" y="599" type="curve" smooth="yes"/>
      <point x="117" y="599"/>
      <point x="117" y="599"/>
      <point x="117" y="599" type="curve" smooth="yes"/>
      <point x="117" y="599"/>
      <point x="117" y="599"/>
      <point x="117" y="599" type="curve" smooth="yes"/>
      <point x="117" y="599"/>
      <point x="117" y="599"/>
      <point x="117" y="599" type="curve" smooth="yes"/>
      <point x="117" y="599"/>
      <point x="117" y="599"/>
    </contour>
    <contour>
      <point x="158" y="448" type="curve" smooth="yes"/>
      <point x="148" y="454"/>
      <point x="139" y="452"/>
      <point x="127" y="431" type="curve" smooth="yes"/>
      <point x="117" y="413"/>
      <point x="119" y="401"/>
      <point x="124" y="397" type="curve" smooth="yes"/>
      <point x="128" y="394"/>
      <point x="128" y="394"/>
      <point x="134" y="391" type="curve" smooth="yes"/>
      <point x="144" y="386"/>
      <point x="155" y="385"/>
      <point x="166" y="405" type="curve" smooth="yes"/>
      <point x="177" y="426"/>
      <point x="175" y="434"/>
      <point x="167" y="441" type="curve" smooth="yes"/>
      <point x="163" y="444"/>
      <point x="162" y="445"/>
    </contour>
  </outline>
</glyph>
<glyph name="sunWithRays" format="2">
  <advance width="870"/>
  <unicode hex="263C"/>
  <outline>
    <contour>
      <point x="435" y="84" type="curve" smooth="yes"/>
      <point x="596" y="84"/>
      <point x="658" y="176"/>
      <point x="658" y="318" type="curve" smooth="yes"/>
      <point x="658" y="422"/>
      <point x="601" y="545"/>
      <point x="438" y="545" type="curve" smooth="yes"/>
      <point x="248" y="545"/>
      <point x="198" y="445"/>
      <point x="198" y="313" type="curve" smooth="yes"/>
      <point x="198" y="186"/>
      <point x="272" y="84"/>
    </contour>
    <contour>
      <point x="426" y="187" type="curve" smooth="yes"/>
      <point x="335" y="187"/>
      <point x="292" y="247"/>
      <point x="292" y="316" type="curve" smooth="yes"/>
      <point x="292" y="382"/>
      <point x="323" y="451"/>
      <point x="409" y="451" type="curve" smooth="yes"/>
      <point x="502" y="451"/>
      <point x="557" y="400"/>
      <point x="557" y="323" type="curve" smooth="yes"/>
      <point x="557" y="217"/>
      <point x="514" y="187"/>
    </contour>
    <contour>
      <point x="279" y="488" type="curve"/>
      <point x="376" y="526" type="line"/>
      <point x="282" y="732"/>
      <point x="260" y="749"/>
      <point x="228" y="737" type="curve" smooth="yes"/>
      <point x="198" y="726"/>
      <point x="193" y="684"/>
    </contour>
    <contour>
      <point x="461" y="520" type="curve"/>
      <point x="553" y="471" type="line"/>
      <point x="649" y="650"/>
      <point x="649" y="683"/>
      <point x="614" y="701" type="curve" smooth="yes"/>
      <point x="582" y="717"/>
      <point x="549" y="691"/>
    </contour>
    <contour>
      <point x="596" y="436" type="curve"/>
      <point x="628" y="337" type="line"/>
      <point x="839" y="415"/>
      <point x="858" y="436"/>
      <point x="845" y="474" type="curve" smooth="yes"/>
      <point x="835" y="504"/>
      <point x="797" y="508"/>
    </contour>
    <contour>
      <point x="230" y="324" type="curve"/>
      <point x="255" y="425" type="line"/>
      <point x="40" y="468"/>
      <point x="14" y="460"/>
      <point x="5" y="427" type="curve" smooth="yes"/>
      <point x="-3" y="396"/>
      <point x="28" y="368"/>
    </contour>
    <contour>
      <point x="303" y="155" type="curve"/>
      <point x="249" y="244" type="line"/>
      <point x="57" y="114"/>
      <point x="43" y="82"/>
      <point x="63" y="52" type="curve" smooth="yes"/>
      <point x="81" y="24"/>
      <point x="121" y="27"/>
    </contour>
    <contour>
      <point x="456" y="111" type="curve"/>
      <point x="360" y="133" type="line"/>
      <point x="316" y="-95"/>
      <point x="325" y="-119"/>
      <point x="360" y="-124" type="curve" smooth="yes"/>
      <point x="397" y="-129"/>
      <point x="418" y="-110"/>
    </contour>
    <contour>
      <point x="609" y="199" type="curve"/>
      <point x="531" y="129" type="line"/>
      <point x="670" y="-19"/>
      <point x="716" y="-36"/>
      <point x="739" y="-11" type="curve" smooth="yes"/>
      <point x="764" y="16"/>
      <point x="751" y="57"/>
    </contour>
  </outline>
</glyph>
<glyph name="border_2" format="2">
  <advance width="615"/>
  <unicode hex="E001"/>
  <outline>
    <contour>
      <point x="193" y="82" type="curve" smooth="yes"/>
      <point x="193" y="126"/>
      <point x="263" y="152"/>
      <point x="263" y="214" type="curve" smooth="yes"/>
      <point x="263" y="331"/>
      <point x="43" y="278"/>
      <point x="43" y="421" type="curve" smooth="yes"/>
      <point x="43" y="501"/>
      <point x="108" y="550"/>
      <point x="282" y="550" type="curve" smooth="yes"/>
      <point x="422" y="550"/>
      <point x="480" y="522"/>
      <point x="480" y="470" type="curve" smooth="yes"/>
      <point x="480" y="381"/>
      <point x="344" y="378"/>
      <point x="344" y="289" type="curve" smooth="yes"/>
      <point x="344" y="216"/>
      <point x="420" y="172"/>
      <point x="420" y="103" type="curve" smooth="yes"/>
      <point x="420" y="51"/>
      <point x="378" y="25"/>
      <point x="306" y="25" type="curve" smooth="yes"/>
      <point x="239" y="25"/>
      <point x="193" y="42"/>
    </contour>
    <contour>
      <point x="93" y="130" type="curve" smooth="yes"/>
      <point x="55" y="130"/>
      <point x="36" y="157"/>
      <point x="36" y="183" type="curve" smooth="yes"/>
      <point x="36" y="232"/>
      <point x="66" y="260"/>
      <point x="115" y="260" type="curve" smooth="yes"/>
      <point x="148" y="260"/>
      <point x="188" y="241"/>
      <point x="188" y="198" type="curve" smooth="yes"/>
      <point x="188" y="151"/>
      <point x="136" y="130"/>
    </contour>
    <contour>
      <point x="494" y="202" type="curve" smooth="yes"/>
      <point x="448" y="202"/>
      <point x="419" y="239"/>
      <point x="419" y="274" type="curve" smooth="yes"/>
      <point x="419" y="307"/>
      <point x="448" y="339"/>
      <point x="497" y="339" type="curve" smooth="yes"/>
      <point x="551" y="339"/>
      <point x="586" y="316"/>
      <point x="586" y="268" type="curve" smooth="yes"/>
      <point x="586" y="223"/>
      <point x="552" y="202"/>
    </contour>
  </outline>
</glyph>
<glyph name="border_4" format="2">
  <advance width="1395"/>
  <unicode hex="E003"/>
  <outline>
    <contour>
      <point x="-80" y="229" type="curve" smooth="yes"/>
      <point x="-56" y="192"/>
      <point x="-27" y="192"/>
      <point x="11" y="210" type="curve" smooth="yes"/>
      <point x="52" y="229"/>
      <point x="127" y="265"/>
      <point x="184" y="287" type="curve" smooth="yes"/>
      <point x="217" y="300"/>
      <point x="237" y="294"/>
      <point x="254" y="271" type="curve" smooth="yes"/>
      <point x="309" y="195"/>
      <point x="329" y="157"/>
      <point x="385" y="77" type="curve" smooth="yes"/>
      <point x="416" y="32"/>
      <point x="467" y="24"/>
      <point x="527" y="59" type="curve" smooth="yes"/>
      <point x="607" y="105"/>
      <point x="700" y="172"/>
      <point x="765" y="208" type="curve" smooth="yes"/>
      <point x="798" y="226"/>
      <point x="831" y="228"/>
      <point x="863" y="215" type="curve" smooth="yes"/>
      <point x="911" y="196"/>
      <point x="1015" y="138"/>
      <point x="1089" y="106" type="curve" smooth="yes"/>
      <point x="1132" y="87"/>
      <point x="1165" y="91"/>
      <point x="1206" y="109" type="curve" smooth="yes"/>
      <point x="1281" y="143"/>
      <point x="1333" y="174"/>
      <point x="1414" y="214" type="curve" smooth="yes"/>
      <point x="1449" y="232"/>
      <point x="1464" y="274"/>
      <point x="1443" y="304" type="curve" smooth="yes"/>
      <point x="1418" y="340"/>
      <point x="1377" y="333"/>
      <point x="1355" y="318" type="curve" smooth="yes"/>
      <point x="1332" y="303"/>
      <point x="1262" y="253"/>
      <point x="1206" y="217" type="curve" smooth="yes"/>
      <point x="1182" y="202"/>
      <point x="1160" y="200"/>
      <point x="1134" y="214" type="curve" smooth="yes"/>
      <point x="1058" y="255"/>
      <point x="969" y="311"/>
      <point x="874" y="359" type="curve" smooth="yes"/>
      <point x="832" y="380"/>
      <point x="783" y="380"/>
      <point x="736" y="351" type="curve" smooth="yes"/>
      <point x="657" y="302"/>
      <point x="532" y="211"/>
      <point x="504" y="196" type="curve" smooth="yes"/>
      <point x="470" y="178"/>
      <point x="452" y="174"/>
      <point x="431" y="203" type="curve" smooth="yes"/>
      <point x="386" y="262"/>
      <point x="342" y="343"/>
      <point x="286" y="420" type="curve" smooth="yes"/>
      <point x="252" y="467"/>
      <point x="207" y="469"/>
      <point x="141" y="432" type="curve" smooth="yes"/>
      <point x="87" y="401"/>
      <point x="25" y="363"/>
      <point x="-52" y="311" type="curve" smooth="yes"/>
      <point x="-83" y="290"/>
      <point x="-98" y="257"/>
    </contour>
  </outline>
</glyph>
<glyph name="border_5" format="2">
  <advance width="760"/>
  <unicode hex="E004"/>
  <outline>
    <contour>
      <point x="238" y="111" type="curve" smooth="yes"/>
      <point x="333" y="107"/>
      <point x="439" y="105"/>
      <point x="544" y="113" type="curve" smooth="yes"/>
      <point x="576" y="115"/>
      <point x="597" y="129"/>
      <point x="598" y="168" type="curve" smooth="yes"/>
      <point x="602" y="286"/>
      <point x="602" y="403"/>
      <point x="596" y="515" type="curve" smooth="yes"/>
      <point x="594" y="551"/>
      <point x="580" y="570"/>
      <point x="543" y="569" type="curve" smooth="yes"/>
      <point x="442" y="566"/>
      <point x="330" y="559"/>
      <point x="227" y="549" type="curve" smooth="yes"/>
      <point x="192" y="546"/>
      <point x="176" y="531"/>
      <point x="174" y="490" type="curve" smooth="yes"/>
      <point x="170" y="389"/>
      <point x="170" y="279"/>
      <point x="173" y="175" type="curve" smooth="yes"/>
      <point x="175" y="128"/>
      <point x="195" y="113"/>
    </contour>
    <contour>
      <point x="275" y="168" type="curve" smooth="yes"/>
      <point x="244" y="171"/>
      <point x="239" y="177"/>
      <point x="236" y="212" type="curve" smooth="yes"/>
      <point x="230" y="293"/>
      <point x="227" y="385"/>
      <point x="229" y="466" type="curve" smooth="yes"/>
      <point x="229" y="488"/>
      <point x="237" y="499"/>
      <point x="259" y="501" type="curve" smooth="yes"/>
      <point x="341" y="509"/>
      <point x="437" y="516"/>
      <point x="516" y="517" type="curve" smooth="yes"/>
      <point x="538" y="517"/>
      <point x="545" y="506"/>
      <point x="545" y="482" type="curve" smooth="yes"/>
      <point x="545" y="394"/>
      <point x="541" y="295"/>
      <point x="533" y="197" type="curve" smooth="yes"/>
      <point x="531" y="171"/>
      <point x="518" y="159"/>
      <point x="493" y="159" type="curve" smooth="yes"/>
      <point x="422" y="158"/>
      <point x="337" y="163"/>
    </contour>
    <contour>
      <point x="318" y="223" type="curve" smooth="yes"/>
      <point x="362" y="218"/>
      <point x="412" y="215"/>
      <point x="455" y="216" type="curve" smooth="yes"/>
      <point x="477" y="217"/>
      <point x="488" y="227"/>
      <point x="489" y="251" type="curve" smooth="yes"/>
      <point x="492" y="303"/>
      <point x="492" y="364"/>
      <point x="489" y="416" type="curve" smooth="yes"/>
      <point x="488" y="435"/>
      <point x="481" y="445"/>
      <point x="459" y="447" type="curve" smooth="yes"/>
      <point x="415" y="451"/>
      <point x="360" y="453"/>
      <point x="315" y="452" type="curve" smooth="yes"/>
      <point x="296" y="451"/>
      <point x="286" y="443"/>
      <point x="285" y="419" type="curve" smooth="yes"/>
      <point x="283" y="368"/>
      <point x="283" y="308"/>
      <point x="286" y="255" type="curve" smooth="yes"/>
      <point x="287" y="232"/>
      <point x="296" y="225"/>
    </contour>
    <contour>
      <point x="349" y="274" type="curve" smooth="yes"/>
      <point x="339" y="276"/>
      <point x="332" y="278"/>
      <point x="332" y="291" type="curve" smooth="yes"/>
      <point x="332" y="324"/>
      <point x="335" y="358"/>
      <point x="339" y="384" type="curve" smooth="yes"/>
      <point x="341" y="398"/>
      <point x="344" y="403"/>
      <point x="356" y="404" type="curve" smooth="yes"/>
      <point x="375" y="405"/>
      <point x="400" y="404"/>
      <point x="417" y="401" type="curve" smooth="yes"/>
      <point x="428" y="399"/>
      <point x="433" y="394"/>
      <point x="435" y="382" type="curve" smooth="yes"/>
      <point x="441" y="353"/>
      <point x="445" y="319"/>
      <point x="446" y="288" type="curve" smooth="yes"/>
      <point x="446" y="272"/>
      <point x="439" y="268"/>
      <point x="425" y="268" type="curve" smooth="yes"/>
      <point x="399" y="268"/>
      <point x="371" y="270"/>
    </contour>
    <contour>
      <point x="147" y="-44" type="curve" smooth="yes"/>
      <point x="303" y="-47"/>
      <point x="477" y="-43"/>
      <point x="639" y="-27" type="curve" smooth="yes"/>
      <point x="700" y="-21"/>
      <point x="734" y="1"/>
      <point x="734" y="75" type="curve" smooth="yes"/>
      <point x="733" y="254"/>
      <point x="724" y="443"/>
      <point x="706" y="625" type="curve" smooth="yes"/>
      <point x="701" y="679"/>
      <point x="676" y="705"/>
      <point x="621" y="705" type="curve" smooth="yes"/>
      <point x="455" y="704"/>
      <point x="274" y="696"/>
      <point x="111" y="679" type="curve" smooth="yes"/>
      <point x="60" y="674"/>
      <point x="37" y="651"/>
      <point x="36" y="602" type="curve" smooth="yes"/>
      <point x="32" y="417"/>
      <point x="33" y="231"/>
      <point x="45" y="46" type="curve" smooth="yes"/>
      <point x="49" y="-18"/>
      <point x="80" y="-43"/>
    </contour>
    <contour>
      <point x="161" y="37" type="curve" smooth="yes"/>
      <point x="140" y="37"/>
      <point x="130" y="47"/>
      <point x="127" y="80" type="curve" smooth="yes"/>
      <point x="113" y="244"/>
      <point x="106" y="408"/>
      <point x="104" y="572" type="curve" smooth="yes"/>
      <point x="104" y="595"/>
      <point x="112" y="611"/>
      <point x="136" y="612" type="curve" smooth="yes"/>
      <point x="293" y="620"/>
      <point x="450" y="624"/>
      <point x="607" y="623" type="curve" smooth="yes"/>
      <point x="628" y="623"/>
      <point x="634" y="607"/>
      <point x="636" y="584" type="curve" smooth="yes"/>
      <point x="649" y="426"/>
      <point x="658" y="269"/>
      <point x="660" y="111" type="curve" smooth="yes"/>
      <point x="661" y="69"/>
      <point x="637" y="50"/>
      <point x="616" y="49" type="curve" smooth="yes"/>
      <point x="464" y="40"/>
      <point x="313" y="37"/>
    </contour>
  </outline>
</glyph>
<glyph name="globe" format="2">
  <advance width="911"/>
  <unicode hex="1F310"/>
  <outline>
    <contour>
      <point x="30" y="352" type="curve" smooth="yes"/>
      <point x="30" y="119"/>
      <point x="189" y="-5"/>
      <point x="440" y="-5" type="curve" smooth="yes"/>
      <point x="713" y="-5"/>
      <point x="881" y="85"/>
      <point x="881" y="342" type="curve" smooth="yes"/>
      <point x="881" y="569"/>
      <point x="724" y="689"/>
      <point x="473" y="689" type="curve" smooth="yes"/>
      <point x="209" y="689"/>
      <point x="30" y="599"/>
    </contour>
    <contour>
      <point x="122" y="357"/>
      <point x="116" y="371"/>
      <point x="119" y="399" type="curve" smooth="yes"/>
      <point x="135" y="516"/>
      <point x="200" y="584"/>
      <point x="289" y="612" type="curve" smooth="yes"/>
      <point x="313" y="619"/>
      <point x="324" y="605"/>
      <point x="307" y="585" type="curve" smooth="yes"/>
      <point x="261" y="534"/>
      <point x="226" y="464"/>
      <point x="224" y="366" type="curve"/>
      <point x="197" y="365"/>
      <point x="171" y="362"/>
      <point x="154" y="361" type="curve" smooth="yes"/>
    </contour>
    <contour>
      <point x="122" y="273"/>
      <point x="128" y="288"/>
      <point x="152" y="289" type="curve" smooth="yes"/>
      <point x="174" y="289"/>
      <point x="200" y="290"/>
      <point x="226" y="290" type="curve"/>
      <point x="235" y="218"/>
      <point x="265" y="155"/>
      <point x="295" y="121" type="curve" smooth="yes"/>
      <point x="313" y="100"/>
      <point x="296" y="86"/>
      <point x="266" y="97" type="curve" smooth="yes"/>
      <point x="208" y="119"/>
      <point x="154" y="172"/>
      <point x="129" y="251" type="curve" smooth="yes"/>
    </contour>
    <contour>
      <point x="305" y="371" type="curve"/>
      <point x="308" y="452"/>
      <point x="326" y="533"/>
      <point x="382" y="586" type="curve" smooth="yes"/>
      <point x="408" y="611"/>
      <point x="426" y="599"/>
      <point x="425" y="579" type="curve" smooth="yes"/>
      <point x="424" y="526"/>
      <point x="424" y="451"/>
      <point x="426" y="377" type="curve"/>
      <point x="385" y="376"/>
      <point x="345" y="374"/>
    </contour>
    <contour>
      <point x="307" y="291" type="curve"/>
      <point x="347" y="292"/>
      <point x="388" y="293"/>
      <point x="428" y="294" type="curve"/>
      <point x="431" y="220"/>
      <point x="435" y="146"/>
      <point x="440" y="97" type="curve" smooth="yes"/>
      <point x="443" y="72"/>
      <point x="420" y="68"/>
      <point x="400" y="87" type="curve" smooth="yes"/>
      <point x="346" y="139"/>
      <point x="316" y="217"/>
    </contour>
    <contour>
      <point x="488" y="590" type="curve" smooth="yes"/>
      <point x="486" y="612"/>
      <point x="505" y="615"/>
      <point x="521" y="597" type="curve" smooth="yes"/>
      <point x="573" y="535"/>
      <point x="607" y="458"/>
      <point x="620" y="382" type="curve"/>
      <point x="580" y="381"/>
      <point x="541" y="381"/>
      <point x="501" y="380" type="curve"/>
      <point x="498" y="456"/>
      <point x="492" y="530"/>
    </contour>
    <contour>
      <point x="503" y="297" type="curve"/>
      <point x="543" y="298"/>
      <point x="584" y="300"/>
      <point x="624" y="301" type="curve"/>
      <point x="618" y="225"/>
      <point x="588" y="144"/>
      <point x="545" y="92" type="curve" smooth="yes"/>
      <point x="528" y="73"/>
      <point x="501" y="76"/>
      <point x="502" y="100" type="curve" smooth="yes"/>
      <point x="504" y="148"/>
      <point x="505" y="223"/>
    </contour>
    <contour>
      <point x="591" y="594" type="curve" smooth="yes"/>
      <point x="577" y="609"/>
      <point x="587" y="620"/>
      <point x="607" y="613" type="curve" smooth="yes"/>
      <point x="702" y="581"/>
      <point x="767" y="516"/>
      <point x="790" y="416" type="curve" smooth="yes"/>
      <point x="796" y="392"/>
      <point x="786" y="382"/>
      <point x="765" y="381" type="curve" smooth="yes"/>
      <point x="741" y="380"/>
      <point x="717" y="382"/>
      <point x="691" y="382" type="curve"/>
      <point x="681" y="467"/>
      <point x="649" y="536"/>
    </contour>
    <contour>
      <point x="632" y="74" type="curve" smooth="yes"/>
      <point x="605" y="65"/>
      <point x="591" y="78"/>
      <point x="609" y="99" type="curve" smooth="yes"/>
      <point x="656" y="154"/>
      <point x="690" y="221"/>
      <point x="694" y="305" type="curve"/>
      <point x="718" y="306"/>
      <point x="743" y="308"/>
      <point x="767" y="308" type="curve" smooth="yes"/>
      <point x="790" y="308"/>
      <point x="797" y="298"/>
      <point x="794" y="273" type="curve" smooth="yes"/>
      <point x="780" y="169"/>
      <point x="724" y="105"/>
    </contour>
  </outline>
</glyph>
<glyph name="C.001" format="2">
  <advance width="514"/>
  <anchor x="226" y="0" name="cedilla"/>
  <anchor x="305" y="711" name="top"/>
  <outline>
    <contour>
      <point x="304" y="-18" type="curve" smooth="yes"/>
      <point x="386" y="-18"/>
      <point x="450" y="15"/>
      <point x="491" y="67" type="curve" smooth="yes"/>
      <point x="535" y="122"/>
      <point x="471" y="167"/>
      <point x="438" y="122" type="curve" smooth="yes"/>
      <point x="435" y="118"/>
      <point x="431" y="114"/>
      <point x="428" y="111" type="curve" smooth="yes"/>
      <point x="421" y="104"/>
      <point x="413" y="97"/>
      <point x="404" y="91" type="curve" smooth="yes"/>
      <point x="398" y="87"/>
      <point x="391" y="82"/>
      <point x="386" y="79" type="curve" smooth="yes"/>
      <point x="381" y="76"/>
      <point x="379" y="75"/>
      <point x="371" y="72" type="curve" smooth="yes"/>
      <point x="363" y="69"/>
      <point x="355" y="66"/>
      <point x="344" y="64" type="curve" smooth="yes"/>
      <point x="335" y="62"/>
      <point x="326" y="60"/>
      <point x="316" y="60" type="curve" smooth="yes"/>
      <point x="313" y="60"/>
      <point x="310" y="60"/>
      <point x="307" y="60" type="curve" smooth="yes"/>
      <point x="217" y="60"/>
      <point x="140" y="151"/>
      <point x="140" y="308" type="curve" smooth="yes"/>
      <point x="140" y="417"/>
      <point x="192" y="483"/>
      <point x="246" y="496" type="curve"/>
      <point x="241" y="589"/>
      <point x="253" y="606"/>
      <point x="275" y="607" type="curve" smooth="yes"/>
      <point x="300" y="608"/>
      <point x="308" y="593"/>
      <point x="304" y="496" type="curve"/>
      <point x="319" y="496"/>
      <point x="345" y="494"/>
      <point x="360" y="492" type="curve"/>
      <point x="371" y="612"/>
      <point x="388" y="631"/>
      <point x="410" y="628" type="curve" smooth="yes"/>
      <point x="432" y="625"/>
      <point x="441" y="606"/>
      <point x="413" y="485" type="curve"/>
      <point x="422" y="483"/>
      <point x="430" y="483"/>
      <point x="440" y="483" type="curve" smooth="yes"/>
      <point x="485" y="483"/>
      <point x="511" y="531"/>
      <point x="511" y="590" type="curve" smooth="yes"/>
      <point x="511" y="676"/>
      <point x="446" y="707"/>
      <point x="364" y="707" type="curve" smooth="yes"/>
      <point x="190" y="707"/>
      <point x="49" y="556"/>
      <point x="49" y="318" type="curve" smooth="yes"/>
      <point x="49" y="93"/>
      <point x="151" y="-18"/>
    </contour>
    <contour>
      <point x="284" y="668" type="line" smooth="yes"/>
      <point x="271" y="694"/>
      <point x="210" y="670"/>
      <point x="228" y="644" type="curve" smooth="yes"/>
      <point x="238" y="629" type="line" smooth="yes"/>
      <point x="252" y="609"/>
      <point x="299" y="639"/>
      <point x="289" y="658" type="curve" smooth="yes"/>
    </contour>
    <contour>
      <point x="17" y="190" type="line" smooth="yes"/>
      <point x="-41" y="166"/>
      <point x="-3" y="84"/>
      <point x="54" y="115" type="curve" smooth="yes"/>
      <point x="219" y="206" type="line" smooth="yes"/>
      <point x="258" y="227"/>
      <point x="236" y="282"/>
      <point x="190" y="263" type="curve" smooth="yes"/>
    </contour>
    <contour>
      <point x="333" y="242" type="curve" smooth="yes"/>
      <point x="361" y="242"/>
      <point x="385" y="266"/>
      <point x="385" y="296" type="curve" smooth="yes"/>
      <point x="385" y="324"/>
      <point x="361" y="348"/>
      <point x="333" y="348" type="curve" smooth="yes"/>
      <point x="303" y="348"/>
      <point x="279" y="324"/>
      <point x="279" y="296" type="curve" smooth="yes"/>
      <point x="279" y="266"/>
      <point x="303" y="242"/>
    </contour>
    <contour>
      <point x="434" y="74" type="line" smooth="yes"/>
      <point x="420" y="94"/>
      <point x="373" y="64"/>
      <point x="383" y="45" type="curve" smooth="yes"/>
      <point x="388" y="35" type="line" smooth="yes"/>
      <point x="401" y="9"/>
      <point x="462" y="33"/>
      <point x="444" y="59" type="curve" smooth="yes"/>
    </contour>
    <contour>
      <point x="372" y="7" type="line" smooth="yes"/>
      <point x="367" y="49"/>
      <point x="298" y="42"/>
      <point x="301" y="5" type="curve" smooth="yes"/>
      <point x="309" y="-108" type="line" smooth="yes"/>
      <point x="313" y="-161"/>
      <point x="390" y="-155"/>
      <point x="384" y="-103" type="curve" smooth="yes"/>
    </contour>
  </outline>
</glyph>
<glyph name="Q.ss01" format="2">
  <advance width="627"/>
  <anchor x="258" y="0" name="bottom"/>
  <anchor x="333" y="700" name="top"/>
  <outline>
    <contour>
      <point x="40" y="322" type="curve" smooth="yes"/>
      <point x="40" y="14"/>
      <point x="249" y="59"/>
      <point x="314" y="-69" type="curve" smooth="yes"/>
      <point x="363" y="-166" type="line" smooth="yes"/>
      <point x="399" y="-238"/>
      <point x="515" y="-176"/>
      <point x="515" y="-110" type="curve" smooth="yes"/>
      <point x="515" y="-25"/>
      <point x="371" y="-31"/>
      <point x="371" y="-2" type="curve" smooth="yes"/>
      <point x="371" y="5"/>
      <point x="377" y="10"/>
      <point x="388" y="14" type="curve" smooth="yes"/>
      <point x="488" y="50"/>
      <point x="587" y="166"/>
      <point x="587" y="386" type="curve" smooth="yes"/>
      <point x="587" y="579"/>
      <point x="506" y="718"/>
      <point x="324" y="718" type="curve" smooth="yes"/>
      <point x="167" y="718"/>
      <point x="40" y="584"/>
    </contour>
    <contour>
      <point x="290" y="89" type="curve" smooth="yes"/>
      <point x="196" y="89"/>
      <point x="121" y="166"/>
      <point x="122" y="326" type="curve" smooth="yes"/>
      <point x="123" y="434"/>
      <point x="168" y="520"/>
      <point x="270" y="520" type="curve" smooth="yes"/>
      <point x="378" y="520"/>
      <point x="444" y="419"/>
      <point x="444" y="276" type="curve" smooth="yes"/>
      <point x="444" y="143"/>
      <point x="377" y="89"/>
    </contour>
    <contour>
      <point x="269" y="576" type="curve" smooth="yes"/>
      <point x="248" y="576"/>
      <point x="231" y="591"/>
      <point x="231" y="614" type="curve" smooth="yes"/>
      <point x="231" y="633"/>
      <point x="248" y="650"/>
      <point x="269" y="650" type="curve" smooth="yes"/>
      <point x="288" y="650"/>
      <point x="305" y="635"/>
      <point x="305" y="614" type="curve" smooth="yes"/>
      <point x="305" y="593"/>
      <point x="288" y="576"/>
    </contour>
    <contour>
      <point x="409" y="540" type="curve" smooth="yes"/>
      <point x="383" y="540"/>
      <point x="362" y="561"/>
      <point x="362" y="587" type="curve" smooth="yes"/>
      <point x="362" y="613"/>
      <point x="383" y="634"/>
      <point x="409" y="634" type="curve" smooth="yes"/>
      <point x="435" y="634"/>
      <point x="456" y="613"/>
      <point x="456" y="587" type="curve" smooth="yes"/>
      <point x="456" y="561"/>
      <point x="435" y="540"/>
    </contour>
    <contour>
      <point x="495" y="422" type="curve" smooth="yes"/>
      <point x="473" y="422"/>
      <point x="456" y="439"/>
      <point x="456" y="461" type="curve" smooth="yes"/>
      <point x="456" y="482"/>
      <point x="473" y="499"/>
      <point x="495" y="499" type="curve" smooth="yes"/>
      <point x="516" y="499"/>
      <point x="533" y="482"/>
      <point x="533" y="461" type="curve" smooth="yes"/>
      <point x="533" y="439"/>
      <point x="516" y="422"/>
    </contour>
    <contour>
      <point x="61" y="21" type="curve" smooth="yes"/>
      <point x="306" y="182" type="line" smooth="yes"/>
      <point x="348" y="210"/>
      <point x="306" y="265"/>
      <point x="270" y="243" type="curve" smooth="yes"/>
      <point x="22" y="89" type="line" smooth="yes"/>
      <point x="-19" y="63"/>
      <point x="17" y="-8"/>
    </contour>
    <contour>
      <point x="489" y="131" type="curve" smooth="yes"/>
      <point x="478" y="143" type="line" smooth="yes"/>
      <point x="452" y="172"/>
      <point x="407" y="124"/>
      <point x="424" y="99" type="curve" smooth="yes"/>
      <point x="435" y="83" type="line" smooth="yes"/>
      <point x="455" y="53"/>
      <point x="512" y="105"/>
    </contour>
    <contour>
      <point x="78" y="427" type="curve" smooth="yes"/>
      <point x="87" y="422" type="line" smooth="yes"/>
      <point x="132" y="397"/>
      <point x="168" y="463"/>
      <point x="121" y="487" type="curve" smooth="yes"/>
      <point x="113" y="491" type="line" smooth="yes"/>
      <point x="71" y="512"/>
      <point x="35" y="451"/>
    </contour>
  </outline>
</glyph>
<glyph name="X.001" format="2">
  <advance width="576"/>
  <anchor x="289" y="-8" name="bottom"/>
  <anchor x="349" y="707" name="top"/>
  <outline>
    <contour>
      <point x="37" y="28" type="line" smooth="yes"/>
      <point x="17" y="-25"/>
      <point x="81" y="-52"/>
      <point x="108" y="0" type="curve" smooth="yes"/>
      <point x="217" y="210" type="line" smooth="yes"/>
      <point x="227" y="230"/>
      <point x="240" y="241"/>
      <point x="260" y="241" type="curve" smooth="yes"/>
      <point x="278" y="241"/>
      <point x="292" y="230"/>
      <point x="304" y="211" type="curve" smooth="yes"/>
      <point x="434" y="3" type="line" smooth="yes"/>
      <point x="470" y="-54"/>
      <point x="561" y="-24"/>
      <point x="536" y="46" type="curve" smooth="yes"/>
      <point x="439" y="314" type="line" smooth="yes"/>
      <point x="432" y="333"/>
      <point x="427" y="356"/>
      <point x="427" y="378" type="curve" smooth="yes"/>
      <point x="427" y="401"/>
      <point x="434" y="425"/>
      <point x="444" y="449" type="curve" smooth="yes"/>
      <point x="521" y="638" type="line" smooth="yes"/>
      <point x="541" y="688"/>
      <point x="479" y="716"/>
      <point x="452" y="668" type="curve" smooth="yes"/>
      <point x="347" y="482" type="line" smooth="yes"/>
      <point x="329" y="451"/>
      <point x="315" y="442"/>
      <point x="298" y="442" type="curve" smooth="yes"/>
      <point x="278" y="442"/>
      <point x="267" y="449"/>
      <point x="243" y="484" type="curve" smooth="yes"/>
      <point x="102" y="687" type="line" smooth="yes"/>
      <point x="72" y="731"/>
      <point x="6" y="700"/>
      <point x="33" y="644" type="curve" smooth="yes"/>
      <point x="126" y="452" type="line" smooth="yes"/>
      <point x="139" y="426"/>
      <point x="147" y="394"/>
      <point x="147" y="359" type="curve" smooth="yes"/>
      <point x="147" y="328"/>
      <point x="140" y="298"/>
      <point x="128" y="266" type="curve" smooth="yes"/>
    </contour>
    <contour>
      <point x="528" y="439" type="line" smooth="yes"/>
      <point x="571" y="417"/>
      <point x="600" y="479"/>
      <point x="557" y="501" type="curve" smooth="yes"/>
      <point x="349" y="605" type="line" smooth="yes"/>
      <point x="310" y="625"/>
      <point x="278" y="565"/>
      <point x="321" y="543" type="curve" smooth="yes"/>
    </contour>
    <contour>
      <point x="388" y="418" type="line" smooth="yes"/>
      <point x="409" y="410"/>
      <point x="428" y="455"/>
      <point x="406" y="466" type="curve" smooth="yes"/>
      <point x="396" y="471" type="line"/>
      <point x="373" y="424" type="line"/>
    </contour>
    <contour>
      <point x="143" y="628" type="curve"/>
      <point x="169" y="589" type="line"/>
      <point x="169" y="589"/>
      <point x="164" y="597"/>
      <point x="158" y="606" type="curve" smooth="yes"/>
      <point x="148" y="621"/>
      <point x="143" y="628"/>
    </contour>
    <contour>
      <point x="196" y="552" type="curve"/>
      <point x="224" y="510" type="line"/>
      <point x="224" y="510"/>
      <point x="220" y="517"/>
      <point x="211" y="530" type="curve" smooth="yes"/>
      <point x="201" y="543"/>
      <point x="196" y="552"/>
    </contour>
    <contour>
      <point x="223" y="274" type="curve" smooth="yes"/>
      <point x="243" y="274"/>
      <point x="259" y="290"/>
      <point x="259" y="310" type="curve" smooth="yes"/>
      <point x="259" y="330"/>
      <point x="243" y="347"/>
      <point x="223" y="347" type="curve" smooth="yes"/>
      <point x="203" y="347"/>
      <point x="186" y="330"/>
      <point x="186" y="310" type="curve" smooth="yes"/>
      <point x="186" y="290"/>
      <point x="203" y="274"/>
    </contour>
    <contour>
      <point x="221" y="38" type="line" smooth="yes"/>
      <point x="264" y="17"/>
      <point x="296" y="82"/>
      <point x="252" y="102" type="curve" smooth="yes"/>
      <point x="47" y="194" type="line" smooth="yes"/>
      <point x="7" y="212"/>
      <point x="-23" y="154"/>
      <point x="19" y="134" type="curve" smooth="yes"/>
    </contour>
    <contour>
      <point x="415" y="126" type="curve" smooth="yes"/>
      <point x="396" y="126"/>
      <point x="381" y="142"/>
      <point x="381" y="161" type="curve" smooth="yes"/>
      <point x="381" y="179"/>
      <point x="396" y="194"/>
      <point x="415" y="194" type="curve" smooth="yes"/>
      <point x="434" y="194"/>
      <point x="449" y="179"/>
      <point x="449" y="161" type="curve" smooth="yes"/>
      <point x="449" y="142"/>
      <point x="434" y="126"/>
    </contour>
    <contour>
      <point x="360" y="254" type="curve" smooth="yes"/>
      <point x="337" y="254"/>
      <point x="317" y="275"/>
      <point x="317" y="297" type="curve" smooth="yes"/>
      <point x="317" y="320"/>
      <point x="337" y="339"/>
      <point x="360" y="339" type="curve" smooth="yes"/>
      <point x="384" y="339"/>
      <point x="402" y="320"/>
      <point x="402" y="297" type="curve" smooth="yes"/>
      <point x="402" y="275"/>
      <point x="384" y="254"/>
    </contour>
    <contour>
      <point x="78" y="15" type="line" smooth="yes"/>
      <point x="99" y="7"/>
      <point x="116" y="52"/>
      <point x="93" y="61" type="curve" smooth="yes"/>
      <point x="88" y="63" type="line" smooth="yes"/>
      <point x="63" y="73"/>
      <point x="48" y="27"/>
      <point x="68" y="19" type="curve" smooth="yes"/>
    </contour>
  </outline>
</glyph>
<glyph name="brevecomb.case" format="2">
  <anchor x="193" y="700" name="_top"/>
  <outline>
    <contour>
      <point x="174" y="751" type="curve" smooth="yes"/>
      <point x="249" y="751"/>
      <point x="329" y="777"/>
      <point x="359" y="869" type="curve" smooth="yes"/>
      <point x="370" y="903"/>
      <point x="364" y="924"/>
      <point x="338" y="932" type="curve" smooth="yes"/>
      <point x="318" y="937"/>
      <point x="302" y="930"/>
      <point x="280" y="894" type="curve" smooth="yes"/>
      <point x="258" y="858"/>
      <point x="238" y="845"/>
      <point x="184" y="845" type="curve" smooth="yes"/>
      <point x="134" y="845"/>
      <point x="108" y="867"/>
      <point x="102" y="905" type="curve" smooth="yes"/>
      <point x="96" y="942"/>
      <point x="81" y="955"/>
      <point x="58" y="952" type="curve" smooth="yes"/>
      <point x="34" y="948"/>
      <point x="20" y="933"/>
      <point x="25" y="889" type="curve" smooth="yes"/>
      <point x="35" y="802"/>
      <point x="84" y="751"/>
    </contour>
  </outline>
</glyph>
<glyph name="circumflexcomb.case.alt1" format="2">
  <anchor x="212" y="700" name="_top"/>
  <outline>
    <contour>
      <point x="101" y="746" type="curve" smooth="yes"/>
      <point x="122" y="769"/>
      <point x="150" y="797"/>
      <point x="165" y="813" type="curve" smooth="yes"/>
      <point x="177" y="825"/>
      <point x="185" y="825"/>
      <point x="197" y="818" type="curve" smooth="yes"/>
      <point x="224" y="803"/>
      <point x="275" y="768"/>
      <point x="331" y="732" type="curve" smooth="yes"/>
      <point x="370" y="707"/>
      <point x="421" y="755"/>
      <point x="371" y="798" type="curve" smooth="yes"/>
      <point x="331" y="832"/>
      <point x="272" y="877"/>
      <point x="237" y="902" type="curve" smooth="yes"/>
      <point x="200" y="929"/>
      <point x="159" y="924"/>
      <point x="124" y="893" type="curve" smooth="yes"/>
      <point x="95" y="867"/>
      <point x="55" y="831"/>
      <point x="37" y="811" type="curve" smooth="yes"/>
      <point x="-19" y="749"/>
      <point x="57" y="698"/>
    </contour>
  </outline>
</glyph>
<glyph name="circumflexcomb.case" format="2">
  <anchor x="214" y="700" name="_top"/>
  <outline>
    <contour>
      <point x="138" y="771" type="curve" smooth="yes"/>
      <point x="167" y="794"/>
      <point x="193" y="816"/>
      <point x="223" y="838" type="curve" smooth="yes"/>
      <point x="234" y="846"/>
      <point x="246" y="843"/>
      <point x="257" y="834" type="curve" smooth="yes"/>
      <point x="273" y="820"/>
      <point x="297" y="795"/>
      <point x="313" y="780" type="curve" smooth="yes"/>
      <point x="333" y="763"/>
      <point x="357" y="757"/>
      <point x="373" y="768" type="curve" smooth="yes"/>
      <point x="391" y="780"/>
      <point x="389" y="811"/>
      <point x="373" y="831" type="curve" smooth="yes"/>
      <point x="349" y="861"/>
      <point x="312" y="899"/>
      <point x="283" y="922" type="curve" smooth="yes"/>
      <point x="264" y="937"/>
      <point x="232" y="940"/>
      <point x="205" y="927" type="curve" smooth="yes"/>
      <point x="159" y="905"/>
      <point x="110" y="874"/>
      <point x="70" y="847" type="curve" smooth="yes"/>
      <point x="41" y="828"/>
      <point x="36" y="795"/>
      <point x="58" y="769" type="curve" smooth="yes"/>
      <point x="80" y="743"/>
      <point x="107" y="746"/>
    </contour>
  </outline>
</glyph>
<glyph name="dieresiscomb.case" format="2">
  <anchor x="206" y="700" name="_top"/>
  <outline>
    <contour>
      <point x="121" y="751" type="curve" smooth="yes"/>
      <point x="153" y="751"/>
      <point x="180" y="778"/>
      <point x="180" y="812" type="curve" smooth="yes"/>
      <point x="180" y="844"/>
      <point x="153" y="871"/>
      <point x="121" y="871" type="curve" smooth="yes"/>
      <point x="87" y="871"/>
      <point x="60" y="844"/>
      <point x="60" y="812" type="curve" smooth="yes"/>
      <point x="60" y="778"/>
      <point x="87" y="751"/>
    </contour>
    <contour>
      <point x="285" y="748" type="curve" smooth="yes"/>
      <point x="325" y="748"/>
      <point x="357" y="779"/>
      <point x="357" y="821" type="curve" smooth="yes"/>
      <point x="357" y="861"/>
      <point x="325" y="893"/>
      <point x="285" y="893" type="curve" smooth="yes"/>
      <point x="243" y="893"/>
      <point x="212" y="861"/>
      <point x="212" y="821" type="curve" smooth="yes"/>
      <point x="212" y="779"/>
      <point x="243" y="748"/>
    </contour>
  </outline>
</glyph>
<glyph name="gravecomb.case" format="2">
  <anchor x="212" y="701" name="_top"/>
  <outline>
    <contour>
      <point x="187" y="760" type="curve" smooth="yes"/>
      <point x="202" y="751"/>
      <point x="220" y="753"/>
      <point x="230" y="763" type="curve" smooth="yes"/>
      <point x="239" y="772"/>
      <point x="241" y="795"/>
      <point x="225" y="815" type="curve" smooth="yes"/>
      <point x="197" y="851"/>
      <point x="132" y="923"/>
      <point x="87" y="964" type="curve" smooth="yes"/>
      <point x="63" y="986"/>
      <point x="29" y="992"/>
      <point x="8" y="971" type="curve" smooth="yes"/>
      <point x="-20" y="943"/>
      <point x="-10" y="910"/>
      <point x="20" y="883" type="curve" smooth="yes"/>
      <point x="69" y="840"/>
      <point x="130" y="795"/>
    </contour>
  </outline>
</glyph>
<glyph name="macroncomb.case" format="2">
  <anchor x="185" y="700" name="_top"/>
  <outline>
    <contour>
      <point x="108" y="849" type="curve" smooth="yes"/>
      <point x="68" y="849"/>
      <point x="44" y="835"/>
      <point x="44" y="804" type="curve" smooth="yes"/>
      <point x="44" y="773"/>
      <point x="67" y="759"/>
      <point x="102" y="757" type="curve" smooth="yes"/>
      <point x="155" y="754"/>
      <point x="238" y="753"/>
      <point x="293" y="755" type="curve" smooth="yes"/>
      <point x="331" y="756"/>
      <point x="350" y="770"/>
      <point x="350" y="800" type="curve" smooth="yes"/>
      <point x="350" y="823"/>
      <point x="331" y="837"/>
      <point x="299" y="840" type="curve" smooth="yes"/>
      <point x="245" y="845"/>
      <point x="164" y="849"/>
    </contour>
  </outline>
</glyph>
<glyph name="ogonekcomb.case" format="2">
  <anchor x="194" y="0" name="_ogonek"/>
  <outline>
    <contour>
      <point x="249" y="28" type="curve"/>
      <point x="148" y="28" type="line"/>
      <point x="79" y="4"/>
      <point x="12" y="-49"/>
      <point x="12" y="-134" type="curve" smooth="yes"/>
      <point x="12" y="-192"/>
      <point x="53" y="-235"/>
      <point x="134" y="-235" type="curve" smooth="yes"/>
      <point x="212" y="-235"/>
      <point x="247" y="-213"/>
      <point x="247" y="-178" type="curve" smooth="yes"/>
      <point x="247" y="-155"/>
      <point x="235" y="-140"/>
      <point x="211" y="-140" type="curve" smooth="yes"/>
      <point x="180" y="-140"/>
      <point x="154" y="-146"/>
      <point x="124" y="-146" type="curve" smooth="yes"/>
      <point x="92" y="-146"/>
      <point x="82" y="-126"/>
      <point x="82" y="-108" type="curve" smooth="yes"/>
      <point x="82" y="-54"/>
      <point x="148" y="-14"/>
    </contour>
  </outline>
</glyph>
<glyph name="ringcomb.case" format="2">
  <anchor x="150" y="700" name="_top"/>
  <outline>
    <contour>
      <point x="141" y="729" type="curve" smooth="yes"/>
      <point x="207" y="729"/>
      <point x="263" y="761"/>
      <point x="263" y="843" type="curve" smooth="yes"/>
      <point x="263" y="906"/>
      <point x="212" y="952"/>
      <point x="143" y="952" type="curve" smooth="yes"/>
      <point x="73" y="952"/>
      <point x="24" y="898"/>
      <point x="24" y="833" type="curve" smooth="yes"/>
      <point x="24" y="764"/>
      <point x="70" y="729"/>
    </contour>
    <contour>
      <point x="140" y="783" type="curve" smooth="yes"/>
      <point x="103" y="783"/>
      <point x="88" y="803"/>
      <point x="88" y="832" type="curve" smooth="yes"/>
      <point x="88" y="863"/>
      <point x="112" y="880"/>
      <point x="146" y="880" type="curve" smooth="yes"/>
      <point x="178" y="880"/>
      <point x="197" y="859"/>
      <point x="197" y="830" type="curve" smooth="yes"/>
      <point x="197" y="800"/>
      <point x="173" y="783"/>
    </contour>
  </outline>
</glyph>
<glyph name="tildecomb.case" format="2">
  <anchor x="201" y="700" name="_top"/>
  <outline>
    <contour>
      <point x="31" y="821" type="curve" smooth="yes"/>
      <point x="12" y="789"/>
      <point x="10" y="762"/>
      <point x="37" y="746" type="curve" smooth="yes"/>
      <point x="66" y="728"/>
      <point x="94" y="744"/>
      <point x="111" y="773" type="curve" smooth="yes"/>
      <point x="126" y="798"/>
      <point x="142" y="808"/>
      <point x="163" y="808" type="curve" smooth="yes"/>
      <point x="202" y="808"/>
      <point x="218" y="739"/>
      <point x="294" y="739" type="curve" smooth="yes"/>
      <point x="352" y="739"/>
      <point x="380" y="771"/>
      <point x="390" y="831" type="curve" smooth="yes"/>
      <point x="395" y="860"/>
      <point x="391" y="884"/>
      <point x="365" y="889" type="curve" smooth="yes"/>
      <point x="340" y="894"/>
      <point x="326" y="878"/>
      <point x="321" y="852" type="curve" smooth="yes"/>
      <point x="313" y="818"/>
      <point x="305" y="811"/>
      <point x="289" y="811" type="curve" smooth="yes"/>
      <point x="247" y="811"/>
      <point x="224" y="895"/>
      <point x="143" y="895" type="curve" smooth="yes"/>
      <point x="94" y="895"/>
      <point x="55" y="862"/>
    </contour>
  </outline>
</glyph>
